<?xml version="1.0" standalone="no"?>
<!DOCTYPE svg PUBLIC "-//W3C//DTD SVG 1.1//EN" "http://www.w3.org/Graphics/SVG/1.1/DTD/svg11.dtd" >
<svg xmlns="http://www.w3.org/2000/svg">
<metadata>
This is a custom SVG webfont generated by Font Squirrel.
Copyright   : Copyright c 2011 by vernon adams All rights reserved
</metadata>
<defs>
<font id="BowlbyOneSCRegular" horiz-adv-x="1454" >
<font-face units-per-em="2048" ascent="1638" descent="-410" />
<missing-glyph horiz-adv-x="716" />
<glyph unicode=" "  horiz-adv-x="716" />
<glyph unicode="&#x09;" horiz-adv-x="716" />
<glyph unicode="&#xa0;" horiz-adv-x="716" />
<glyph unicode="!" horiz-adv-x="792" d="M92 1462q0 34 168 34h60l60 4q112 8 219 8t107 -40v-4l-36 -452q-20 -228 -44 -454q-4 -36 -110 -36l-78 2l-158 -4h-86q-50 16 -50 92v100l-20 252l-12 190q-6 92 -14 190zM112 12v64l4 76q0 204 32 204h196q314 0 314 -36l-2 -28v-208q0 -40 4 -80q-8 -32 -298 -32 l-216 -4l-14 16q-4 4 -20 28z" />
<glyph unicode="&#x22;" horiz-adv-x="1284" d="M180 904v38q0 34 4 70l4 242l4 134v52q0 64 22 70l166 -2q40 4 130 4t90 -20v-26q12 -414 12 -500q0 -104 -15 -115t-61 -11l-58 2l-132 -2q-66 0 -132 -4l-18 18q-16 20 -16 50zM700 912v92l10 260q2 36 2 72v132q0 44 22 44h120q34 0 70 -2l70 -2q122 0 122 -10v-18 q12 -222 12 -427t-24 -205h-2l-2 2q-112 -4 -368 -12l-12 18q-20 26 -20 56z" />
<glyph unicode="#" horiz-adv-x="1548" d="M224 440l2 192q-2 36 58 36h128l20 144h-88q-56 0 -56 36l4 230q0 36 114 36l64 -2q2 0 6 26t12 64l24 174l12 72q6 48 40 55t116 7h68q68 0 78 -30q-16 -94 -27 -189t-27 -189h98q4 32 8 70l6 80q22 222 52 252q20 -2 40 -2h200q34 0 34 -24l-42 -322l-6 -52h122 q24 -4 24 -44v-132l2 -68q0 -44 -72 -44h-18q-88 6 -94 6q-6 -40 -10 -79t-10 -79h110q30 0 38 -20v-148l2 -96q-4 -24 -28 -22l-154 4l-12 -90l-10 -92q-2 -16 0 -40q6 -188 -120 -188l-84 -2q-124 0 -130 38q12 88 22 178t24 182q-20 -2 -40 -3t-40 -5l-32 -276 q-4 -22 -6 -44q-8 -74 -98 -74t-198 4q-8 12 -15 23t-15 23q12 88 24 172t24 176h-24q-108 0 -114 24t-6 52zM668 648q0 -28 16 -28h28l114 6q14 -2 18 14l36 200q-4 28 -28 28h-48q-24 4 -44 4h-44l-14 -26q-10 -52 -18 -100z" />
<glyph unicode="$" horiz-adv-x="1444" d="M22 452q0 40 68 40l58 -4h448q24 0 34 -50t30 -77t82 -29q126 0 126 100q0 64 -88 64q-24 12 -112 34l-92 24q-290 70 -363 136t-115 136t-42 179t20 179q78 264 472 346q-2 26 -2 58v76q0 62 22 68h80l200 2q40 0 40 -100l-4 -106q456 -36 512 -378q4 -18 4 -38v-42 q0 -22 -8 -22h-16l-456 -10q-62 0 -69 19t-18 63t-59 42h-4q-146 -6 -146 -62q0 -68 104 -86t132 -26l106 -26q196 -48 306 -114q192 -144 192 -392q0 -396 -556 -510l2 -102q2 -16 2 -28v-16q0 -60 -44 -60l-148 4q-72 0 -148 4q-36 24 -36 68v34q0 106 -64 112 q-216 22 -327 160t-123 330z" />
<glyph unicode="%" horiz-adv-x="2152" d="M18 1020q0 12 4 40t10 78q26 178 120 272q146 122 280 122q480 0 480 -506t-460 -506q-434 0 -434 500zM366 1021q0 -269 110 -269q88 0 88 192v164q0 188 -92 188q-106 -6 -106 -275zM528 -14l848 1544q8 10 16 14h64l138 -4q26 0 26 -4v-2l-400 -768 q-64 -110 -116 -230l-296 -596q-14 -28 -128 -28l-124 4zM1236 434v26q24 286 116 362q260 138 296 137t116 -1t154 -48q150 -98 184 -213t34 -241q0 -252 -130 -384t-336 -132q-434 0 -434 494zM1582 412q0 -238 110 -238q94 0 94 182l-2 116v26q2 14 2 34q0 184 -100 184 h-2q-102 0 -102 -270v-34z" />
<glyph unicode="&#x26;" horiz-adv-x="1814" d="M16 376q0 296 360 428q-212 134 -212 344q0 290 426 370q74 14 158 14q624 0 624 -368q0 -204 -284 -400l152 -140q36 54 38 88q4 88 68 88h134l156 -2h46q22 2 44 2q28 -4 34 -36l-4 -38v-2q-18 -234 -188 -412l116 -116q26 -30 54 -59t45 -49t25 -28l18 -18 q22 -22 22 -48t-204 -26h-168q-102 0 -210 4q-26 12 -48 32t-46 36l-40 -18q-176 -76 -348 -90l-44 -2h-44q-300 0 -440 94q-240 160 -240 352zM520 386q0 -66 70 -110t161 -44t209 64q-30 32 -60 60l-214 200q-22 20 -52 20t-72 -62t-42 -128zM612 1150q0 -50 59 -109 t105 -71l12 2l48 38q92 76 92 146q0 120 -132 120t-158 -48t-26 -78z" />
<glyph unicode="'" horiz-adv-x="802" d="M178 872l8 246q2 66 5 156t3 110v26q-2 14 -2 53t24 45h66q308 0 319 -13t11 -593q0 -66 -156 -66h-240q-20 14 -38 36z" />
<glyph unicode="(" horiz-adv-x="832" d="M132 420q-4 232 8 304t26 144t34 146t40 144q96 338 132 344q12 2 17 2t130 2t194 2t74 -6t9 -22l-54 -204q-120 -394 -119 -505t1 -115q4 -344 124 -732l56 -200q-12 -20 -18 -24l-16 -24h-58l-328 8q-28 10 -80 150l-62 194q-110 298 -110 392z" />
<glyph unicode=")" horiz-adv-x="834" d="M24 1484q20 28 36 40h372q26 0 44 -32l78 -214q156 -406 156 -628t-74 -460l-78 -244q-90 -246 -114 -250t-122 -4h-168q-110 0 -110 11t6 25t20 60q140 460 140 748t-78 560z" />
<glyph unicode="*" horiz-adv-x="930" d="M76 1072v68q0 92 32 108q88 0 160 -4l-32 52v-2q-8 14 -16 30l-18 30q-18 36 -18 52q0 26 44 38l52 34q64 40 79 40t23 -11t17 -26t21 -33t20 -36l32 -64l12 28q8 16 12 28l10 22q42 84 62 94l60 -28q120 -52 120 -79t-26 -61l-28 -44q-16 -24 -36 -68l26 4q20 4 48 4h56 l58 -4q10 -6 10 -57t-6 -83v-52q0 -24 -182 -24l34 -58q8 -12 12 -26l18 -32q28 -28 28 -48t-2 -20q2 4 -2 8l-170 -104l-10 -4q-8 0 -48 60l-54 90l-22 -44l-20 -36q-36 -74 -57 -74t-57 24l-122 76q-8 4 -13 5t-5 10t30 69l48 84l-76 -2h-34q-20 2 -36 2q-34 28 -34 64z " />
<glyph unicode="+" horiz-adv-x="1270" d="M84 414v62q2 12 2 24l-2 124q0 72 56 72h322l2 144v176q0 60 82 60h164q82 0 88 -28l-2 -360l352 2q28 -4 28 -48l-2 -174v-34q-2 -58 -10 -58h-374q4 -84 4 -168v-168q0 -44 -27 -48t-91 -4h-132q-68 0 -68 20v4l-4 346l-44 -2l-84 2l-76 -2l-150 2q-34 6 -34 56z" />
<glyph unicode="," horiz-adv-x="734" d="M-8 -206q8 32 20 92l60 278q60 276 92 278t62 2h150l144 2q152 0 152 -30l-140 -448q-66 -190 -88 -196q-60 -12 -170 -12h-174q-66 0 -76 4z" />
<glyph unicode="-" horiz-adv-x="858" d="M36 380l2 92q2 48 2 92l-4 78q0 102 32 102h410h302q28 -4 28 -134v-214q-6 -36 -28 -36l-708 -20l-20 20q-8 8 -16 20z" />
<glyph unicode="." horiz-adv-x="774" d="M112 14v30l2 100v52q0 244 32 244h354q152 0 152 -28q4 -144 4 -294v-34l2 -44q0 -58 -22 -58l-8 2l-192 -8q-96 -4 -196 -8h-96z" />
<glyph unicode="/" horiz-adv-x="804" d="M-42 7q0 23 8 43l518 1396l34 86q8 16 94 16l134 -4h56q38 0 38 -24t-7 -50t-17 -54t-21 -55t-19 -51l-308 -914l-112 -306q-12 -30 -18 -58q-20 -94 -146 -100h-40q-28 -4 -54 -4h-112q-28 56 -28 79z" />
<glyph unicode="0" horiz-adv-x="1462" d="M20 736q0 758 700 814h16q682 0 682 -830q0 -628 -504 -752q-98 -24 -232 -24q-272 0 -455 176t-199 510q-4 62 -8 106zM556 696q0 -396 160 -396t160 322q8 84 8 166v94q0 306 -152 306q-176 0 -176 -388v-104z" />
<glyph unicode="1" horiz-adv-x="1578" d="M196 816v242q0 170 22 181t54 24t56 25t96 44q166 76 224 172q156 -4 248 -4h124q32 0 66 4q22 -2 22 -74v-582q0 -120 4 -242l8 -602q-6 -36 -144 -36l-100 2l-154 -2q-92 0 -186 4l-26 34q-10 10 -10 138t4 344l8 436q-138 -92 -282 -136q-30 0 -34 28z" />
<glyph unicode="2" horiz-adv-x="1458" d="M60 78l4 118v180q0 22 68 68l394 270l62 48q216 172 216 281t-82 109t-98 -78t-44 -86h-376q-144 0 -144 30q22 244 103 327t211 141t287 58t240 -12t157 -36q154 -50 248 -155t94 -241q0 -344 -380 -596q-138 -92 -146 -100l422 8q118 0 118 -180l-6 -190v-18 q0 -42 -40 -48l-72 2l-324 6q-430 0 -874 -16l-14 20q-24 16 -24 90z" />
<glyph unicode="3" d="M16 448q0 32 32 32l476 8q32 0 36 -30v-2q18 -132 122 -132h2q112 0 112 112q0 148 -206 148h-44q-68 0 -68 94v64q0 162 46 162h88q168 0 168 156q0 102 -87 102t-101 -74l-8 -40q-8 -44 -36 -56q-188 0 -378 8l-52 -2q-78 0 -78 38l8 84q8 92 80 212t230 166t318 46 t227 -11t131 -33q138 -50 230 -150q146 -160 68 -372q-40 -104 -112 -139t-120 -51q288 -86 288 -348q0 -498 -696 -498q-390 0 -564 180q-102 88 -112 326z" />
<glyph unicode="4" horiz-adv-x="1432" d="M-8 248v196l2 80v26q0 26 2 54q52 134 132 270l380 602q16 20 130 20l248 6q80 2 160 2h182q14 -2 32 -12v-60l-8 -554v-46q0 -24 2 -48v-8l-2 -96q0 -46 44 -46l84 2q46 0 49 -20t3 -32t-4 -12l6 -236q0 -124 -34 -124h-140q4 -92 4 -163t-40 -77h-304q-130 0 -214 -6 l-18 22q-16 16 -16 140v96q0 20 -30 20q-84 0 -166 -28l-248 -4h-148q-70 0 -88 36zM406 628l12 -26q4 -14 12 -26h18l266 6q32 14 30 52t-2 58l2 52v110q0 282 -24 282t-36 -12z" />
<glyph unicode="5" horiz-adv-x="1468" d="M68 400q0 36 86 36h198l264 -6q24 -2 37 -54t55 -52q100 0 100 173t-96 173q-56 0 -72 -54q-4 -8 -2 -20q8 -44 -62 -42h-294q-106 0 -130 -2q-32 44 -32 92l2 76l-2 212q-4 80 -4 160v228q0 32 4 68v34q0 70 26 98q38 -2 76 -2l74 2q38 0 76 -2l832 -10l42 2 q56 0 62 -26v-288q0 -66 -13 -72t-29 -6h-18q-302 0 -614 -4q-4 -46 -7 -92t-7 -90q106 76 250 76q254 0 388 -135t134 -296t-28 -247t-76 -150q-184 -244 -580 -244q-588 0 -640 464z" />
<glyph unicode="6" horiz-adv-x="1456" d="M44 752q0 356 195 578t533 226q486 0 560 -330q16 -68 16 -96t-15 -33t-54 -9t-91 -6t-109 -3t-104 -2t-79 -1h-34q-40 0 -40 16v36q-4 34 -54 34h-6q-150 0 -150 -262v-16q92 106 244 106q270 0 413 -133t143 -345q0 -444 -480 -548q-106 -20 -241 -20t-285 62 q-362 152 -362 746zM596 466q0 -130 72 -174l36 -12q16 -4 30 -10t20 -6t6 4q164 12 164 208v10q-4 206 -166 206t-162 -226z" />
<glyph unicode="7" horiz-adv-x="1462" d="M64 1448q0 80 44 80q308 0 614 -8l610 -12q42 0 42 -156l-2 -88v-54q0 -150 -64 -266l-342 -622l-162 -326q-8 -26 -32 -26l-192 2h-236q-164 0 -164 26t8 46l516 1026q-172 0 -340 -4h-230q-38 0 -66 46v268z" />
<glyph unicode="8" horiz-adv-x="1450" d="M28 396q18 256 236 358q-190 88 -190 314q-2 396 490 468q76 12 222 12t299 -68t217 -166t64 -287t-206 -263q248 -124 248 -378t-268 -378q-128 -64 -368 -64h-84q-556 0 -638 332q-14 56 -22 120zM558 440q18 -168 168 -168t150 174t-159 174t-159 -180zM584 1050 q0 -162 135 -162t135 162t-135 162t-135 -162z" />
<glyph unicode="9" horiz-adv-x="1456" d="M42 984q0 366 356 500q148 56 266 56q406 0 550 -178q194 -238 194 -580q0 -160 -36 -314q-84 -380 -422 -488q-454 -136 -702 72q-144 108 -144 338l16 22q8 10 20 22l452 -6q36 0 36 -40q12 -62 66 -62q94 0 118 77t30 185q-104 -64 -226 -64q-248 0 -411 116t-163 344 zM520 988q56 -148 174 -192q158 0 158 208t-166 208t-166 -224z" />
<glyph unicode=":" horiz-adv-x="770" d="M106 52q0 136 10 362q0 30 212 30l120 -2h80q108 0 120 -28v-344q0 -34 2 -66q-14 -36 -184 -36h-328l-30 42zM110 680v28l2 88v56q0 224 30 224h360q146 0 146 -30l6 -262l-6 -44q8 -40 8 -72q0 -52 -32 -52l-240 -8l-240 -6l-32 46q0 16 -2 32z" />
<glyph unicode=";" horiz-adv-x="732" d="M-8 -180l16 84q8 40 20 80l4 22q4 22 10 56t18 76l20 86q54 236 82 236h230l132 2q146 0 146 -30v-12l-138 -420l-14 -48l-56 -136q-14 -28 -228 -28l-186 4h-22q-18 12 -34 28zM126 652l2 32l4 180q0 192 28 192h42l290 4q174 0 174 -24q6 -152 6 -295t-14 -149h-2 q-18 -4 -492 -20l-34 42q-4 24 -4 38z" />
<glyph unicode="&#x3c;" horiz-adv-x="1270" d="M78 454l2 78l-2 58q0 72 38 110l890 340l136 48h4q36 0 36 -58l-2 -102v-52q0 -80 -20 -96l-648 -256l612 -232q54 -24 57 -62t3 -152t-22 -114t-30 2l-912 358l-48 16q-94 32 -94 114z" />
<glyph unicode="=" horiz-adv-x="1272" d="M82 194v44l2 70v52q0 64 22 96h18l744 -28h36q244 8 256 8t12 -62v-154l2 -46q0 -54 -32 -54l-274 -4q-190 -4 -375 -8t-375 -8l-34 36q-2 32 -2 58zM84 636v224q0 76 32 76h96l936 -4q24 0 24 -156v-108q0 -44 -10 -44t-20 12l-266 -8q-192 -8 -380 -14t-380 -14z" />
<glyph unicode="&#x3e;" horiz-adv-x="1268" d="M78 4q0 88 10 248q0 36 274 140l276 104q62 22 94 36l-468 192q-80 32 -126 49t-46 59v28l-2 96q-2 126 10 126t22 -4l922 -354l118 -50q22 -12 22 -100v-118q0 -80 -30 -80l-910 -374q-60 -24 -122 -44z" />
<glyph unicode="?" horiz-adv-x="1120" d="M42 1074l2 368q0 106 333 106t481 -72l42 -22q84 -54 130 -122l14 -28q32 -58 36 -111t8 -81q22 -198 -268 -384q-104 -68 -110 -140l10 -96q0 -24 -48 -24l-114 -4q-178 0 -354 -8q-28 0 -28 34v46q0 138 62 204t94 96q124 112 138 194q-12 66 -108 66h-8 q-128 -4 -266 -60zM170 34v26l2 72v64q-2 16 -2 83t30 89l318 -8q174 -6 184 -28t10 -46v-100l2 -122v-60q-2 -20 -14 -20h-54h-32q-24 0 -101 -4t-161 -8l-150 -4l-30 40q0 16 -2 26z" />
<glyph unicode="@" horiz-adv-x="1670" d="M72 683q0 163 31 268t85 191q108 172 288 266t352 94q320 0 542 -163t222 -461t-194 -478q-90 -82 -142 -82h-58q-108 2 -170 162h-8q-116 -144 -299 -144t-271 184q-26 56 -26 120v36q0 264 236 382q76 38 172 38h2q130 0 210 -80l48 -72q20 70 38 142l122 -2l-72 -388 l-8 -52q-6 -32 -6 -60q0 -116 82 -116q176 74 176 348q0 524 -550 524q-406 0 -562 -358q-116 -266 0 -502q52 -104 136 -176q236 -138 362 -152q186 0 298 34l48 -146q-134 -52 -288 -52t-247 25t-175 71q-168 96 -271 266t-103 333zM632 692q0 -184 132 -184 q172 0 232 152q42 114 -10 183t-128 69q-196 0 -226 -220z" />
<glyph unicode="A" horiz-adv-x="1638" d="M-48 0q52 188 112 374l364 1110q8 16 16 24h168l348 4l92 -4l76 4q78 0 78 -44q124 -342 230 -680l212 -668l16 -54q8 -30 20 -54q0 -36 -72 -36h-92l-238 -2q-230 4 -235 23t-9 37l-8 40q-24 134 -74 134l-344 -4l-52 -208q-12 -24 -72 -24h-120l-256 -6h-28l-104 -2z M644 608l30 -48h178q100 0 100 38t-12 76t-20 74l-86 384l-8 22q-6 14 -28 14q-23 0 -72 -214l-30 -124l-26 -120q-14 -58 -26 -102z" />
<glyph unicode="B" horiz-adv-x="1570" d="M92 514v278l4 354v40l4 282v4q0 24 18 24h10l186 12q57 5 84 5h9q27 -1 53 -1h496q528 0 528 -400q0 -222 -220 -340q264 -74 264 -329t-186 -363t-414 -108l-290 4q-250 0 -510 -8q-26 40 -30 168l-4 170q-2 86 -2 208zM666 1148l6 -268q0 -28 39 -28q44 0 137 36 q84 30 84 114t-39 134t-133 50t-94 -38zM684 386l4 -62q0 -12 4 -12h32q230 0 230 168q0 142 -170 150q-44 2 -80 4l-12 -38q-8 -88 -8 -174v-36z" />
<glyph unicode="C" horiz-adv-x="1556" d="M40 796l8 88q4 44 12 86q122 568 759 568t693 -510l8 -96q0 -32 -228 -32l-266 4l-30 -2q-42 0 -50 39t-12 67q-6 28 -20 66t-70 38q-156 0 -156 -300q0 -44 -2 -84l-4 -96q0 -250 132 -256q72 0 110 152q8 32 24 50l184 -2l90 2l174 -2h96q32 -4 32 -38q0 -62 -7 -111 t-41 -127q-72 -176 -260 -270t-384 -94t-316 40q-476 160 -476 820z" />
<glyph unicode="D" horiz-adv-x="1648" d="M104 64v194l2 286v286l-2 182v460q0 40 296 40h112l180 4q482 0 682 -164l36 -32q130 -104 186 -384q16 -80 16 -190t-27 -218t-77 -194q-96 -166 -265 -262t-365 -96q-2 -4 -6 -4h-32l-256 4q-226 0 -454 -8l-14 26q-12 26 -12 70zM658 1076q0 -186 5 -369t9 -367 q4 -20 22 -20h28q138 0 180 42t60 80q56 118 56 316v62q2 364 -262 364h-66l-32 -60v-48z" />
<glyph unicode="E" horiz-adv-x="1306" d="M92 36v38l8 1010v284q0 132 16 132q4 0 10 -2l554 10q276 4 558 4q26 -4 26 -24v-318q0 -70 -16 -80t-44 -10h-28q-232 0 -472 8q-4 -40 -10 -79t-6 -79l276 6q52 2 100 4h100q50 0 50 -44l-2 -32l6 -284q-4 -20 -14 -20l-480 -12h-26v-144l510 16q66 0 76 -28v-76 l4 -284q0 -46 -40 -50l-324 2l-800 -16l-28 32q-4 20 -4 36z" />
<glyph unicode="F" horiz-adv-x="1264" d="M100 140l4 1336q0 34 152 34l92 -2l472 6l332 -4l48 2q64 0 64 -36v-248q0 -178 -18 -178q-2 0 -2 46q-96 -8 -191 -8t-191 -2l-138 -2l-2 -108v-14q2 -6 2 -14q54 4 99 7t89 6t92 3h104q120 0 120 -28v-334q0 -74 -70 -74l-62 4q-184 -12 -370 -16l6 -368v-124 q0 -46 -36 -52l-568 -4q-28 36 -28 172z" />
<glyph unicode="G" horiz-adv-x="1680" d="M84 1036q78 240 256 350t335 132t215 22q582 0 666 -356q8 -44 12 -84l8 -80q-6 -30 -64 -30l-496 8q-18 6 -26 32l-10 42q-16 56 -98 56q-198 0 -198 -300q-4 -36 -4 -64v-112q0 -288 214 -288q112 0 182 22l4 122l-48 4l-12 -6h-60l-62 -2q-36 44 -36 88v228 q0 28 36 56h72l262 -4h236q120 0 144 -36l-12 -746l2 -20q-2 -6 -3 -12t-8 -15t-42 -22t-81 -25q-64 -14 -189 -31t-177 -17h-64l-166 -8q-608 0 -776 474q-59 171 -59 335q0 146 47 287z" />
<glyph unicode="H" horiz-adv-x="1654" d="M90 138l6 214l10 924l2 132q2 88 20 96h316q196 0 240 -23t44 -93l-4 -122v-46l-6 -192v-20q2 -8 2 -16h40l104 -2q44 0 68 6v416q0 96 18 100t34 4l84 -2l208 6q272 0 272 -60l2 -92l-2 -204l6 -620l-2 -40v-96q0 -24 2 -48v-22q-2 -6 -2 -12l4 -322q-6 -36 -156 -36 h-266l-90 2h-30q-32 0 -66 2l-30 38v66l2 396q0 40 -28 40h-36q-60 0 -124 -8l-4 -500q-10 -30 -250 -30h-118q-244 0 -252 18q-18 44 -18 146z" />
<glyph unicode="I" horiz-adv-x="842" d="M82 -8q22 1108 22 1384v30q-4 32 -4 62t18 44q162 -12 318 -12h196q40 0 78 4q18 -4 18 -48v-4l-6 -280v-56l6 -704v-88l8 -30l8 -288q-6 -28 -36 -32h-36l-548 -10q-20 8 -42 28z" />
<glyph unicode="J" horiz-adv-x="1382" d="M-24 470q0 58 32 58l128 -4h80l36 -2l46 2l166 -4q50 0 57 -28t11 -60q8 -56 56 -56q72 0 72 152v8h-4q-8 576 -8 630l4 262v48q0 28 40 34l192 -2l284 2h94q30 0 30 -78v-48l-4 -50q-6 -208 -6 -548v-212q-2 -50 -2 -129t-32 -157q-64 -160 -229 -252t-403 -92 q-348 0 -493 150t-145 338z" />
<glyph unicode="K" horiz-adv-x="1646" d="M100 6v858l4 480l-4 84q0 72 24 86q20 2 38 2h116q40 0 80 -2l130 -2l84 4q144 0 144 -36v-2q-4 -280 -4 -554l168 350q12 26 26 58l26 64q34 80 64 112h204q424 0 424 -12t-4 -12l-394 -696l16 -28l22 -28q12 -12 20 -28l326 -560q6 -12 18 -32l24 -36q28 -46 28 -63 t-18 -33h-642l-286 558l-14 -298v-236q-6 -36 -166 -36h-370q-68 0 -84 38z" />
<glyph unicode="L" horiz-adv-x="1264" d="M102 1336q0 162 34 182q14 -2 28 -2h32l210 4q310 0 328 -54l-8 -342l-2 -284l-2 -48l-4 -358l26 -14q96 8 168 8l226 2q128 0 128 -38l-6 -16v-94q0 -18 6 -38v-116q-2 -60 -2 -120q-12 -36 -444 -36l-536 -6l-156 2q-24 36 -24 86v314l4 740z" />
<glyph unicode="M" horiz-adv-x="2192" d="M122 -8v204q2 272 2 542t2 544l-2 198q0 20 24 32l98 2h118l580 -16q36 -200 76 -398l76 -398l122 618q0 4 3 20t6 36t9 44q18 88 32 88l8 -2l632 6h148q28 -4 28 -56q22 -930 22 -1162t-2 -290q-6 -32 -60 -32l-44 -4h-132q-68 0 -138 -2h-142q-48 38 -48 190v302l2 174 v70q-2 38 -2 74q-52 -192 -92 -388q-82 -398 -108 -408t-70 -10h-42q-64 2 -140 2h-136q-100 0 -112 34l-68 302l-124 536q-12 -360 -12 -488v-176q0 -200 -24 -200h-90l-346 -2q-54 0 -54 14z" />
<glyph unicode="N" horiz-adv-x="1726" d="M80 32v72l4 344q0 588 12 946l2 82q0 22 26 26q168 2 334 6t254 4t94 -10t10 -22t28 -91t124 -323l140 -366v388q4 192 4 392q0 28 160 28l196 -4h124q16 0 16 -6q8 -416 8 -646l-2 -358v-194q2 -72 2 -146v-146q-6 -26 -66 -26h-26l-306 -4h-148q-154 4 -164 25t-40 101 l-244 656l-2 -352l4 -264v-126q0 -48 -52 -48h-4q-56 2 -126 2h-118l-120 -4l-80 -2l-28 30q-16 16 -16 36zM1608 1498v2h2v-4z" />
<glyph unicode="O" horiz-adv-x="1644" d="M24 752l12 110q30 424 390 600q180 88 330 88q480 0 633 -197t174 -299t27 -153t6 -127q0 -354 -148 -542l-44 -60q-172 -228 -600 -228q-780 0 -780 808zM620 672q0 -328 174 -340q218 0 218 408t-196 408t-196 -476z" />
<glyph unicode="P" horiz-adv-x="1526" d="M104 136v432l4 392v508q0 24 44 24h60l120 4q32 4 62 4h140l-2 4q0 8 32 8h44q230 0 368 -12l48 4q206 0 312 -96q184 -172 184 -408q0 -484 -588 -524l-116 -4l-76 -4q-8 -176 -8 -274v-182q-4 -36 -34 -36l-568 -10q-26 72 -26 170zM668 836l32 -44q272 0 272 208 q0 134 -120 160q-50 12 -150 12q-26 -12 -29 -130t-4 -151t-1 -55z" />
<glyph unicode="Q" horiz-adv-x="1642" d="M40 748q0 538 424 724q178 78 374 78q362 0 564 -214t202 -497t-118 -443l78 2q86 0 86 -62l-2 -44v-48l2 -96q-2 -40 -2 -68v-84q-4 -30 -40 -40q-84 14 -276 14l-540 -38q-406 0 -596 312h-12q-144 144 -144 504zM620 744q0 -424 186 -424h6l-4 24q0 4 8 4l34 -4 q140 0 156 258q2 34 4 64l2 144q0 358 -188 358q-204 0 -204 -424z" />
<glyph unicode="R" horiz-adv-x="1560" d="M92 -16l4 676l2 158l2 126l-4 108v112l4 312q0 28 70 28h130q56 0 120 -2l448 6l180 -4q464 -12 464 -396q0 -240 -244 -354q216 -68 244 -458q4 -56 10 -104l18 -88q8 -44 12 -64t4 -32q0 -36 -152 -36t-326 8l-100 4q-54 18 -68 208q-20 240 -45 270t-67 30h-80v-186 l2 -120v-182q-4 -32 -268 -32h-144q-192 0 -216 12zM712 1018q0 -128 42 -170q228 0 228 192q0 132 -222 132h-24q-24 -12 -24 -66v-88z" />
<glyph unicode="S" horiz-adv-x="1484" d="M44 365q0 77 10 77h46l484 8q32 0 50 -41t38 -67t64 -26q144 4 144 96q0 64 -82 92q-34 16 -74 24t-74 18t-70 16t-114 26q-202 56 -308 156t-106 235t31 216t85 141q100 116 266 168t284 52t249 -11t261 -93l96 -84q88 -98 100 -264l-36 -36q-232 -8 -364 -8t-148 8 q-26 10 -39 49t-109 39t-96 -58t80 -77t102 -26t54 -15l144 -34q452 -114 452 -460q0 -510 -736 -546q-38 2 -83 3t-105 9q-332 38 -420 220q-76 116 -76 193z" />
<glyph unicode="T" horiz-adv-x="1318" d="M-16 1198l4 102l-4 90q0 106 12 106t22 -2l1234 10q78 0 78 -44v-28l2 -308q0 -52 -28 -52l-332 4q-2 -116 -2 -232v-230l2 -92l2 -518q-6 -28 -38 -32l-204 2l-4 -2l-242 2h-60q-30 -2 -58 -2l-20 22q-14 20 -20 26l20 904l-8 108q0 32 -42 32l-48 -4l-238 4 q-28 8 -28 134z" />
<glyph unicode="U" horiz-adv-x="1614" d="M92 498q4 368 4 734v12l-4 72v50q0 120 20 136l30 -2q188 8 296 8h134l96 -8q24 -4 40 -4q10 -344 10 -550l-2 -196q0 -26 -2 -48v-44l-2 -48v-54q0 -176 94 -176t94 118l4 10l4 240v116q0 112 -2 218t-4 218l-4 140q6 70 26 76q576 0 596 -20l24 -12q-8 -240 -8 -390 v-318l-4 -276q0 -560 -710 -560t-730 558z" />
<glyph unicode="V" horiz-adv-x="1554" d="M-32 1476q0 28 30 28l562 4q28 0 48 -28l172 -996l8 -40l8 40q42 252 94 502l100 500q8 24 410 24h104q56 0 56 -4v-2q18 -6 24 -28l-204 -736q-12 -36 -20 -74l-20 -78q-10 -40 -24 -98l-66 -262q-64 -244 -108 -256l-214 6h-72q-36 -4 -172 -4t-280 -6q-44 26 -70 153 t-34 161l-168 596q-88 296 -164 598z" />
<glyph unicode="W" horiz-adv-x="2130" d="M-44 1476q0 28 28 38q16 -2 36 -2h40l80 2q72 2 116 2h70q26 0 52 -2h58q14 -2 30 -2h30q32 -8 72 -318l42 -362q6 -50 10 -82l8 -42l78 514l-2 -2q0 144 28 214t36 74q32 -2 62 -2h62l464 2q18 0 26 -16l118 -782l6 -46q18 216 48 418l60 406q6 24 70 24h48q32 0 74 -2 h88l132 -2l36 -4l82 -12q20 0 24 -44q-36 -168 -77 -342t-79 -350l-8 -36q-8 -40 -20 -80l-104 -476q-40 -184 -46 -184l-116 -2h-102l-204 2l-204 -4q-20 4 -20 10v2q-12 102 -28 200l-32 196l-28 196q-16 98 -28 200q-64 -342 -81 -524t-23 -204q-12 -56 -25 -69t-43 -13 h-42q-72 2 -221 2t-333 -8q-40 20 -50 86t-14 86z" />
<glyph unicode="X" horiz-adv-x="1600" d="M-36 3q0 23 36 81l428 668l-428 724v10q0 12 12 20l380 -6q44 0 88 -2h70q23 1 44 1h21q31 -1 99 -155l66 -156l20 -52l16 -30l144 310q42 84 49 84t295 6l288 6q28 -6 28 -28v-28l-450 -716l130 -200l32 -54q16 -28 36 -54l264 -408q6 -16 6 -34t-68 -22l-426 -2 q-20 -2 -40 -2h-52q-54 0 -80 20l-172 364l-14 28q-12 -24 -30 -62l-122 -250q-42 -82 -72 -94q-168 4 -328 4l-246 -2q-24 8 -24 31z" />
<glyph unicode="Y" horiz-adv-x="1524" d="M-40 1478q0 28 48 28h252l312 -2q38 -6 112 -250l98 -330q52 138 96 280l92 284q6 22 158 22h20q40 -2 132 -2t180 -1t95 -10t13 -35q-32 -64 -138 -262l-356 -700q-2 -40 -2 -78v-422q-8 -32 -40 -32l-564 -4q-36 36 -36 66l2 50l2 144v72q0 230 -100 430l-226 454 q-36 74 -70 130l-36 62q-44 78 -44 106z" />
<glyph unicode="Z" horiz-adv-x="1394" d="M14 16v32l2 152l4 144q0 24 2 24t294 362l292 356l-536 -6q-24 8 -24 38v130l-8 168q0 80 14 80t99 -1t167 -1q122 0 732 10l212 2q76 0 80 -25t4 -53l-4 -60l2 -6q0 -242 -36 -302t-81 -114t-94 -105t-85 -93l-290 -348h10l230 4l116 4h220q32 0 32 -80v-204l4 -80 q0 -60 -28 -64t-48 -4h-24l-1168 -12q-52 0 -90 52z" />
<glyph unicode="[" horiz-adv-x="1034" d="M158 -186l2 124v26q0 1056 22 1520q0 32 37 29t49 -3l108 -2q72 0 128 2l108 2l110 4h132q126 0 126 -138v-66q0 -164 -12 -164h-16l-86 -2q-74 0 -214 10l-4 -298v-548q0 -126 4 -246l260 4h38q34 -6 34 -92v-142q0 -18 -2 -32l2 -38v-26q0 -52 -40 -56l-740 -8l-44 50 q0 20 -2 44v46z" />
<glyph unicode="\" horiz-adv-x="808" d="M-36 1528q0 10 18 20q102 -6 206 -6l80 2q14 0 18 -40l566 -1526v-12q0 -32 -36 -36h-40l-82 -2l-110 2q-58 0 -88 -6l-528 1588q-4 6 -4 16z" />
<glyph unicode="]" horiz-adv-x="1036" d="M50 1164v48l2 200l-2 42q0 54 26 74h26l242 -4l272 4l240 -12q8 0 16 4q0 -24 2 -44v-48l-2 -184v-30l-20 -1400v-76q0 -32 -24 -52q-88 -4 -180 -4h-24q-136 2 -266 2q-284 4 -292 31t-8 161t3 149t8 25t98 10t221 4v90q0 230 -12 974h-124l-168 -4q-16 16 -34 40z" />
<glyph unicode="^" horiz-adv-x="1274" d="M140 752v10l356 742q6 12 110 12h113q39 0 45 2t10 -6t8 -24l364 -712q0 -48 -96 -48h-150q-52 0 -60 10t-16 16l-188 390l-184 -384q-12 -16 -24 -20h-2l-2 2l-260 -2q-24 4 -24 12z" />
<glyph unicode="_" horiz-adv-x="1050" d="M-24 -167q0 45 34 45h212l226 2h336q166 0 238 -8q42 0 42 -54v-46q0 -40 -28 -40h-356q-190 0 -666 -22l-32 42q-6 36 -6 81z" />
<glyph unicode="`" horiz-adv-x="632" d="M-128 1755q0 21 24 33q216 -16 308 -16h128q44 -2 84 -64l108 -174q16 -26 26 -42l14 -22q8 -12 14 -23t12 -21t6 -30t-32 -20h-80l-268 -8h-12q-8 0 -12 4l-144 170l-102 110q-74 82 -74 103z" />
<glyph unicode="a" horiz-adv-x="1482" d="M-48 72l428 1288q8 16 20 28q26 0 54 -2h200q6 -2 78 -2h208l128 -8q16 0 24 -16l4 -26q4 -18 18 -46l124 -372l18 -60l8 -12q4 -24 12 -48l16 -50l38 -98l28 -94l10 -42q8 -16 8 -24l16 -56q32 -96 86 -254l-2 2l8 -20q4 -20 13 -40t9 -48t-142 -28h-272q-158 2 -162 28 l-38 152q-6 24 -14 24h-326q-12 -40 -22 -88t-22 -92q-18 -28 -70 -28h-116q-30 -2 -62 -2h-228l-52 -2q-4 4 -6 8t-6 8v-4q-8 8 -16 24zM600 600v4v-4zM600 604l4 -22l44 2l138 -4h38q24 0 24 18t-6 38l-12 40l-6 24q-4 12 -4 24l-28 120l-8 48l-16 74q-4 8 -6 19t-6 25 l-10 48q-4 12 -6 19t-12 11v-2q-24 -6 -48 -134l-8 -48q-2 -8 -5 -12t-3 -8z" />
<glyph unicode="b" horiz-adv-x="1408" d="M82 1334q0 34 18 34l4 2h6l314 18h424q228 0 358 -96h-2q120 -80 120 -220q0 -262 -178 -320l-4 -4h2q4 -4 58 -26t106 -97t50 -187q0 -254 -242 -344l-84 -30q-82 -22 -136 -22h-60q-108 2 -196 2l-64 4q-4 -4 -8 -4h-170q-22 0 -42 -2l-244 -6l-8 24l-12 26l-4 108 l-4 238v204q8 378 8 392v54l-4 50v200h-4v2h-2zM600 566l8 -98v-100q0 -10 14 -14h78q144 10 144 124q0 144 -152 144q-24 0 -52 -4q-18 -2 -28 -12l-12 -18v-22zM608 1044q4 -36 4 -88v-20l-2 -20l2 -40v-32q0 -10 8 -14q206 0 206 138q0 118 -184 118h-12q-6 -2 -10 -2v2 q-12 -4 -12 -18v-24z" />
<glyph unicode="c" horiz-adv-x="1390" d="M36 746v14q4 40 8 118q10 192 176 354q181 181 425 181h3q246 -1 356 -37q292 -98 336 -406l8 -86q-6 -34 -88 -34l-80 2q-338 0 -345 14t-11 30l-8 42q-16 90 -72 90q-128 0 -128 -312v-112q0 -192 108 -192q50 0 67 48t25 77t24 45l240 -2l166 2h74q32 0 36 -40l-4 -38 q-4 -20 -6 -58t-26 -98q-104 -264 -424 -320l-20 -6q-64 -14 -148 -14q-692 0 -692 738z" />
<glyph unicode="d" horiz-adv-x="1456" d="M84 1355q0 15 28 15v2l12 -2l262 18h230q490 0 643 -201t153 -393t-28 -286q-78 -266 -312 -390q-132 -70 -284 -78l-8 4l-36 -2l-44 -2h-52q-24 0 -95 2t-185 2l-160 -4l-88 -2q-20 42 -20 58v156q2 62 2 122l-2 122q0 62 2 128l2 164l-4 160l-4 76v80q-8 96 -8 196v36 q-4 4 -4 19zM604 1044l4 -52v-56l-2 -68v-16l2 -200v-180q0 -108 16 -116h30q226 0 226 368v72q-4 20 -4 65t-24 107h2q-60 118 -218 118h-12l-6 -22z" />
<glyph unicode="e" horiz-adv-x="1166" d="M82 1032l2 54l-2 132v74q0 84 36 84h24q14 0 22 -2h52l612 8h52l88 2h126q26 -4 26 -26v-334q-2 -16 -28 -34l-52 2l-184 2q-44 2 -86 2t-86 2l-52 2q-4 -8 -4 -14v-100q0 -6 -2 -8v-8l20 -2h26l360 8q48 0 48 -42l-4 -34v-38l2 -38v-28l2 -44l2 -38v-26q-6 -20 -14 -20 h-12l-2 2l-262 -10h-132q-12 0 -28 2v-130l308 4l128 4q58 0 72 -28v-70l2 -38v-160q2 -4 2 -12v-40q0 -46 -40 -50h-14q-18 2 -34 2h-56l-44 2h-60l-26 2l-558 -4l-198 -4l-30 34l4 520q2 28 2 46v44q-2 8 -2 29t4 59v132l-4 102q-8 12 -6 26z" />
<glyph unicode="f" horiz-adv-x="1126" d="M84 1052l4 60v240q0 32 64 32h156l156 4h306l194 -4l128 -2q26 0 26 -38l2 -140l-2 -42v-38l2 -74q0 -42 -12 -44t-34 -2h-74l-44 -4h-60l-118 -4l-58 -4h-70v-24q0 -24 4 -64q126 12 202 12h126q42 0 72 1t38 -31v-58l-4 -118v-90q2 -12 2 -28v-40q-2 -32 -38 -32h-88 l-196 -4l-80 -4h-32l6 -344l2 -82q0 -36 -44 -46h-84l-36 -2l-18 2h-368l-26 44v244l4 220l2 210q2 102 2 178l-4 78z" />
<glyph unicode="g" horiz-adv-x="1502" d="M40 742q0 222 126 398l16 20q6 6 12 15t10 13v-2q178 230 577 230t551 -212q46 -60 66 -224l2 -8q0 -34 -64 -34h-82l-252 6h-110q-12 2 -22 26t-18 36v-2q-20 40 -71 40t-76 -14t-39 -32q-52 -66 -52 -222l2 -72v-76q0 -232 176 -232q96 0 154 18v44l-2 42l2 24h-38 l-36 -2h-84l-34 38q-2 14 -2 30v62l2 78v28l2 22l-2 8q0 30 20 40q22 12 26 12h84q14 0 30 -4l90 -2q36 -2 76 -2h168q152 0 180 -28l-8 -584v-26l2 -62q-14 -64 -275 -92t-299 -28h-76q-314 0 -504 150l-42 36q-20 16 -34 36l-30 38q-122 248 -122 470z" />
<glyph unicode="h" horiz-adv-x="1484" d="M80 92v20q0 8 2 20v116l2 128v444l2 20l10 472v40q0 14 16 26h96l20 2h92l76 2h32l20 2l84 -2q102 0 116 -20v-16l2 -162v-18l-2 -86v-132l140 -4l20 -2q20 0 17 23t-3 31v98l2 42v196q0 40 16 56h352l142 -4q46 0 46 -50v-214l-4 -76l2 -36v-48l6 -102v-154l2 -48v-14 l-6 -56v-166q0 -12 4 -24v-4h4v-60l4 -124v-104q-4 -64 -60 -66t-154 -2h-190q-92 0 -148 4l-16 18q-10 10 -16 22v320l2 84q2 28 -10 28h-92q-28 0 -52 -4v-32l-2 -152v-50q-2 -20 -2 -40v-158q-6 -28 -50 -28h-46l-300 -4h-132q-44 0 -44 48z" />
<glyph unicode="i" horiz-adv-x="744" d="M72 56v152l4 76v142q0 172 6 274l2 148l4 196v308q4 20 18 36q56 -4 116 -4l38 -4q40 -4 132 -4h234q18 -4 18 -32v-672l2 -122v-56q2 -20 2 -38v-232l4 -50v-52q0 -26 2 -48q-6 -30 -34 -30h-28q-150 -6 -200 -6h-280q-34 18 -40 18z" />
<glyph unicode="j" horiz-adv-x="1228" d="M-24 444v36q0 44 16 44h84l330 4q62 0 62 -58t43 -58t53 70v26q0 16 2 24h2v66l2 546v64l-2 60v60q0 48 32 60h44l44 -2h42l102 -2h176q16 0 38 2q15 1 28 1q60 0 66 -31q-4 -32 -4 -52v-76q-4 -96 -6 -220l-2 -252v-276q0 -140 -96 -284q-162 -176 -452 -176h-32l-48 -2 q-270 0 -414 150v-2q-110 118 -110 278zM568 530h10q0 6 -6 6z" />
<glyph unicode="k" horiz-adv-x="1470" d="M84 78v22l2 96v72l2 76v532l2 268l-6 170q0 54 24 78h172l158 -4h128q74 0 80 -38v-58q-2 -46 -2 -94v-228l-2 -46v-18l226 464l12 14h88l120 -4h76l46 2h58l14 2h34q128 0 128 -17t-18 -45l-266 -450q-34 -60 -66 -108l8 -20q6 -6 22 -32l108 -184l2 -6l56 -94 q28 -48 60 -92l36 -58q2 -2 4 -6t4 -6l72 -122q8 -12 16 -30l14 -26q0 -26 -24 -44q-106 6 -280 6l-154 -2h-136l-14 28q-8 16 -42 70t-90 160l-112 214l2 -238v-104q2 -28 2 -54v-48q-14 -40 -114 -40l-68 2h-12q-46 -2 -82 -2h-124q-20 0 -44 2l-32 -2h-60z" />
<glyph unicode="l" horiz-adv-x="1126" d="M82 68v236l2 84l4 64l-2 48l10 528l-8 188q0 142 34 172q156 -4 310 -4h172l28 -4h6q20 -4 36 -42v-14l-2 -64v-44q-4 -20 -4 -40v-84q0 -10 -2 -27t-2 -29l-2 4q-6 2 -6 4v-20l-4 -176v-86q-4 -64 -4 -128v-124q0 -34 -4 -62h444q32 0 32 -34v-232q0 -52 2 -102 q-6 -36 -98 -36h-68l-262 -4h-282l-64 -2h-6l-38 -2h-198z" />
<glyph unicode="m" horiz-adv-x="1972" d="M104 1172v178q0 20 24 38h106q42 0 58 2l516 -22h12l24 8h6q14 0 14 -6l44 -226l24 -146l12 -60q4 -32 10 -64l14 -78l8 -58q4 -16 8 -28q4 12 6 29t6 33l52 260q16 90 40 184l28 144q4 20 22 20l302 4l162 4h178q8 0 16 -2h44h1q27 0 27 -78v-600l-2 -108q0 -62 6 -104 l6 -60v-60l-2 -292q-6 -44 -58 -44h-38l-372 -4q-50 32 -50 230l2 110q2 70 2 140v140q0 52 2 104l-18 -76q-20 -88 -45 -180t-45 -180l-60 -256q-16 -28 -100 -28l-206 4h-18l-46 -2q-56 0 -66 40l-80 356l-20 102l-30 132q-16 68 -28 132l-8 40q-14 -272 -14 -464v-308 q-2 -20 -24 -20h-138l-148 -4l-42 2h-64q-56 0 -56 22l6 28q-8 216 -8 474l2 422zM842 1376h2h-2zM1364 766v2v-2z" />
<glyph unicode="n" horiz-adv-x="1548" d="M68 84l16 1044v124q0 12 2 20l-2 72q6 36 24 36l8 -4l424 8h168q24 -8 24 -24l232 -656l4 148q16 264 16 500q0 26 90 26l42 -2h300l16 -6q2 -82 4 -152q1 -47 1 -79v-29q-1 -38 -1 -86v-206l4 -372v-276q0 -10 4 -18v-70q-6 -30 -38 -30h-58q-64 -4 -192 -4h-332 q-12 4 -46 84l-132 368q-36 98 -66 196l-4 6v-6q-4 -100 -4 -198t-4 -194l-4 -204v-24q0 -32 -40 -40l-94 4h-194q-28 0 -52 -2l-72 -2z" />
<glyph unicode="o" d="M18 724l2 22q34 332 174 478l24 24q40 48 146 96l38 16q136 56 215 56t102 1t45 1q98 0 243 -44t231 -154l20 -28q144 -180 144 -447t-49 -352t-83 -129l-40 -50q-160 -200 -532 -200t-566 270q-94 156 -112 380zM570 716q0 -352 134 -352q160 0 160 352v36 q0 304 -147 304t-147 -296v-44z" />
<glyph unicode="p" horiz-adv-x="1366" d="M92 102v310q0 24 4 44v250l2 634q0 32 37 30t57 2h104q32 4 64 4l16 -2h16l136 14l312 -12h88q322 0 412 -336q12 -52 12 -140q0 -184 -200 -346q-124 -66 -296 -74l-32 -4q-24 -4 -64 -4h-96q-4 0 -10 -2q0 -262 8 -396q-6 -34 -78 -34h-472q-6 16 -10 32zM606 842 l24 -72q-2 0 -2 4q4 -2 12 -2q212 0 212 164q0 140 -218 140h-8l-10 -16v-70l-4 -34q-6 -58 -6 -82v-32z" />
<glyph unicode="q" d="M36 660q0 402 234 616l58 46q32 26 68 38l74 24q108 36 242 36h40q328 0 494 -191t166 -473v-24h-2q-8 -196 -100 -312h110l36 -34l2 -74v-12q2 -4 2 -10l2 -222q-8 -30 -36 -36l-224 12l-514 -36q-160 0 -284 56l-20 8l-84 52l-22 20l-18 12l-18 18l-16 18l-30 52 q-12 22 -28 38l-4 2l-14 24q-114 192 -114 352zM564 652q0 -292 150 -292h2q160 0 160 292v160q0 262 -156 262q-8 2 -16 2q-140 0 -140 -342v-82z" />
<glyph unicode="r" horiz-adv-x="1402" d="M80 1076l4 138q0 142 12 154v-2q4 10 20 10h162q520 8 566 8q312 0 374 -66q134 -144 134 -315t-208 -275q144 -60 172 -232q8 -48 27 -189t36 -176t17 -57t-22 -22l-362 -2q-36 2 -70 2h-70q-48 14 -76 272l-12 94q-20 78 -86 78h-46v-152l4 -108v-140q0 -56 -26 -56 h-42q-30 2 -56 2h-14q-12 -2 -31 -2t-51 2l-92 2l-102 -4h-122l-20 8l-12 8v144l4 276v120l2 46l-2 54v40l4 98v28l-4 66v32h-8q-4 48 -4 116zM652 1022l6 -174l22 -24h16q176 0 176 148q0 104 -200 104h-8q-12 -4 -12 -16v-38z" />
<glyph unicode="s" horiz-adv-x="1314" d="M34 436q0 40 16 40l46 -2h92q20 2 40 2h209q95 0 103 -9t15 -22t13 -29q18 -58 96 -58h6q92 0 96 80q-2 54 -114 82l-204 52q-322 94 -386 262q-26 70 -26 118q0 216 150 337t286 130t212 9q336 0 460 -152l38 -44q52 -52 61 -116t13 -92l-16 -16l-12 -16l-8 -8h-162 l-194 4h-28q-36 0 -46 26q-14 38 -41 46t-104 8t-77 -32t18 -44t43 -19t52 -12t43 -13l20 -8l126 -30q224 -62 320 -165t96 -261t-61 -235t-111 -113q-166 -120 -506 -120q-270 0 -394 96l-18 12q-163 121 -163 292q0 10 1 20z" />
<glyph unicode="t" horiz-adv-x="1168" d="M-12 1012v340q0 24 12 24t20 -4l306 4h322q160 0 285 2t219 2q24 -6 24 -48v-320q-4 -24 -86 -24h-222l-2 -72v-80l-2 -96v-220l4 -276l2 -176q-8 -30 -38 -32h-64q-128 0 -128 8l-48 -2h-80l-132 -2l-56 -4l-32 32q-8 8 -10 32v16q0 8 2 16l4 152q4 136 8 270t4 278 l2 26h-2l2 50l-2 52v20h-76l-158 2q-10 -2 -18 -2h-16q-44 0 -44 32z" />
<glyph unicode="u" horiz-adv-x="1450" d="M80 502l6 458v28l2 32l-4 90v34l14 -2q-18 90 -18 152t20 82h28l58 4h30q16 0 32 2h28l30 2h230q108 0 108 -20l4 -172v-168l-4 -412v-68q0 -130 75 -130t75 96l6 414v220l-2 182q0 54 26 66q514 0 521 -8t11 -10l24 -14l-4 -124q-6 -128 -7 -246t-5 -242v-62l-2 -60 q0 -34 10 -94v-32q0 -120 -36 -200v-4q-60 -142 -236 -216q-116 -56 -216 -56h-116q-16 0 -32 6l-24 -2q0 -8 -12 -8h-18l-6 -2q-52 0 -122 10l-46 4q-280 24 -390 280q-34 80 -38 190z" />
<glyph unicode="v" horiz-adv-x="1392" d="M-24 1344v4q0 22 26 28v4l358 4h164q12 0 18 -6l18 -18q6 -38 11 -69t9 -63l12 -64q4 -40 11 -80t13 -84l8 -52q8 -72 20 -140l32 -186q6 -38 11 -77t15 -71l2 4l2 6l10 46q4 22 8 42l8 40l8 48q20 74 24 116l8 44l8 60l48 252q8 32 12 64l12 70q16 102 34 106t34 4 l136 4h130l190 4l16 -14q14 -8 20 -22l-160 -574q-8 -12 -8 -28l-4 -34q-6 -40 -22 -68h2l-24 -72q0 -4 -2 -4l-8 -16q-40 -164 -92 -324l-22 -84q-24 -100 -60 -100l-188 4h-74q-34 0 -58 -2l-164 -6q-38 -2 -82 -2l-82 -2l-36 20q-28 116 -64 230t-64 230l-12 42 q-14 54 -29 108t-29 110l-14 52q-12 34 -19 69t-17 71l-18 62q-4 16 -9 31t-9 29l-18 66q-14 46 -26 94z" />
<glyph unicode="w" horiz-adv-x="1906" d="M-32 1350q0 24 32 38q20 -4 48 -4h56q24 0 24 4h34l34 2h28l64 2h66l4 -4h60q64 0 68 -48l30 -248q16 -134 20 -184l6 -36q6 -18 6 -52l4 -32q4 -16 4 -32q0 -34 8 -50q8 32 10 67t10 71l12 80q8 42 14 83t14 85l40 268q8 16 24 18l100 -2h426q18 0 26 -16l14 -102 q2 -16 4 -33t4 -33l32 -236q6 -20 6 -56l32 -222l4 -10v8q0 4 4 6l16 172l28 238l8 44q2 14 3 29t3 29l26 166q8 24 60 24h72l184 -4l48 2q38 0 44 -6q88 0 96 -48v-4l-108 -472q-10 -50 -16 -86t-11 -51t-11 -35l-8 -32q-6 -24 -10 -30l-124 -546q-4 -16 -14 -18l-14 2 q-44 -4 -156 -4h-260q-148 0 -148 7t2 9l-24 134l-16 82q-6 40 -14 82l-12 62l-20 130q-6 32 -10 66l-10 72q-20 -120 -36 -240l-38 -292q-4 -22 -6 -44q-12 -84 -52 -84q-168 6 -220 6l-320 -6l-32 20q-16 56 -26 112t-26 112l-44 214l-16 66q-22 84 -68 328l-4 24 q-20 88 -40 182l-36 186z" />
<glyph unicode="x" horiz-adv-x="1416" d="M-32 68q0 42 64 136l32 48v-2l40 64q22 34 46 66l106 164q20 34 44 69t48 71l16 26q0 6 8 14l-172 272q-4 10 -12 20l-12 18l-16 30l-32 50q-8 14 -16 30l-18 36q-8 12 -14 24l-36 68l-14 20q-6 12 -14 26v-2l-16 26q-2 6 -2 16t20 22h54q88 0 180 2h71q45 0 105 -6h40 l56 -2l28 2q26 -6 68 -109t58 -139l34 -70q4 -8 4 -9t4 -9l90 196l34 68q38 72 48 72l12 -4l256 4q44 0 108 4l64 4q9 1 16 1h7q9 -1 21 -1h26q26 -2 26 -58l-44 -66q-14 -20 -25 -39t-23 -39l-288 -446l-14 -18l114 -178q12 -12 20 -28l40 -60q28 -44 60 -88t56 -86 l120 -176q4 -8 4 -18q0 -40 -52 -40h-72q-24 0 -32 -2l-120 -2l-82 -4q-202 0 -238 18l-156 322l-8 12l-96 -200q-64 -128 -100 -146l-208 2h-36l-160 4q-120 0 -120 20z" />
<glyph unicode="y" horiz-adv-x="1366" d="M-32 1358q0 22 48 22h184q28 0 66 2h126l108 -2h18q16 -8 30 -8l26 -92q10 -42 26 -84l24 -68q8 -30 18 -57t18 -55l42 -130l142 404q4 16 12 33t13 38t107 21l40 -2h8l160 2l122 2h52q30 -2 42 -48l-16 -28v-2l-12 -26q0 -2 -2 -4l-52 -94q-26 -44 -50 -90l-18 -32h2 l-68 -132q-10 -20 -107 -203t-113 -221v-58q0 -42 1 -87l2 -90q1 -45 1 -87v-108q-8 -30 -38 -34l-128 -2h-382l-32 42q0 6 -2 12v14l2 40v292q0 30 -2 60l-122 262q-10 24 -17 36t-11 8l-24 42q-28 46 -70 138l-54 104h2q-10 16 -18 36t-12 24h2q-94 188 -94 210z" />
<glyph unicode="z" horiz-adv-x="1242" d="M8 84v62l2 62v52l2 86q0 46 8 54h-4l412 496l42 46l40 50l4 6h-6q-140 0 -292 -4h-26l-66 -2h-64q-24 12 -24 34v308q0 40 12 40t133 -1t355 -1l460 6h64l30 2h54q50 0 50 -66l-4 -50q0 -4 4 -12l-6 -212q-8 -20 -8 -24l-6 -16l-402 -460l-44 -56l-48 -52h280l220 4 q32 0 32 -84v-204l4 -56q0 -48 -60 -48h-60l-424 -4h-324l-212 -4h-54q-26 0 -44 2l-16 20q-10 10 -14 26z" />
<glyph unicode="{" horiz-adv-x="1032" d="M44 601q0 173 24 185q156 0 168 88v256l-2 32q0 350 438 350l124 2h40q24 0 52 -2l36 -34l-2 -328q-6 -32 -38 -32l-64 2q-92 0 -92 -96l-4 -68v-168q0 -128 -160 -196l34 -12q106 -48 115 -132t9 -144v-36l-2 -72q0 -110 44 -122t88 -12h12q48 0 48 -38v-128 q0 -194 -28 -208q-38 2 -75 3t-77 3l-28 2q-242 0 -308 40q-150 86 -153 209t-3 189v110q0 124 -32 138t-57 18t-42 5t-31 4t-24 11t-10 181z" />
<glyph unicode="|" horiz-adv-x="492" d="M70 -40l18 1520v32q0 20 16 36q36 0 68 2h138q36 -2 70 -2q18 -4 18 -32l-2 -54l4 -328q4 -422 12 -846l4 -328q-10 -40 -92 -40h-136q-52 0 -86 6z" />
<glyph unicode="}" horiz-adv-x="1034" d="M86 -276q6 234 6 287t30 57h56q106 0 106 104l-2 140q6 194 86 244q32 24 84 40q-166 50 -164 250q2 54 3 100t1 74q0 104 -124 104q-68 0 -68 24l2 180l-2 104q0 50 20 64q30 -2 58 -2h50l24 -2l12 2h72q218 0 280 -38q160 -100 160 -352v-44l-6 -180q0 -96 154 -96h16 q26 -6 26 -34l-2 -154l2 -166q-4 -24 -63 -29t-93 -15t-34 -64v-26q0 -14 2 -28l2 -64q4 -56 4 -150q0 -202 -104 -298q-132 -76 -150 -76h-253q-117 0 -157 -4z" />
<glyph unicode="~" horiz-adv-x="1302" d="M144 560q78 118 133 160t157 42t190 -51t120 -65t64 -24t60 -10q68 0 128 82l32 42q-4 16 -8 34l22 -22q6 4 10 4t14 -16t20 -40q58 -132 58 -190v-16q-4 -4 -4 -10q-130 -176 -272 -176q-66 0 -194 56l-24 10q-132 66 -215 66t-153 -124q-40 4 -70 12q-8 24 -18 52 l-22 62q-28 74 -28 122z" />
<glyph unicode="&#xa1;" horiz-adv-x="784" d="M60 -372q12 100 20 198t21 215t19 229l12 146q22 264 35 278t25 12l262 2q132 0 144 -19t15 -36t5 -43t6 -62l6 -58q40 -398 62 -710l4 -44l4 -88q-8 -36 -54 -36t-60 -2l-488 -10q-6 2 -38 28zM112 876l4 136v56q0 148 28 148l266 2l226 -2q24 0 24 -94v-254 q-10 -32 -122 -32h-178q-44 0 -212 -6q-20 22 -36 46z" />
<glyph unicode="&#xa2;" horiz-adv-x="1496" d="M132 509q0 435 468 573l-2 204q2 30 94 30h70q164 0 170 -20q-2 -36 -1 -62t1 -38v-26q0 -42 -4 -88q370 -18 416 -420q0 -22 -128 -22l-88 2l-208 -2q-58 0 -64 20q0 140 -74 140q-118 0 -118 -252v-44q0 -28 3 -140t97 -112t112 116q0 28 8 44q112 -2 224 -2h222 q26 -2 24 -60t-11 -102t-43 -92q-98 -130 -348 -204q4 -76 4 -124v-60q0 -44 -40 -44h-70l-216 4l-38 42l4 176l-70 18q-394 110 -394 545z" />
<glyph unicode="&#xa3;" horiz-adv-x="1440" d="M6 624l2 150l-2 66q0 62 30 68h162l-2 104q0 534 630 534q382 0 534 -230q58 -70 58 -175t-22 -113q-456 0 -480 12t-28 28l-11 44q-7 28 -37 27t-36 -1q-64 -4 -64 -130l4 -108l216 4h24q50 0 54 -24l2 -244q0 -40 -22 -40h-34l-56 4h-76q-96 0 -100 -6q-4 -10 -6 -84 t-2 -98q160 4 308 4h52l264 8q32 -6 32 -70v-28l4 -292q0 -62 -80 -62h-520q-218 0 -362 -4l-32 -4q-30 -2 -52 -2h-34q-40 2 -84 2h-84q-40 0 -84 2l-28 34q0 36 -4 68v64l-4 148q0 96 34 112l120 8q2 44 2 92t2 94l-78 2l-68 -2q-42 0 -42 38z" />
<glyph unicode="&#xa4;" horiz-adv-x="1478" d="M204 74q32 62 96 132l44 46q-26 36 -52 100l-12 32q-44 102 -44 301t128 333l-100 104q-56 56 -56 70t10 23t22 17t22 14t14 6t12 -2l154 -166q134 92 337 92t323 -120l182 194q4 2 10 2q12 0 40 -22t28 -34t-56 -74l-130 -138q104 -130 104 -353t-82 -347l74 -78 q60 -66 96 -132l-20 -16q-12 -8 -24 -10l-8 -8q-8 -4 -20 -4q-28 0 -82 64l-88 94q-116 -116 -328 -136l-46 -2q-8 2 -72 10q-158 20 -260 102l-64 -68q-60 -68 -76 -68t-30 10t-26 16zM494 630q0 -182 90 -246q68 -56 122 -56h46q252 0 252 254q0 264 -136 312 q-38 14 -112 14h-36q-226 0 -226 -278z" />
<glyph unicode="&#xa5;" horiz-adv-x="1456" d="M-32 1481q0 31 126 31h186l94 2q180 0 194 -30q20 -66 42 -130t42 -130l28 -88q16 -48 30 -97t30 -97l8 -24l156 510q24 72 90 76t174 4h200q124 0 124 -32q-32 -58 -58 -117t-58 -117l-80 -162l-100 -254q12 -2 20 -2h24l56 4q32 -6 32 -130t-32 -130h-256l-20 12 q0 -68 8 -172q78 6 154 6q110 0 131 -14t21 -56l-2 -48v-78q0 -66 -24 -70t-66 -4h-104q-62 0 -118 -2v-142q-10 -36 -186 -36h-234l-154 4l-30 44v32q2 8 2 20l-2 76h-24l-168 -8q-102 0 -108 44l2 116l-2 56q0 64 52 64h96q48 0 98 -2h46l20 4v50q0 104 -36 104 q-60 -4 -120 -4h-122q-30 8 -30 68v140q0 52 40 52h64q24 0 40 -2l-14 74l-130 266q-32 66 -52 110t-36 70l-28 50q-36 58 -36 89z" />
<glyph unicode="&#xa6;" horiz-adv-x="494" d="M80 -320l10 762l-2 26q0 28 16 44h276q20 0 20 -32l-4 -56l4 -398l2 -16l4 -330q-10 -40 -89 -40t-126 2t-67 8t-28 14zM80 778l10 702l-2 28q0 24 16 40q34 0 68 2h140q36 -2 68 -2q20 -4 20 -32l-4 -54l4 -328l6 -354q-10 -40 -90 -40h-138q-60 0 -98 38z" />
<glyph unicode="&#xa7;" horiz-adv-x="1818" d="M188 705q0 207 198 281q-138 68 -138 232q28 322 508 322q134 0 448 -44q10 -4 14 -18l2 -246q0 -40 -24 -40q-188 40 -258 40t-70 -24q0 -30 72 -51t94 -29l46 -18q256 -100 264 -300v-32q0 -204 -198 -302q118 -78 118 -218q0 -324 -454 -324q-290 0 -558 46l-30 40 q-2 56 -2 106v112q0 90 38 90l18 -4q134 -68 320 -68q48 0 48 40q0 30 -48 47t-68 25t-52 20l-60 24q-228 86 -228 293zM628 777q0 -31 16 -51t40 -34q46 -30 100 -45t74 -15q36 0 53 21t17 37t-16 34t-40 35t-54 32t-58 26t-50 19t-30 12h-8q-2 0 -6 -4l-22 -20 q-16 -16 -16 -47z" />
<glyph unicode="&#xa8;" horiz-adv-x="658" d="M-116 1432v62q0 290 36 290q164 -4 328 -4q24 -6 24 -44l-2 -44l2 -122v-154q-8 -28 -96 -28l-70 2l-190 -8q-8 12 -16 26zM428 1428q0 338 36 356q54 -4 106 -4l164 4q76 0 82 -24q4 -170 4 -340q-8 -24 -16 -24t-8 2l-332 -16l-32 40z" />
<glyph unicode="&#xa9;" horiz-adv-x="1646" d="M10 760q0 302 217 540t585 238q466 2 698 -390q118 -198 118 -441t-180 -467q-268 -304 -620 -304q-230 0 -390 94q-428 252 -428 730zM248 704q0 -262 280 -448q230 -148 470 -46q378 160 378 550q0 232 -162 386t-386 158h-16q-306 0 -474 -270q-90 -146 -90 -330z M392 704q0 238 135 364t317 126q296 0 372 -322q0 -32 -70 -32q-180 0 -194 38q-26 80 -118 80q-162 0 -162 -211t150 -211q64 0 81 28t29 51t40 47q32 2 66 2h66q20 0 40 2q74 8 74 -52v-14q-14 -124 -119 -220t-239 -96q-234 -2 -351 136t-117 284z" />
<glyph unicode="&#xaa;" horiz-adv-x="844" d="M50 1056q0 188 326 188q68 0 132 -4v40q0 120 -86 120t-102 -56h-244q22 150 398 150q196 2 256 -53t60 -145l-2 -392q-12 0 -24 -2h-28l-216 4l-4 38l-2 16v4q-108 -76 -240 -76q-224 0 -224 168zM312 1082q0 -78 91 -78t105 80v104q-140 -10 -168 -38t-28 -68z" />
<glyph unicode="&#xab;" horiz-adv-x="1334" d="M-4 496q8 64 76 162l60 88q32 46 54 78l134 208q12 12 22 14l136 -2q278 0 278 -20q0 -36 -32 -92l-28 -52q-14 -24 -22 -44l-144 -316l226 -508q0 -32 -98 -32l-270 -4q-62 0 -68 26zM600 496l4 28l316 504q12 16 70 16h22l208 2l118 -2q22 -4 26 -30l-112 -244 q-56 -130 -116 -246l16 -36v-2l-4 -2q48 -116 106 -238l106 -234q0 -36 -44 -36h-268q-110 0 -132 16z" />
<glyph unicode="&#xac;" horiz-adv-x="1282" d="M96 634l4 166l-2 92q0 20 10 24q12 0 14 -2l1036 12q26 -4 36 -18l6 -652q-8 -36 -34 -36h-70l-216 -4l-36 44v332l-728 4q-20 8 -20 38z" />
<glyph unicode="&#xad;" horiz-adv-x="858" d="M36 380l2 92q2 48 2 92l-4 78q0 102 32 102h410h302q28 -4 28 -134v-214q-6 -36 -28 -36l-708 -20l-20 20q-8 8 -16 20z" />
<glyph unicode="&#xae;" horiz-adv-x="1710" d="M52 710q-2 24 0 46q22 464 374 672q294 172 638 84q314 -82 488 -362q116 -188 116 -388q0 -550 -488 -762q-146 -64 -256 -64q-176 0 -296 36q-542 162 -576 738zM308 696q0 -176 148 -340t328 -164q304 0 461 165t157 385q0 378 -306 510q-118 48 -208 48t-177 -12 t-153 -58t-106 -92t-68 -88t-44 -86q-32 -92 -32 -268zM588 378v512l2 2q-2 64 -2 132v90q198 6 278 6q282 0 282 -202q0 -182 -126 -210q-30 -8 -46 -8l90 -168q16 -24 29 -50t29 -50l12 -20v-34l-136 -6h-10l-126 264l-26 48h-102v-126l-4 -174q0 -8 -48 -8zM736 816 l148 -4q120 0 120 90t-154 90q-42 0 -114 -6v-170z" />
<glyph unicode="&#xaf;" horiz-adv-x="678" d="M-124 1184v160q0 90 24 120l106 -8q316 -18 554 -18h64l152 4q20 -4 20 -48l-2 -46v-36l2 -108q0 -44 -52 -44l-40 2l-128 -2q-100 0 -196 -4l-258 -4l-216 -4z" />
<glyph unicode="&#xb0;" horiz-adv-x="878" d="M108 1244q50 304 328 304q202 0 286 -186q26 -58 26 -126v-12q0 -188 -184 -280q-54 -28 -112 -28q-130 0 -237 84t-107 244z" />
<glyph unicode="&#xb1;" horiz-adv-x="1266" d="M80 4v10l2 150l-2 60q0 74 40 92l28 -2q138 -12 352 -12l324 2q158 0 326 -8q22 0 22 -52v-244q-4 -24 -34 -24h-46l-654 -4l-210 -4h-72q-28 0 -44 -2zM84 778v162q0 36 224 36l150 2v30l2 112v36q0 40 84 40h170q86 0 86 -20v-52l-2 -156h350q28 -4 28 -44l-4 -212v-24 q0 -38 -24 -38h-356v-170q0 -44 -22 -44h-50l-212 -4q-36 0 -36 24l4 4q-8 92 -8 180q-36 4 -70 4h-72l-134 -4h-44q-62 0 -62 32z" />
<glyph unicode="&#xb2;" horiz-adv-x="1160" d="M116 46v90l2 128q0 14 46 48l228 152q26 18 48 36l44 34q20 14 44 38l36 36q72 72 72 135t-55 63t-71 -54l-10 -40q-4 -20 -100 -20h-192q-92 0 -92 20q24 368 472 368q312 0 424 -178q40 -62 40 -146q0 -138 -89 -241t-255 -213l-24 -18l296 4q84 0 84 -126l-4 -132v-14 q0 -30 -28 -32h-52q-192 6 -380 6t-458 -14q-26 42 -26 70z" />
<glyph unicode="&#xb3;" horiz-adv-x="1226" d="M122 294q0 42 18 42l240 4l94 2q12 0 18 -6q4 -8 8 -32q12 -76 84 -76h4q76 0 76 78q0 104 -144 104q-8 -2 -16 -2h-16q-46 0 -46 66v46q0 112 34 112h60q118 0 118 112q0 68 -62 68t-70 -54t-30 -62h-134q-66 0 -132 4h-36q-54 0 -54 26q6 82 18 118l12 30 q82 198 390 206q48 0 93 1t91 -7t92 -26q224 -84 224 -258t-178 -238q200 -58 200 -244q0 -298 -374 -344q-32 -4 -60 -4h-52q-272 0 -396 124q-72 64 -73 116t-1 94z" />
<glyph unicode="&#xb4;" horiz-adv-x="640" d="M28 1402l168 286q32 54 56 76h74l110 -2q70 -6 191 -7t121 -15t-4 -22l-260 -292q-56 -66 -114 -66t-102 -2l-140 -2l-52 -2h-12q-8 2 -12 2z" />
<glyph unicode="&#xb5;" horiz-adv-x="1358" d="M64 1016v2q0 20 24 40q40 2 80 2l192 -2h220q34 -4 40 -42v-4q-4 -92 -4 -180l-4 -274v-54l-2 -116q-2 -84 62 -84t64 88l4 244q0 32 2 68v320q0 24 22 24h4l140 2l36 -2l320 4q28 -4 30 -42l2 -2l-12 -698q0 -14 6 -26l6 -130v-4q-4 -72 -7 -121t-33 -49h-258 q-218 0 -228 20q-14 28 -14 96l-10 -20q-12 -20 -26 -42q-48 -82 -102 -82l-22 4v-214l4 -130q-4 -16 -10 -16l-244 -8h-54q-20 2 -36 2h-80l-30 -2q-70 0 -70 16t-4 444t-4 558v138z" />
<glyph unicode="&#xb6;" horiz-adv-x="1322" d="M24 1136q0 348 460 356h236l186 4q144 4 290 4q48 0 48 -60v-120l-4 -304q-2 -132 -2 -260t-2 -256l-8 -504v-4q-2 -40 -90 -40h-130q-44 2 -61 2t-63 46v64l16 1172l-66 6q-12 2 -26 6q-12 -192 -12 -600v-492q2 -58 1 -89t-1 -63t-10 -32h-14l-220 -4h-24q-52 0 -52 28 v192l4 580q-456 20 -456 368z" />
<glyph unicode="&#xb7;" horiz-adv-x="790" d="M112 504q12 28 18 52q58 234 234 232h64q144 0 216 -172q20 -48 20 -102q0 -116 -82 -201t-160 -85t-140 28q-156 72 -170 248z" />
<glyph unicode="&#xb8;" horiz-adv-x="604" d="M-10 -444q0 26 16 64l14 28q10 18 21 45t31 27l64 -24q52 -20 80 -20h42q66 0 66 40q0 24 -36 24l-76 -10q-24 0 -50 22l-18 12q-30 16 -40 50l-2 22l106 188q6 8 26 16l34 -2l132 -2q32 -4 32 -32l-44 -80q228 0 228 -185t-206 -239q-60 -16 -114 -16q-112 0 -208 26 t-98 46z" />
<glyph unicode="&#xb9;" horiz-adv-x="1030" d="M144 572v168q0 124 8 124l132 62q134 54 176 126q82 -2 146 -2h134q12 0 28 2q16 -2 16 -28v-102l-2 -158v-140q0 -84 2 -200l6 -420q0 -26 -60 -26l-110 2l-160 -2h-40q-64 0 -64 68t1 145t2 151t3 150t2 156q-92 -60 -196 -96q-20 0 -24 20z" />
<glyph unicode="&#xba;" horiz-adv-x="938" d="M-28 1186v14q34 340 446 340q534 0 534 -344q-14 -360 -532 -360q-416 0 -448 350z" />
<glyph unicode="&#xbb;" horiz-adv-x="1332" d="M0 -2q0 46 48 132l20 38l30 76q28 66 57 131t57 133l-208 498l-4 18q0 26 120 26q308 0 316 -22l312 -502q4 -4 4 -11t-8 -13l-302 -502q-32 -16 -142 -16h-40q-96 -8 -178 -8t-82 22zM570 -8q0 14 6 24l204 500l-16 36l4 4v2l-194 450q-2 8 -2 22t78 14h50l212 2h40 q20 -2 34 -2t26 -12t22 -32t16 -28l168 -274q10 -16 28 -42q78 -108 78 -144q0 -24 -40 -88l-68 -96q-54 -80 -102 -164l-102 -168q-16 -16 -83 -16h-143l-76 -2h-82q-58 0 -58 14z" />
<glyph unicode="&#xbc;" horiz-adv-x="2592" d="M92 1196v168q0 124 8 124l132 62q134 54 176 126q82 -2 146 -2h134q12 0 28 2q16 -2 16 -28v-102l-2 -158v-140q0 -84 2 -200l6 -420q0 -26 -60 -26l-110 2l-160 -2h-40q-64 0 -64 68t1 145t2 151t3 150t2 156q-92 -60 -196 -96q-20 0 -24 20zM718 15q0 23 8 43l518 1396 l34 86q8 16 94 16l134 -4h56q38 0 38 -24t-7 -50t-17 -54t-21 -55t-19 -51l-308 -914l-112 -306q-12 -30 -18 -58q-20 -94 -146 -100h-40q-28 -4 -54 -4h-112q-28 56 -28 79zM1464 168v194q8 114 148 330l212 334l8 8q22 2 43 3t41 3l64 2q108 4 210 4h138q12 0 24 -8v-40 l-4 -376v-84l-2 -48q-2 -52 26 -52h64q36 0 36 -40q0 -4 -4 -4l4 -60l2 -106q0 -86 -24 -86h-98l2 -130q0 -38 -30 -38h-212q-90 0 -148 -4l-24 30v150q0 16 -28 16q-58 0 -108 -20l-176 -4h-102q-46 0 -62 26zM1754 434q8 -18 18 -36h12l186 4q16 8 20 24l-2 52v10 q2 10 2 26l2 76q0 196 -12 196h-14q-14 0 -18 -6z" />
<glyph unicode="&#xbd;" horiz-adv-x="2600" d="M92 1196v168q0 124 8 124l132 62q134 54 176 126q82 -2 146 -2h134q12 0 28 2q16 -2 16 -28v-102l-2 -158v-140q0 -84 2 -200l6 -420q0 -26 -60 -26l-110 2l-160 -2h-40q-64 0 -64 68t1 145t2 151t3 150t2 156q-92 -60 -196 -96q-20 0 -24 20zM718 15q0 23 8 43l518 1396 l34 86q8 16 94 16l134 -4h56q38 0 38 -24t-7 -50t-17 -54t-21 -55t-19 -51l-308 -914l-112 -306q-12 -30 -18 -58q-20 -94 -146 -100h-40q-28 -4 -54 -4h-112q-28 56 -28 79zM1440 40v90l2 128q0 14 46 48l228 152q26 18 48 36l44 34q20 14 44 38l36 36q72 72 72 135t-55 63 t-71 -54l-10 -40q-4 -20 -100 -20h-192q-92 0 -92 20q24 368 472 368q312 0 424 -178q40 -62 40 -146q0 -138 -89 -241t-255 -213l-24 -18l296 4q84 0 84 -126l-4 -132v-14q0 -30 -28 -32h-52q-192 6 -380 6t-458 -14q-26 42 -26 70z" />
<glyph unicode="&#xbe;" horiz-adv-x="2588" d="M72 918q0 42 18 42l240 4l94 2q12 0 18 -6q4 -8 8 -32q12 -76 84 -76h4q76 0 76 78q0 104 -144 104q-8 -2 -16 -2h-16q-46 0 -46 66v46q0 112 34 112h60q118 0 118 112q0 68 -62 68t-70 -54t-30 -62h-134q-66 0 -132 4h-36q-54 0 -54 26q6 82 18 118l12 30 q82 198 390 206q48 0 93 1t91 -7t92 -26q224 -84 224 -258t-178 -238q200 -58 200 -244q0 -298 -374 -344q-32 -4 -60 -4h-52q-272 0 -396 124q-72 64 -73 116t-1 94zM858 15q0 23 8 43l518 1396l34 86q8 16 94 16l134 -4h56q38 0 38 -24t-7 -50t-17 -54t-21 -55t-19 -51 l-308 -914l-112 -306q-12 -30 -18 -58q-20 -94 -146 -100h-40q-28 -4 -54 -4h-112q-28 56 -28 79zM1488 168v194q8 114 148 330l212 334l8 8q22 2 43 3t41 3l64 2q108 4 210 4h138q12 0 24 -8v-40l-4 -376v-84l-2 -48q-2 -52 26 -52h64q36 0 36 -40q0 -4 -4 -4l4 -60l2 -106 q0 -86 -24 -86h-98l2 -130q0 -38 -30 -38h-212q-90 0 -148 -4l-24 30v150q0 16 -28 16q-58 0 -108 -20l-176 -4h-102q-46 0 -62 26zM1778 434q8 -18 18 -36h12l186 4q16 8 20 24l-2 52v10q2 10 2 26l2 76q0 196 -12 196h-14q-14 0 -18 -6z" />
<glyph unicode="&#xbf;" horiz-adv-x="1120" d="M48 258q-22 194 200 362l66 52q110 82 110 162l-8 96q0 26 44 26h116l354 8q30 -6 30 -116v-34q0 -16 -2 -28t-4 -25t-9 -40t-30 -60t-52 -64t-59 -61q-122 -112 -140 -194q12 -66 108 -66h8q134 4 266 60l46 -38v-374q0 -100 -332 -100t-484 72l-42 22q-84 54 -130 122 l-12 28q-28 46 -36 104q-4 60 -8 86zM420 1378v60q4 18 16 18h54q42 0 126 6t168 8l148 6l32 -40v-270q0 -74 -30 -92l-318 8q-176 6 -184 28t-8 40v58l-2 48z" />
<glyph unicode="&#xc0;" horiz-adv-x="1638" d="M-48 0q52 188 112 374l364 1110q8 16 16 24h168l348 4l92 -4l76 4q78 0 78 -44q124 -342 230 -680l212 -668l16 -54q8 -30 20 -54q0 -36 -72 -36h-92l-238 -2q-230 4 -235 23t-9 37l-8 40q-24 134 -74 134l-344 -4l-52 -208q-12 -24 -72 -24h-120l-256 -6h-28l-104 -2z M644 608l30 -48h178q100 0 100 38t-12 76t-20 74l-86 384l-8 22q-6 14 -28 14q-23 0 -72 -214l-30 -124l-26 -120q-14 -58 -26 -102zM458 1983q0 21 24 33q216 -16 308 -16h128q44 -2 84 -64l108 -174q16 -26 26 -42l14 -22q8 -12 14 -23t12 -21t6 -30t-32 -20h-80l-268 -8 h-12q-8 0 -12 4l-144 170l-102 110q-74 82 -74 103z" />
<glyph unicode="&#xc1;" horiz-adv-x="1638" d="M-48 0q52 188 112 374l364 1110q8 16 16 24h168l348 4l92 -4l76 4q78 0 78 -44q124 -342 230 -680l212 -668l16 -54q8 -30 20 -54q0 -36 -72 -36h-92l-238 -2q-230 4 -235 23t-9 37l-8 40q-24 134 -74 134l-344 -4l-52 -208q-12 -24 -72 -24h-120l-256 -6h-28l-104 -2z M644 608l30 -48h178q100 0 100 38t-12 76t-20 74l-86 384l-8 22q-6 14 -28 14q-23 0 -72 -214l-30 -124l-26 -120q-14 -58 -26 -102zM460 1654l168 286q32 54 56 76h74l110 -2q70 -6 191 -7t121 -15t-4 -22l-260 -292q-56 -66 -114 -66t-102 -2l-140 -2l-52 -2h-12 q-8 2 -12 2z" />
<glyph unicode="&#xc2;" horiz-adv-x="1638" d="M-48 0q52 188 112 374l364 1110q8 16 16 24h168l348 4l92 -4l76 4q78 0 78 -44q124 -342 230 -680l212 -668l16 -54q8 -30 20 -54q0 -36 -72 -36h-92l-238 -2q-230 4 -235 23t-9 37l-8 40q-24 134 -74 134l-344 -4l-52 -208q-12 -24 -72 -24h-120l-256 -6h-28l-104 -2z M644 608l30 -48h178q100 0 100 38t-12 76t-20 74l-86 384l-8 22q-6 14 -28 14q-23 0 -72 -214l-30 -124l-26 -120q-14 -58 -26 -102zM328 1656v28l176 246q20 24 28 42q34 52 168 58l340 4q28 -4 64 -59t48 -71l88 -126l22 -28q50 -66 50 -89t-36 -23h-130q-94 0 -238 -8 q-44 22 -64 67t-30 61q-4 -4 -14 -24q-54 -96 -84 -96l-256 4l-58 -4q-74 0 -74 18z" />
<glyph unicode="&#xc3;" horiz-adv-x="1638" d="M-48 0q52 188 112 374l364 1110q8 16 16 24h168l348 4l92 -4l76 4q78 0 78 -44q124 -342 230 -680l212 -668l16 -54q8 -30 20 -54q0 -36 -72 -36h-92l-238 -2q-230 4 -235 23t-9 37l-8 40q-24 134 -74 134l-344 -4l-52 -208q-12 -24 -72 -24h-120l-256 -6h-28l-104 -2z M644 608l30 -48h178q100 0 100 38t-12 76t-20 74l-86 384l-8 22q-6 14 -28 14q-23 0 -72 -214l-30 -124l-26 -120q-14 -58 -26 -102zM350 1672q0 348 304 348q62 0 138 -24l68 -18q32 -8 60 -16l28 -8h10q10 14 10 32l34 28l252 -4q24 0 34 -32q-14 -354 -296 -354 q-92 0 -148 21t-102 35t-72 14t-27 -26t-11 -26h-4q-66 -4 -130 -4l-128 -4q-20 6 -20 38zM968 1964v2v-2z" />
<glyph unicode="&#xc4;" horiz-adv-x="1638" d="M-48 0q52 188 112 374l364 1110q8 16 16 24h168l348 4l92 -4l76 4q78 0 78 -44q124 -342 230 -680l212 -668l16 -54q8 -30 20 -54q0 -36 -72 -36h-92l-238 -2q-230 4 -235 23t-9 37l-8 40q-24 134 -74 134l-344 -4l-52 -208q-12 -24 -72 -24h-120l-256 -6h-28l-104 -2z M644 608l30 -48h178q100 0 100 38t-12 76t-20 74l-86 384l-8 22q-6 14 -28 14q-23 0 -72 -214l-30 -124l-26 -120q-14 -58 -26 -102zM382 1660v62q0 290 36 290q164 -4 328 -4q24 -6 24 -44l-2 -44l2 -122v-154q-8 -28 -96 -28l-70 2l-190 -8q-8 12 -16 26zM926 1656 q0 338 36 356q54 -4 106 -4l164 4q76 0 82 -24q4 -170 4 -340q-8 -24 -16 -24t-8 2l-332 -16l-32 40z" />
<glyph unicode="&#xc5;" horiz-adv-x="1638" d="M-48 0q52 188 112 374l364 1110q8 16 16 24h168l348 4l92 -4l76 4q78 0 78 -44q124 -342 230 -680l212 -668l16 -54q8 -30 20 -54q0 -36 -72 -36h-92l-238 -2q-230 4 -235 23t-9 37l-8 40q-24 134 -74 134l-344 -4l-52 -208q-12 -24 -72 -24h-120l-256 -6h-28l-104 -2z M644 608l30 -48h178q100 0 100 38t-12 76t-20 74l-86 384l-8 22q-6 14 -28 14q-23 0 -72 -214l-30 -124l-26 -120q-14 -58 -26 -102zM522 1900l2 4q22 192 170 266q52 26 116 26t119 -22t97 -60t66 -92t24 -118q0 -120 -87 -206t-179 -86q-152 0 -233 86t-95 202zM704 1914 q0 -80 80 -110q20 -8 40 -8q104 0 104 108q0 76 -44 94t-64 18q-100 0 -116 -102z" />
<glyph unicode="&#xc6;" horiz-adv-x="2382" d="M-48 0q52 188 112 374l364 1110q8 16 16 24h168l348 4l92 -4l76 4l710 4q26 -4 32 -24l106 -380v-2q0 -26 -50 -26h-26q-236 0 -476 8l30 -158l272 6q52 4 100 4h100q52 0 62 -44l8 -32q20 -72 43 -142t43 -142v-6q2 -14 -6 -14l-480 -12h-26l42 -144l504 16q70 0 84 -28 l108 -360q4 -10 4 -28t-30 -22l-326 2l-330 -12h-226l-148 -4l-4 4h-92q-44 0 -76 5t-42 53l-8 40q-24 134 -74 134l-344 -4l-52 -208q-12 -24 -72 -24h-120l-256 -6h-28l-104 -2zM644 608l30 -48h178q100 0 100 38t-12 76t-20 74l-86 384l-8 22q-4 10 -27 14t-73 -214 l-30 -124l-26 -120q-14 -58 -26 -102z" />
<glyph unicode="&#xc7;" horiz-adv-x="1556" d="M40 796l8 88q4 44 12 86q122 568 759 568t693 -510l8 -96q0 -32 -228 -32l-266 4l-30 -2q-42 0 -50 39t-12 67q-6 28 -20 66t-70 38q-156 0 -156 -300q0 -44 -2 -84l-4 -96q0 -250 132 -256q72 0 110 152q8 32 24 50l184 -2l90 2l174 -2h96q32 -4 32 -38q0 -62 -7 -111 t-41 -127q-72 -176 -260 -270t-384 -94t-316 40q-476 160 -476 820zM466 -444q0 26 16 64l14 28q10 18 21 45t31 27l64 -24q52 -20 80 -20h42q66 0 66 40q0 24 -36 24l-76 -10q-24 0 -50 22l-18 12q-30 16 -40 50l-2 22l106 188q6 8 26 16l34 -2l132 -2q32 -4 32 -32 l-44 -80q228 0 228 -185t-206 -239q-60 -16 -114 -16q-112 0 -208 26t-98 46z" />
<glyph unicode="&#xc8;" horiz-adv-x="1306" d="M92 36v38l8 1010v284q0 132 16 132q4 0 10 -2l554 10q276 4 558 4q26 -4 26 -24v-318q0 -70 -16 -80t-44 -10h-28q-232 0 -472 8q-4 -40 -10 -79t-6 -79l276 6q52 2 100 4h100q50 0 50 -44l-2 -32l6 -284q-4 -20 -14 -20l-480 -12h-26v-144l510 16q66 0 76 -28v-76 l4 -284q0 -46 -40 -50l-324 2l-800 -16l-28 32q-4 20 -4 36zM248 2011q0 21 24 33q216 -16 308 -16h128q44 -2 84 -64l108 -174q16 -26 26 -42l14 -22q8 -12 14 -23t12 -21t6 -30t-32 -20h-80l-268 -8h-12q-8 0 -12 4l-144 170l-102 110q-74 82 -74 103z" />
<glyph unicode="&#xc9;" horiz-adv-x="1306" d="M92 36v38l8 1010v284q0 132 16 132q4 0 10 -2l554 10q276 4 558 4q26 -4 26 -24v-318q0 -70 -16 -80t-44 -10h-28q-232 0 -472 8q-4 -40 -10 -79t-6 -79l276 6q52 2 100 4h100q50 0 50 -44l-2 -32l6 -284q-4 -20 -14 -20l-480 -12h-26v-144l510 16q66 0 76 -28v-76 l4 -284q0 -46 -40 -50l-324 2l-800 -16l-28 32q-4 20 -4 36zM300 1866l168 286q32 54 56 76h74l110 -2q70 -6 191 -7t121 -15t-4 -22l-260 -292q-56 -66 -114 -66t-102 -2l-140 -2l-52 -2h-12q-8 2 -12 2z" />
<glyph unicode="&#xca;" horiz-adv-x="1306" d="M92 36v38l8 1010v284q0 132 16 132q4 0 10 -2l554 10q276 4 558 4q26 -4 26 -24v-318q0 -70 -16 -80t-44 -10h-28q-232 0 -472 8q-4 -40 -10 -79t-6 -79l276 6q52 2 100 4h100q50 0 50 -44l-2 -32l6 -284q-4 -20 -14 -20l-480 -12h-26v-144l510 16q66 0 76 -28v-76 l4 -284q0 -46 -40 -50l-324 2l-800 -16l-28 32q-4 20 -4 36zM190 1644v28l176 246q20 24 28 42q34 52 168 58l340 4q28 -4 64 -59t48 -71l88 -126l22 -28q50 -66 50 -89t-36 -23h-130q-94 0 -238 -8q-44 22 -64 67t-30 61q-4 -4 -14 -24q-54 -96 -84 -96l-256 4l-58 -4 q-74 0 -74 18z" />
<glyph unicode="&#xcb;" horiz-adv-x="1306" d="M92 36v38l8 1010v284q0 132 16 132q4 0 10 -2l554 10q276 4 558 4q26 -4 26 -24v-318q0 -70 -16 -80t-44 -10h-28q-232 0 -472 8q-4 -40 -10 -79t-6 -79l276 6q52 2 100 4h100q50 0 50 -44l-2 -32l6 -284q-4 -20 -14 -20l-480 -12h-26v-144l510 16q66 0 76 -28v-76 l4 -284q0 -46 -40 -50l-324 2l-800 -16l-28 32q-4 20 -4 36zM218 1662v62q0 290 36 290q164 -4 328 -4q24 -6 24 -44l-2 -44l2 -122v-154q-8 -28 -96 -28l-70 2l-190 -8q-8 12 -16 26zM762 1658q0 338 36 356q54 -4 106 -4l164 4q76 0 82 -24q4 -170 4 -340q-8 -24 -16 -24 t-8 2l-332 -16l-32 40z" />
<glyph unicode="&#xcc;" horiz-adv-x="828" d="M78 -8q22 1108 22 1384v30q-4 32 -4 62t18 44q162 -12 318 -12h196q40 0 78 4q18 -4 18 -48v-4l-6 -280v-56l6 -704v-88l8 -30l8 -288q-6 -28 -36 -32h-36l-548 -10q-20 8 -42 28zM40 2007q0 21 24 33q216 -16 308 -16h128q44 -2 84 -64l108 -174q16 -26 26 -42l14 -22 q8 -12 14 -23t12 -21t6 -30t-32 -20h-80l-268 -8h-12q-8 0 -12 4l-144 170l-102 110q-74 82 -74 103z" />
<glyph unicode="&#xcd;" horiz-adv-x="832" d="M82 -8q22 1108 22 1384v30q-4 32 -4 62t18 44q162 -12 318 -12h196q40 0 78 4q18 -4 18 -48v-4l-6 -280v-56l6 -704v-88l8 -30l8 -288q-6 -28 -36 -32h-36l-548 -10q-20 8 -42 28zM160 1662l168 286q32 54 56 76h74l110 -2q70 -6 191 -7t121 -15t-4 -22l-260 -292 q-56 -66 -114 -66t-102 -2l-140 -2l-52 -2h-12q-8 2 -12 2z" />
<glyph unicode="&#xce;" horiz-adv-x="842" d="M80 -8q22 1108 22 1384v30q-4 32 -4 62t18 44q162 -12 318 -12h196q40 0 78 4q18 -4 18 -48v-4l-6 -280v-56l6 -704v-88l8 -30l8 -288q-6 -28 -36 -32h-36l-548 -10q-20 8 -42 28zM-12 1646v28l176 246q20 24 28 42q34 52 168 58l340 4q28 -4 64 -59t48 -71l88 -126 l22 -28q50 -66 50 -89t-36 -23h-130q-94 0 -238 -8q-44 22 -64 67t-30 61q-4 -4 -14 -24q-54 -96 -84 -96l-256 4l-58 -4q-74 0 -74 18z" />
<glyph unicode="&#xcf;" horiz-adv-x="828" d="M74 -8q22 1108 22 1384v30q-4 32 -4 62t18 44q162 -12 318 -12h196q40 0 78 4q18 -4 18 -48v-4l-6 -280v-56l6 -704v-88l8 -30l8 -288q-6 -28 -36 -32h-36l-548 -10q-20 8 -42 28zM-4 1668v62q0 290 36 290q164 -4 328 -4q24 -6 24 -44l-2 -44l2 -122v-154 q-8 -28 -96 -28l-70 2l-190 -8q-8 12 -16 26zM540 1664q0 338 36 356q54 -4 106 -4l164 4q76 0 82 -24q4 -170 4 -340q-8 -24 -16 -24t-8 2l-332 -16l-32 40z" />
<glyph unicode="&#xd0;" horiz-adv-x="1644" d="M-60 640l4 60v60l-2 50q0 66 34 66h126q-2 34 -2 68v160l2 92v272l-2 4q0 40 296 40h112l182 4q338 0 471 -52t211 -112l36 -32q124 -100 184 -384q94 -466 -204 -754q-216 -206 -512 -206q-4 -4 -8 -4h-30l-258 4q-220 0 -452 -8q-26 52 -26 88l-2 202l4 286v74 q-32 -2 -62 -2h-62l-20 12q-12 4 -20 12zM656 876h136q36 0 36 -40v-44q-4 -84 -4 -92v-20q0 -48 -32 -50l-130 -2l4 -144q4 -162 26 -164q164 0 206 42t60 80q58 122 58 316v62q0 238 -84 301t-188 63h-56l-32 -60v-248z" />
<glyph unicode="&#xd1;" horiz-adv-x="1726" d="M80 32v72l4 344q0 588 12 946l2 82q0 22 26 26q168 2 334 6t254 4t94 -10t10 -22t28 -91t124 -323l140 -366v388q4 192 4 392q0 28 160 28l196 -4h124q16 0 16 -6q8 -416 8 -646l-2 -358v-194q2 -72 2 -146v-146q-6 -26 -66 -26h-26l-306 -4h-148q-154 4 -164 25t-40 101 l-244 656l-2 -352l4 -264v-126q0 -48 -52 -48h-4q-56 2 -126 2h-118l-120 -4l-80 -2l-28 30q-16 16 -16 36zM1608 1498v2h2v-4zM392 1862q0 348 304 348q62 0 138 -24l68 -18q32 -8 60 -16l28 -8h10q10 14 10 32l34 28l252 -4q24 0 34 -32q-14 -354 -296 -354q-92 0 -148 21 t-102 35t-72 14t-27 -26t-11 -26h-4q-66 -4 -130 -4l-128 -4q-20 6 -20 38zM1010 2154v2v-2z" />
<glyph unicode="&#xd2;" horiz-adv-x="1644" d="M24 752l12 110q30 424 390 600q180 88 330 88q480 0 633 -197t174 -299t27 -153t6 -127q0 -354 -148 -542l-44 -60q-172 -228 -600 -228q-780 0 -780 808zM620 672q0 -328 174 -340q218 0 218 408t-196 408t-196 -476zM384 2023q0 21 24 33q216 -16 308 -16h128 q44 -2 84 -64l108 -174q16 -26 26 -42l14 -22q8 -12 14 -23t12 -21t6 -30t-32 -20h-80l-268 -8h-12q-8 0 -12 4l-144 170l-102 110q-74 82 -74 103z" />
<glyph unicode="&#xd3;" horiz-adv-x="1644" d="M24 752l12 110q30 424 390 600q180 88 330 88q480 0 633 -197t174 -299t27 -153t6 -127q0 -354 -148 -542l-44 -60q-172 -228 -600 -228q-780 0 -780 808zM620 672q0 -328 174 -340q218 0 218 408t-196 408t-196 -476zM446 1674l168 286q32 54 56 76h74l110 -2 q70 -6 191 -7t121 -15t-4 -22l-260 -292q-56 -66 -114 -66t-102 -2l-140 -2l-52 -2h-12q-8 2 -12 2z" />
<glyph unicode="&#xd4;" horiz-adv-x="1644" d="M24 752l12 110q30 424 390 600q180 88 330 88q480 0 633 -197t174 -299t27 -153t6 -127q0 -354 -148 -542l-44 -60q-172 -228 -600 -228q-780 0 -780 808zM620 672q0 -328 174 -340q218 0 218 408t-196 408t-196 -476zM340 1654v28l176 246q20 24 28 42q34 52 168 58 l340 4q28 -4 64 -59t48 -71l88 -126l22 -28q50 -66 50 -89t-36 -23h-130q-94 0 -238 -8q-44 22 -64 67t-30 61q-4 -4 -14 -24q-54 -96 -84 -96l-256 4l-58 -4q-74 0 -74 18z" />
<glyph unicode="&#xd5;" horiz-adv-x="1644" d="M24 752l12 110q30 424 390 600q180 88 330 88q480 0 633 -197t174 -299t27 -153t6 -127q0 -354 -148 -542l-44 -60q-172 -228 -600 -228q-780 0 -780 808zM620 672q0 -328 174 -340q218 0 218 408t-196 408t-196 -476zM342 1672q0 348 304 348q62 0 138 -24l68 -18 q32 -8 60 -16l28 -8h10q10 14 10 32l34 28l252 -4q24 0 34 -32q-14 -354 -296 -354q-92 0 -148 21t-102 35t-72 14t-27 -26t-11 -26h-4q-66 -4 -130 -4l-128 -4q-20 6 -20 38zM960 1964v2v-2z" />
<glyph unicode="&#xd6;" horiz-adv-x="1644" d="M24 752l12 110q30 424 390 600q180 88 330 88q480 0 633 -197t174 -299t27 -153t6 -127q0 -354 -148 -542l-44 -60q-172 -228 -600 -228q-780 0 -780 808zM620 672q0 -328 174 -340q218 0 218 408t-196 408t-196 -476zM382 1896v62q0 290 36 290q164 -4 328 -4 q24 -6 24 -44l-2 -44l2 -122v-154q-8 -28 -96 -28l-70 2l-190 -8q-8 12 -16 26zM926 1892q0 338 36 356q54 -4 106 -4l164 4q76 0 82 -24q4 -170 4 -340q-8 -24 -16 -24t-8 2l-332 -16l-32 40z" />
<glyph unicode="&#xd7;" horiz-adv-x="1282" d="M152 264q0 14 26 40l226 228l-202 208l-36 34q-14 12 -14 25t26 45l86 84q4 4 18 20t45 46t46 30t19 -4l252 -256l248 250q8 6 18 6q18 0 72 -54l86 -92q6 -8 17 -17t19 -19t15 -18t7 -17t-42 -43l-222 -222l206 -200l36 -38q20 -16 20 -32t-54 -70l-86 -86 q-32 -32 -51 -56t-33 4l-252 240q-56 -64 -120 -124l-128 -124q-8 -4 -18 -4l-2 -2q-34 6 -63 38t-41 44l-76 74q-48 48 -48 62z" />
<glyph unicode="&#xd8;" horiz-adv-x="1644" d="M24 752l12 110q30 424 390 600q180 88 403 88t411 -90l104 160q4 8 12 8q16 0 43 -17t27 -27q0 -26 -68 -126l-34 -52q272 -200 272 -591t-148 -583l-44 -60q-172 -228 -668 -228q-146 0 -298 64l-56 -88q-58 -100 -94 -100h-8l-8 6q-12 0 -24 6l-24 12q12 24 20 48 t20 48l76 120l-4 4q-312 202 -312 688zM620 672q0 -76 12 -156l340 528q-52 104 -152 104q-200 0 -200 -476zM684 392q42 -58 103 -58t97 17t60 51q68 96 68 334v110q0 30 -4 60z" />
<glyph unicode="&#xd9;" horiz-adv-x="1614" d="M92 498q4 368 4 734v12l-4 72v50q0 120 20 136l30 -2q188 8 296 8h134l96 -8q24 -4 40 -4q10 -344 10 -550l-2 -196q0 -26 -2 -48v-44l-2 -48v-54q0 -176 94 -176t94 118l4 10l4 240v116q0 112 -2 218t-4 218l-4 140q6 70 26 76q576 0 596 -20l24 -12q-8 -240 -8 -390 v-318l-4 -276q0 -560 -710 -560t-730 558zM410 2007q0 21 24 33q216 -16 308 -16h128q44 -2 84 -64l108 -174q16 -26 26 -42l14 -22q8 -12 14 -23t12 -21t6 -30t-32 -20h-80l-268 -8h-12q-8 0 -12 4l-144 170l-102 110q-74 82 -74 103z" />
<glyph unicode="&#xda;" horiz-adv-x="1614" d="M92 498q4 368 4 734v12l-4 72v50q0 120 20 136l30 -2q188 8 296 8h134l96 -8q24 -4 40 -4q10 -344 10 -550l-2 -196q0 -26 -2 -48v-44l-2 -48v-54q0 -176 94 -176t94 118l4 10l4 240v116q0 112 -2 218t-4 218l-4 140q6 70 26 76q576 0 596 -20l24 -12q-8 -240 -8 -390 v-318l-4 -276q0 -560 -710 -560t-730 558zM460 1666l168 286q32 54 56 76h74l110 -2q70 -6 191 -7t121 -15t-4 -22l-260 -292q-56 -66 -114 -66t-102 -2l-140 -2l-52 -2h-12q-8 2 -12 2z" />
<glyph unicode="&#xdb;" horiz-adv-x="1614" d="M92 498q4 368 4 734v12l-4 72v50q0 120 20 136l30 -2q188 8 296 8h134l96 -8q24 -4 40 -4q10 -344 10 -550l-2 -196q0 -26 -2 -48v-44l-2 -48v-54q0 -176 94 -176t94 118l4 10l4 240v116q0 112 -2 218t-4 218l-4 140q6 70 26 76q576 0 596 -20l24 -12q-8 -240 -8 -390 v-318l-4 -276q0 -560 -710 -560t-730 558zM330 1646v28l176 246q20 24 28 42q34 52 168 58l340 4q28 -4 64 -59t48 -71l88 -126l22 -28q50 -66 50 -89t-36 -23h-130q-94 0 -238 -8q-44 22 -64 67t-30 61q-4 -4 -14 -24q-54 -96 -84 -96l-256 4l-58 -4q-74 0 -74 18z" />
<glyph unicode="&#xdc;" horiz-adv-x="1614" d="M92 498q4 368 4 734v12l-4 72v50q0 120 20 136l30 -2q188 8 296 8h134l96 -8q24 -4 40 -4q10 -344 10 -550l-2 -196q0 -26 -2 -48v-44l-2 -48v-54q0 -176 94 -176t94 118l4 10l4 240v116q0 112 -2 218t-4 218l-4 140q6 70 26 76q576 0 596 -20l24 -12q-8 -240 -8 -390 v-318l-4 -276q0 -560 -710 -560t-730 558zM372 1896v62q0 290 36 290q164 -4 328 -4q24 -6 24 -44l-2 -44l2 -122v-154q-8 -28 -96 -28l-70 2l-190 -8q-8 12 -16 26zM916 1892q0 338 36 356q54 -4 106 -4l164 4q76 0 82 -24q4 -170 4 -340q-8 -24 -16 -24t-8 2l-332 -16 l-32 40z" />
<glyph unicode="&#xdd;" horiz-adv-x="1524" d="M-40 1478q0 28 48 28h252l312 -2q38 -6 112 -250l98 -330q52 138 96 280l92 284q6 22 158 22h20q40 -2 132 -2t180 -1t95 -10t13 -35q-32 -64 -138 -262l-356 -700q-2 -40 -2 -78v-422q-8 -32 -40 -32l-564 -4q-36 36 -36 66l2 50l2 144v72q0 230 -100 430l-226 454 q-36 74 -70 130l-36 62q-44 78 -44 106zM448 1638l168 286q32 54 56 76h74l110 -2q70 -6 191 -7t121 -15t-4 -22l-260 -292q-56 -66 -114 -66t-102 -2l-140 -2l-52 -2h-12q-8 2 -12 2z" />
<glyph unicode="&#xde;" horiz-adv-x="1526" d="M104 136v176l4 622v402l-2 6l2 2v106q0 104 24 170l568 -8q30 -4 34 -38l-2 -110l4 -84l264 -8h68q168 0 310 -133t142 -305t-26 -250t-72 -136q-138 -170 -490 -202l-192 -10l-4 -106q-4 -50 -4 -92v-126q-4 -36 -34 -36l-568 -10q-26 72 -26 170zM702 1040l4 -138 l2 -106v-88l32 -44q232 0 232 208q0 130 -120 156q-42 12 -150 12z" />
<glyph unicode="&#xdf;" horiz-adv-x="1558" d="M68 712v176q0 88 4 172q0 484 648 484q468 0 632 -184q72 -84 72 -208t-110 -224l-46 -44q-54 -44 -54 -66t19 -37t45 -30t54 -29t62 -38q186 -124 186 -320q0 -432 -582 -428q-188 0 -298 98v-2q-70 62 -94 180l2 -100q0 -130 -16 -130h-32q-28 -2 -114 -4l-298 4h-32 q-44 0 -44 8v10zM604 976q0 -76 2 -150v-458l18 16l356 4q36 0 36 -54t24 -54l20 4h4q8 20 8 38q0 54 -76 104q-180 118 -256 184t-76 196t118 211t118 135q0 84 -112 84q-180 0 -180 -248zM1046 276h2h-2z" />
<glyph unicode="&#xe0;" horiz-adv-x="1482" d="M-48 72l428 1288q8 16 20 28q26 0 54 -2h200q6 -2 78 -2h208l128 -8q16 0 24 -16l4 -26q4 -18 18 -46l124 -372l18 -60l8 -12q4 -24 12 -48l16 -50l38 -98l28 -94l10 -42q8 -16 8 -24l16 -56q32 -96 86 -254l-2 2l8 -20q4 -20 13 -40t9 -48t-142 -28h-272q-158 2 -162 28 l-38 152q-6 24 -14 24h-326q-12 -40 -22 -88t-22 -92q-18 -28 -70 -28h-116q-30 -2 -62 -2h-228l-52 -2q-4 4 -6 8t-6 8v-4q-8 8 -16 24zM600 600v4v-4zM600 604l4 -22l44 2l138 -4h38q24 0 24 18t-6 38l-12 40l-6 24q-4 12 -4 24l-28 120l-8 48l-16 74q-4 8 -6 19t-6 25 l-10 48q-4 12 -6 19t-12 11v-2q-24 -6 -48 -134l-8 -48q-2 -8 -5 -12t-3 -8zM284 1845q0 21 24 33q216 -16 308 -16h128q44 -2 84 -64l108 -174q16 -26 26 -42l14 -22q8 -12 14 -23t12 -21t6 -30t-32 -20h-80l-268 -8h-12q-8 0 -12 4l-144 170l-102 110q-74 82 -74 103z" />
<glyph unicode="&#xe1;" horiz-adv-x="1482" d="M-48 72l428 1288q8 16 20 28q26 0 54 -2h200q6 -2 78 -2h208l128 -8q16 0 24 -16l4 -26q4 -18 18 -46l124 -372l18 -60l8 -12q4 -24 12 -48l16 -50l38 -98l28 -94l10 -42q8 -16 8 -24l16 -56q32 -96 86 -254l-2 2l8 -20q4 -20 13 -40t9 -48t-142 -28h-272q-158 2 -162 28 l-38 152q-6 24 -14 24h-326q-12 -40 -22 -88t-22 -92q-18 -28 -70 -28h-116q-30 -2 -62 -2h-228l-52 -2q-4 4 -6 8t-6 8v-4q-8 8 -16 24zM600 600v4v-4zM600 604l4 -22l44 2l138 -4h38q24 0 24 18t-6 38l-12 40l-6 24q-4 12 -4 24l-28 120l-8 48l-16 74q-4 8 -6 19t-6 25 l-10 48q-4 12 -6 19t-12 11v-2q-24 -6 -48 -134l-8 -48q-2 -8 -5 -12t-3 -8zM472 1526l168 286q32 54 56 76h74l110 -2q70 -6 191 -7t121 -15t-4 -22l-260 -292q-56 -66 -114 -66t-102 -2l-140 -2l-52 -2h-12q-8 2 -12 2z" />
<glyph unicode="&#xe2;" horiz-adv-x="1482" d="M-48 72l428 1288q8 16 20 28q26 0 54 -2h200q6 -2 78 -2h208l128 -8q16 0 24 -16l4 -26q4 -18 18 -46l124 -372l18 -60l8 -12q4 -24 12 -48l16 -50l38 -98l28 -94l10 -42q8 -16 8 -24l16 -56q32 -96 86 -254l-2 2l8 -20q4 -20 13 -40t9 -48t-142 -28h-272q-158 2 -162 28 l-38 152q-6 24 -14 24h-326q-12 -40 -22 -88t-22 -92q-18 -28 -70 -28h-116q-30 -2 -62 -2h-228l-52 -2q-4 4 -6 8t-6 8v-4q-8 8 -16 24zM600 600v4v-4zM600 604l4 -22l44 2l138 -4h38q24 0 24 18t-6 38l-12 40l-6 24q-4 12 -4 24l-28 120l-8 48l-16 74q-4 8 -6 19t-6 25 l-10 48q-4 12 -6 19t-12 11v-2q-24 -6 -48 -134l-8 -48q-2 -8 -5 -12t-3 -8zM240 1494v28l176 246q20 24 28 42q34 52 168 58l340 4q28 -4 64 -59t48 -71l88 -126l22 -28q50 -66 50 -89t-36 -23h-130q-94 0 -238 -8q-44 22 -64 67t-30 61q-4 -4 -14 -24q-54 -96 -84 -96 l-256 4l-58 -4q-74 0 -74 18z" />
<glyph unicode="&#xe3;" horiz-adv-x="1482" d="M-48 72l428 1288q8 16 20 28q26 0 54 -2h200q6 -2 78 -2h208l128 -8q16 0 24 -16l4 -26q4 -18 18 -46l124 -372l18 -60l8 -12q4 -24 12 -48l16 -50l38 -98l28 -94l10 -42q8 -16 8 -24l16 -56q32 -96 86 -254l-2 2l8 -20q4 -20 13 -40t9 -48t-142 -28h-272q-158 2 -162 28 l-38 152q-6 24 -14 24h-326q-12 -40 -22 -88t-22 -92q-18 -28 -70 -28h-116q-30 -2 -62 -2h-228l-52 -2q-4 4 -6 8t-6 8v-4q-8 8 -16 24zM600 600v4v-4zM600 604l4 -22l44 2l138 -4h38q24 0 24 18t-6 38l-12 40l-6 24q-4 12 -4 24l-28 120l-8 48l-16 74q-4 8 -6 19t-6 25 l-10 48q-4 12 -6 19t-12 11v-2q-24 -6 -48 -134l-8 -48q-2 -8 -5 -12t-3 -8zM270 1514q0 348 304 348q62 0 138 -24l68 -18q32 -8 60 -16l28 -8h10q10 14 10 32l34 28l252 -4q24 0 34 -32q-14 -354 -296 -354q-92 0 -148 21t-102 35t-72 14t-27 -26t-11 -26h-4 q-66 -4 -130 -4l-128 -4q-20 6 -20 38zM888 1806v2v-2z" />
<glyph unicode="&#xe4;" horiz-adv-x="1482" d="M-48 72l428 1288q8 16 20 28q26 0 54 -2h200q6 -2 78 -2h208l128 -8q16 0 24 -16l4 -26q4 -18 18 -46l124 -372l18 -60l8 -12q4 -24 12 -48l16 -50l38 -98l28 -94l10 -42q8 -16 8 -24l16 -56q32 -96 86 -254l-2 2l8 -20q4 -20 13 -40t9 -48t-142 -28h-272q-158 2 -162 28 l-38 152q-6 24 -14 24h-326q-12 -40 -22 -88t-22 -92q-18 -28 -70 -28h-116q-30 -2 -62 -2h-228l-52 -2q-4 4 -6 8t-6 8v-4q-8 8 -16 24zM600 600v4v-4zM600 604l4 -22l44 2l138 -4h38q24 0 24 18t-6 38l-12 40l-6 24q-4 12 -4 24l-28 120l-8 48l-16 74q-4 8 -6 19t-6 25 l-10 48q-4 12 -6 19t-12 11v-2q-24 -6 -48 -134l-8 -48q-2 -8 -5 -12t-3 -8zM258 1534v62q0 290 36 290q164 -4 328 -4q24 -6 24 -44l-2 -44l2 -122v-154q-8 -28 -96 -28l-70 2l-190 -8q-8 12 -16 26zM802 1530q0 338 36 356q54 -4 106 -4l164 4q76 0 82 -24q4 -170 4 -340 q-8 -24 -16 -24t-8 2l-332 -16l-32 40z" />
<glyph unicode="&#xe5;" horiz-adv-x="1482" d="M-48 72l428 1288q8 16 20 28q26 0 54 -2h200q6 -2 78 -2h208l128 -8q16 0 24 -16l4 -26q4 -18 18 -46l124 -372l18 -60l8 -12q4 -24 12 -48l16 -50l38 -98l28 -94l10 -42q8 -16 8 -24l16 -56q32 -96 86 -254l-2 2l8 -20q4 -20 13 -40t9 -48t-142 -28h-272q-158 2 -162 28 l-38 152q-6 24 -14 24h-326q-12 -40 -22 -88t-22 -92q-18 -28 -70 -28h-116q-30 -2 -62 -2h-228l-52 -2q-4 4 -6 8t-6 8v-4q-8 8 -16 24zM600 600v4v-4zM600 604l4 -22l44 2l138 -4h38q24 0 24 18t-6 38l-12 40l-6 24q-4 12 -4 24l-28 120l-8 48l-16 74q-4 8 -6 19t-6 25 l-10 48q-4 12 -6 19t-12 11v-2q-24 -6 -48 -134l-8 -48q-2 -8 -5 -12t-3 -8zM438 1752l2 4q22 192 170 266q52 26 116 26t119 -22t97 -60t66 -92t24 -118q0 -120 -87 -206t-179 -86q-152 0 -233 86t-95 202zM620 1766q0 -80 80 -110q20 -8 40 -8q104 0 104 108q0 76 -44 94 t-64 18q-100 0 -116 -102z" />
<glyph unicode="&#xe6;" horiz-adv-x="2100" d="M-48 72l54 162q28 82 56 170l318 956q8 16 20 28q26 0 54 -2h200q6 -2 78 -2h160l220 -4h67q45 0 137 2h52l88 2h126q30 -4 34 -26l104 -334v-12q0 -6 -20 -22l-52 2l-184 2q-84 0 -172 4l-56 2l12 -40l8 -40l8 -30l20 -2h26l358 8q50 0 57 -32t11 -44l12 -38q4 -8 6 -17 t6 -21l16 -48q8 -32 18 -56t18 -46l8 -26q0 -20 -12 -20h-8l-4 2l-258 -10h-132q-10 0 -26 2q2 -4 1 -9t3 -9l28 -92l16 -2l288 6l130 4q66 0 82 -28l20 -70q4 -12 6 -21t6 -17l50 -160l10 -28l6 -24q6 -16 6 -33t-30 -17h-14l-64 2h-26l-46 2h-60l-24 2l-292 -4h-268 l-96 -4l-4 4h-66q-108 0 -112 28l-38 152q-6 24 -14 24h-326q-12 -40 -22 -88t-22 -92q-18 -28 -70 -28h-116q-30 -2 -62 -2h-228l-52 -2q-4 4 -6 8t-6 8v-4q-6 6 -16 24zM600 604l4 -22l44 2l138 -4h38q24 0 24 18t-6 38t-10 40l-8 24q-4 12 -4 24l-28 120l-8 48l-16 74 q-4 8 -6 19t-6 25l-10 48q-4 12 -6 19t-12 11v-2q-24 -6 -48 -134l-8 -48q-2 -6 -5 -11t-3 -9l-30 -132q-24 -104 -34 -148z" />
<glyph unicode="&#xe7;" horiz-adv-x="1390" d="M36 746v14q4 40 8 118q10 192 176 354q181 181 425 181h3q246 -1 356 -37q292 -98 336 -406l8 -86q-6 -34 -88 -34l-80 2q-338 0 -345 14t-11 30l-8 42q-16 90 -72 90q-128 0 -128 -312v-112q0 -192 108 -192q50 0 67 48t25 77t24 45l240 -2l166 2h74q32 0 36 -40l-4 -38 q-4 -20 -6 -58t-26 -98q-104 -264 -424 -320l-20 -6q-64 -14 -148 -14q-692 0 -692 738zM382 -444q0 26 16 64l14 28q10 18 21 45t31 27l64 -24q52 -20 80 -20h42q66 0 66 40q0 24 -36 24l-76 -10q-24 0 -50 22l-18 12q-30 16 -40 50l-2 22l106 188q6 8 26 16l34 -2l132 -2 q32 -4 32 -32l-44 -80q228 0 228 -185t-206 -239q-60 -16 -114 -16q-112 0 -208 26t-98 46z" />
<glyph unicode="&#xe8;" horiz-adv-x="1166" d="M82 1032l2 54l-2 132v74q0 84 36 84h24q14 0 22 -2h52l612 8h52l88 2h126q26 -4 26 -26v-334q-2 -16 -28 -34l-52 2l-184 2q-44 2 -86 2t-86 2l-52 2q-4 -8 -4 -14v-100q0 -6 -2 -8v-8l20 -2h26l360 8q48 0 48 -42l-4 -34v-38l2 -38v-28l2 -44l2 -38v-26q-6 -20 -14 -20 h-12l-2 2l-262 -10h-132q-12 0 -28 2v-130l308 4l128 4q58 0 72 -28v-70l2 -38v-160q2 -4 2 -12v-40q0 -46 -40 -50h-14q-18 2 -34 2h-56l-44 2h-60l-26 2l-558 -4l-198 -4l-30 34l4 520q2 28 2 46v44q-2 8 -2 29t4 59v132l-4 102q-8 12 -6 26zM192 1857q0 21 24 33 q216 -16 308 -16h128q44 -2 84 -64l108 -174q16 -26 26 -42l14 -22q8 -12 14 -23t12 -21t6 -30t-32 -20h-80l-268 -8h-12q-8 0 -12 4l-144 170l-102 110q-74 82 -74 103z" />
<glyph unicode="&#xe9;" horiz-adv-x="1166" d="M82 1032l2 54l-2 132v74q0 84 36 84h24q14 0 22 -2h52l612 8h52l88 2h126q26 -4 26 -26v-334q-2 -16 -28 -34l-52 2l-184 2q-44 2 -86 2t-86 2l-52 2q-4 -8 -4 -14v-100q0 -6 -2 -8v-8l20 -2h26l360 8q48 0 48 -42l-4 -34v-38l2 -38v-28l2 -44l2 -38v-26q-6 -20 -14 -20 h-12l-2 2l-262 -10h-132q-12 0 -28 2v-130l308 4l128 4q58 0 72 -28v-70l2 -38v-160q2 -4 2 -12v-40q0 -46 -40 -50h-14q-18 2 -34 2h-56l-44 2h-60l-26 2l-558 -4l-198 -4l-30 34l4 520q2 28 2 46v44q-2 8 -2 29t4 59v132l-4 102q-8 12 -6 26zM328 1510l168 286 q32 54 56 76h74l110 -2q70 -6 191 -7t121 -15t-4 -22l-260 -292q-56 -66 -114 -66t-102 -2l-140 -2l-52 -2h-12q-8 2 -12 2z" />
<glyph unicode="&#xea;" horiz-adv-x="1166" d="M82 1032l2 54l-2 132v74q0 84 36 84h24q14 0 22 -2h52l612 8h52l88 2h126q26 -4 26 -26v-334q-2 -16 -28 -34l-52 2l-184 2q-44 2 -86 2t-86 2l-52 2q-4 -8 -4 -14v-100q0 -6 -2 -8v-8l20 -2h26l360 8q48 0 48 -42l-4 -34v-38l2 -38v-28l2 -44l2 -38v-26q-6 -20 -14 -20 h-12l-2 2l-262 -10h-132q-12 0 -28 2v-130l308 4l128 4q58 0 72 -28v-70l2 -38v-160q2 -4 2 -12v-40q0 -46 -40 -50h-14q-18 2 -34 2h-56l-44 2h-60l-26 2l-558 -4l-198 -4l-30 34l4 520q2 28 2 46v44q-2 8 -2 29t4 59v132l-4 102q-8 12 -6 26zM108 1498v28l176 246 q20 24 28 42q34 52 168 58l340 4q28 -4 64 -59t48 -71l88 -126l22 -28q50 -66 50 -89t-36 -23h-130q-94 0 -238 -8q-44 22 -64 67t-30 61q-4 -4 -14 -24q-54 -96 -84 -96l-256 4l-58 -4q-74 0 -74 18z" />
<glyph unicode="&#xeb;" horiz-adv-x="1166" d="M82 1032l2 54l-2 132v74q0 84 36 84h24q14 0 22 -2h52l612 8h52l88 2h126q26 -4 26 -26v-334q-2 -16 -28 -34l-52 2l-184 2q-44 2 -86 2t-86 2l-52 2q-4 -8 -4 -14v-100q0 -6 -2 -8v-8l20 -2h26l360 8q48 0 48 -42l-4 -34v-38l2 -38v-28l2 -44l2 -38v-26q-6 -20 -14 -20 h-12l-2 2l-262 -10h-132q-12 0 -28 2v-130l308 4l128 4q58 0 72 -28v-70l2 -38v-160q2 -4 2 -12v-40q0 -46 -40 -50h-14q-18 2 -34 2h-56l-44 2h-60l-26 2l-558 -4l-198 -4l-30 34l4 520q2 28 2 46v44q-2 8 -2 29t4 59v132l-4 102q-8 12 -6 26zM148 1522v62q0 290 36 290 q164 -4 328 -4q24 -6 24 -44l-2 -44l2 -122v-154q-8 -28 -96 -28l-70 2l-190 -8q-8 12 -16 26zM692 1518q0 338 36 356q54 -4 106 -4l164 4q76 0 82 -24q4 -170 4 -340q-8 -24 -16 -24t-8 2l-332 -16l-32 40z" />
<glyph unicode="&#xec;" horiz-adv-x="674" d="M52 84q0 160 4 312l2 208l8 394v26q0 24 20 22l76 2l50 -2l126 2l224 -4h24q16 0 16 -24v-62l2 -138q2 -68 2 -140l16 -300v-26l-2 -16l2 -34v-136q0 -192 -44 -192h-280l-40 -4h-172l-32 24zM-100 1637q0 21 24 33q216 -16 308 -16h128q44 -2 84 -64l108 -174 q16 -26 26 -42l14 -22q8 -12 14 -23t12 -21t6 -30t-32 -20h-80l-268 -8h-12q-8 0 -12 4l-144 170l-102 110q-74 82 -74 103z" />
<glyph unicode="&#xed;" horiz-adv-x="676" d="M46 84q0 160 4 312l2 208l8 394v26q0 24 20 22l76 2l50 -2l126 2l224 -4h24q16 0 16 -24v-62l2 -138q2 -68 2 -140l16 -300v-26l-2 -16l2 -34v-136q0 -192 -44 -192h-280l-40 -4h-172l-32 24zM84 1286l168 286q32 54 56 76h74l110 -2q70 -6 191 -7t121 -15t-4 -22 l-260 -292q-56 -66 -114 -66t-102 -2l-140 -2l-52 -2h-12q-8 2 -12 2z" />
<glyph unicode="&#xee;" horiz-adv-x="714" d="M68 84q0 160 4 312l2 208l8 394v26q0 24 20 22l76 2l50 -2l126 2l224 -4h24q16 0 16 -24v-62l2 -138q2 -68 2 -140l16 -300v-26l-2 -16l2 -34v-136q0 -192 -44 -192h-280l-40 -4h-172l-32 24zM-120 1264v28l176 246q20 24 28 42q34 52 168 58l340 4q28 -4 64 -59t48 -71 l88 -126l22 -28q50 -66 50 -89t-36 -23h-130q-94 0 -238 -8q-44 22 -64 67t-30 61q-4 -4 -14 -24q-54 -96 -84 -96l-256 4l-58 -4q-74 0 -74 18z" />
<glyph unicode="&#xef;" horiz-adv-x="700" d="M62 84q0 160 4 312l2 208l8 394v26q0 24 20 22l76 2l50 -2l126 2l224 -4h24q16 0 16 -24v-62l2 -138q2 -68 2 -140l16 -300v-26l-2 -16l2 -34v-136q0 -192 -44 -192h-280l-40 -4h-172l-32 24zM-108 1296v62q0 290 36 290q164 -4 328 -4q24 -6 24 -44l-2 -44l2 -122v-154 q-8 -28 -96 -28l-70 2l-190 -8q-8 12 -16 26zM436 1292q0 338 36 356q54 -4 106 -4l164 4q76 0 82 -24q4 -170 4 -340q-8 -24 -16 -24t-8 2l-332 -16l-32 40z" />
<glyph unicode="&#xf0;" horiz-adv-x="1452" d="M-32 640l2 60q2 32 2 60l-4 50q0 66 36 66h92v72l-4 76v80q-8 96 -8 196v36q-4 4 -4 19t28 15v2l12 -2q8 0 16 2l246 16h230q490 0 643 -201t153 -393t-28 -286q-78 -266 -312 -390q-132 -70 -284 -78l-8 4l-36 -2l-44 -2h-52q-24 0 -56 2t-128 2t-256 -4l-88 -2 q-20 42 -20 58v156l2 366q-26 -2 -46 -2h-44l-20 12q-12 4 -20 12zM600 876h100q32 0 32 -84v-112q0 -48 -32 -50h-48q-24 -2 -48 -2v-76q0 -188 16 -196h30q168 0 206 168q20 90 20 200v72q-4 20 -4 65t-24 107h2q-60 118 -218 118h-12l-6 -22l-14 -20l4 -52v-56z" />
<glyph unicode="&#xf1;" horiz-adv-x="1548" d="M68 84l16 1044v124q0 12 2 20l-2 72q6 36 24 36l8 -4l424 8h168q24 -8 24 -24l232 -656l4 148q16 264 16 500q0 26 90 26l42 -2h300l16 -6q2 -82 4 -152q1 -47 1 -79v-29q-1 -38 -1 -86v-206l4 -372v-276q0 -10 4 -18v-70q-6 -30 -38 -30h-58q-64 -4 -192 -4h-332 q-12 4 -46 84l-132 368q-36 98 -66 196l-4 6v-6q-4 -100 -4 -198t-4 -194l-4 -204v-24q0 -32 -40 -40l-94 4h-194q-28 0 -52 -2l-72 -2zM328 1500q0 348 304 348q62 0 138 -24l68 -18q32 -8 60 -16l28 -8h10q10 14 10 32l34 28l252 -4q24 0 34 -32q-14 -354 -296 -354 q-92 0 -148 21t-102 35t-72 14t-27 -26t-11 -26h-4q-66 -4 -130 -4l-128 -4q-20 6 -20 38zM946 1792v2v-2z" />
<glyph unicode="&#xf2;" d="M18 724l2 22q34 332 174 478l24 24q40 48 146 96l38 16q136 56 215 56t102 1t45 1q98 0 243 -44t231 -154l20 -28q144 -180 144 -447t-49 -352t-83 -129l-40 -50q-160 -200 -532 -200t-566 270q-94 156 -112 380zM570 716q0 -352 134 -352q160 0 160 352v36 q0 304 -147 304t-147 -296v-44zM364 1907q0 21 24 33q216 -16 308 -16h128q44 -2 84 -64l108 -174q16 -26 26 -42l14 -22q8 -12 14 -23t12 -21t6 -30t-32 -20h-80l-268 -8h-12q-8 0 -12 4l-144 170l-102 110q-74 82 -74 103z" />
<glyph unicode="&#xf3;" d="M18 724l2 22q34 332 174 478l24 24q40 48 146 96l38 16q136 56 215 56t102 1t45 1q98 0 243 -44t231 -154l20 -28q144 -180 144 -447t-49 -352t-83 -129l-40 -50q-160 -200 -532 -200t-566 270q-94 156 -112 380zM570 716q0 -352 134 -352q160 0 160 352v36 q0 304 -147 304t-147 -296v-44zM364 1562l168 286q32 54 56 76h74l110 -2q70 -6 191 -7t121 -15t-4 -22l-260 -292q-56 -66 -114 -66t-102 -2l-140 -2l-52 -2h-12q-8 2 -12 2z" />
<glyph unicode="&#xf4;" d="M18 724l2 22q34 332 174 478l24 24q40 48 146 96l38 16q136 56 215 56t102 1t45 1q98 0 243 -44t231 -154l20 -28q144 -180 144 -447t-49 -352t-83 -129l-40 -50q-160 -200 -532 -200t-566 270q-94 156 -112 380zM570 716q0 -352 134 -352q160 0 160 352v36 q0 304 -147 304t-147 -296v-44zM232 1530v28l176 246q20 24 28 42q34 52 168 58l340 4q28 -4 64 -59t48 -71l88 -126l22 -28q50 -66 50 -89t-36 -23h-130q-94 0 -238 -8q-44 22 -64 67t-30 61q-4 -4 -14 -24q-54 -96 -84 -96l-256 4l-58 -4q-74 0 -74 18z" />
<glyph unicode="&#xf5;" d="M18 724l2 22q34 332 174 478l24 24q40 48 146 96l38 16q136 56 215 56t102 1t45 1q98 0 243 -44t231 -154l20 -28q144 -180 144 -447t-49 -352t-83 -129l-40 -50q-160 -200 -532 -200t-566 270q-94 156 -112 380zM570 716q0 -352 134 -352q160 0 160 352v36 q0 304 -147 304t-147 -296v-44zM256 1526q0 348 304 348q62 0 138 -24l68 -18q32 -8 60 -16l28 -8h10q10 14 10 32l34 28l252 -4q24 0 34 -32q-14 -354 -296 -354q-92 0 -148 21t-102 35t-72 14t-27 -26t-11 -26h-4q-66 -4 -130 -4l-128 -4q-20 6 -20 38zM874 1818v2v-2z " />
<glyph unicode="&#xf6;" d="M18 724l2 22q34 332 174 478l24 24q40 48 146 96l38 16q136 56 215 56t102 1t45 1q98 0 243 -44t231 -154l20 -28q144 -180 144 -447t-49 -352t-83 -129l-40 -50q-160 -200 -532 -200t-566 270q-94 156 -112 380zM570 716q0 -352 134 -352q160 0 160 352v36 q0 304 -147 304t-147 -296v-44zM256 1550v62q0 290 36 290q164 -4 328 -4q24 -6 24 -44l-2 -44l2 -122v-154q-8 -28 -96 -28l-70 2l-190 -8q-8 12 -16 26zM800 1546q0 338 36 356q54 -4 106 -4l164 4q76 0 82 -24q4 -170 4 -340q-8 -24 -16 -24t-8 2l-332 -16l-32 40z" />
<glyph unicode="&#xf7;" horiz-adv-x="1282" d="M92 529q0 147 52 159h188l538 -10h98q98 0 196 2q18 0 18 -36l-6 -180v-60q-20 -28 -33 -28t-21 8h-2l-152 -4q-76 -4 -148 -4h-24l-678 -24q-26 30 -26 177zM484 114q0 90 47 137t95 47t77 -11t53 -31t38 -50t14 -66t-29 -102t-88 -66t-99 14q-108 38 -108 128zM488 922 q0 68 48 113t96 45q80 0 130 -42t50 -92q0 -66 -41 -124t-99 -58t-87 11t-49 33q-48 46 -48 114z" />
<glyph unicode="&#xf8;" d="M18 724l2 22q34 332 174 478l24 24q44 50 146 96l38 16q136 56 216 56t123 1t85 1t162 -38l128 234q4 6 15 6t23 -4l22 -8l26 -14q8 -4 19 -7t11 -25t-44 -104l-40 -72q-20 -36 -32 -62q76 -42 122 -104l20 -28q144 -180 144 -442t-49 -352t-83 -134l-40 -50 q-160 -200 -548 -200q-100 0 -234 38l-36 -72q-68 -134 -108 -134l-28 6h-8q-8 0 -12 4l-46 16q14 84 48 142l50 100l-100 80q-162 154 -188 470zM526 716q0 -84 12 -172l262 484q-32 28 -88 28q-186 0 -186 -292v-48zM624 382q32 -18 72 -18q200 0 200 352v36q0 80 -12 132 z" />
<glyph unicode="&#xf9;" horiz-adv-x="1450" d="M80 502l6 458v28l2 32l-4 90v34l14 -2q-18 90 -18 152t20 82h28l58 4h30q16 0 32 2h28l30 2h230q108 0 108 -20l4 -172v-168l-4 -412v-68q0 -130 75 -130t75 96l6 414v220l-2 182q0 54 26 66q514 0 521 -8t11 -10l24 -14l-4 -124q-6 -128 -7 -246t-5 -242v-62l-2 -60 q0 -34 10 -94v-32q0 -120 -36 -200v-4q-60 -142 -236 -216q-116 -56 -216 -56h-116q-16 0 -32 6l-24 -2q0 -8 -12 -8h-18l-6 -2q-52 0 -122 10l-46 4q-280 24 -390 280q-34 80 -38 190zM302 1879q0 21 24 33q216 -16 308 -16h128q44 -2 84 -64l108 -174q16 -26 26 -42 l14 -22q8 -12 14 -23t12 -21t6 -30t-32 -20h-80l-268 -8h-12q-8 0 -12 4l-144 170l-102 110q-74 82 -74 103z" />
<glyph unicode="&#xfa;" horiz-adv-x="1450" d="M80 502l6 458v28l2 32l-4 90v34l14 -2q-18 90 -18 152t20 82h28l58 4h30q16 0 32 2h28l30 2h230q108 0 108 -20l4 -172v-168l-4 -412v-68q0 -130 75 -130t75 96l6 414v220l-2 182q0 54 26 66q514 0 521 -8t11 -10l24 -14l-4 -124q-6 -128 -7 -246t-5 -242v-62l-2 -60 q0 -34 10 -94v-32q0 -120 -36 -200v-4q-60 -142 -236 -216q-116 -56 -216 -56h-116q-16 0 -32 6l-24 -2q0 -8 -12 -8h-18l-6 -2q-52 0 -122 10l-46 4q-280 24 -390 280q-34 80 -38 190zM448 1538l168 286q32 54 56 76h74l110 -2q70 -6 191 -7t121 -15t-4 -22l-260 -292 q-56 -66 -114 -66t-102 -2l-140 -2l-52 -2h-12q-8 2 -12 2z" />
<glyph unicode="&#xfb;" horiz-adv-x="1450" d="M80 502l6 458v28l2 32l-4 90v34l14 -2q-18 90 -18 152t20 82h28l58 4h30q16 0 32 2h28l30 2h230q108 0 108 -20l4 -172v-168l-4 -412v-68q0 -130 75 -130t75 96l6 414v220l-2 182q0 54 26 66q514 0 521 -8t11 -10l24 -14l-4 -124q-6 -128 -7 -246t-5 -242v-62l-2 -60 q0 -34 10 -94v-32q0 -120 -36 -200v-4q-60 -142 -236 -216q-116 -56 -216 -56h-116q-16 0 -32 6l-24 -2q0 -8 -12 -8h-18l-6 -2q-52 0 -122 10l-46 4q-280 24 -390 280q-34 80 -38 190zM226 1526v28l176 246q20 24 28 42q34 52 168 58l340 4q28 -4 64 -59t48 -71l88 -126 l22 -28q50 -66 50 -89t-36 -23h-130q-94 0 -238 -8q-44 22 -64 67t-30 61q-4 -4 -14 -24q-54 -96 -84 -96l-256 4l-58 -4q-74 0 -74 18z" />
<glyph unicode="&#xfc;" horiz-adv-x="1450" d="M80 502l6 458v28l2 32l-4 90v34l14 -2q-18 90 -18 152t20 82h28l58 4h30q16 0 32 2h28l30 2h230q108 0 108 -20l4 -172v-168l-4 -412v-68q0 -130 75 -130t75 96l6 414v220l-2 182q0 54 26 66q514 0 521 -8t11 -10l24 -14l-4 -124q-6 -128 -7 -246t-5 -242v-62l-2 -60 q0 -34 10 -94v-32q0 -120 -36 -200v-4q-60 -142 -236 -216q-116 -56 -216 -56h-116q-16 0 -32 6l-24 -2q0 -8 -12 -8h-18l-6 -2q-52 0 -122 10l-46 4q-280 24 -390 280q-34 80 -38 190zM260 1552v62q0 290 36 290q164 -4 328 -4q24 -6 24 -44l-2 -44l2 -122v-154 q-8 -28 -96 -28l-70 2l-190 -8q-8 12 -16 26zM804 1548q0 338 36 356q54 -4 106 -4l164 4q76 0 82 -24q4 -170 4 -340q-8 -24 -16 -24t-8 2l-332 -16l-32 40z" />
<glyph unicode="&#xfd;" horiz-adv-x="1366" d="M-32 1358q0 22 48 22h184q28 0 66 2h126l108 -2h18q16 -8 30 -8l26 -92q10 -42 26 -84l24 -68q8 -30 18 -57t18 -55l42 -130l142 404q4 16 12 33t13 38t107 21l40 -2h8l160 2l122 2h52q30 -2 42 -48l-16 -28v-2l-12 -26q0 -2 -2 -4l-52 -94q-26 -44 -50 -90l-18 -32h2 l-68 -132q-10 -20 -107 -203t-113 -221v-58q0 -42 1 -87l2 -90q1 -45 1 -87v-108q-8 -30 -38 -34l-128 -2h-382l-32 42q0 6 -2 12v14l2 40v292q0 30 -2 60l-122 262q-10 24 -17 36t-11 8l-24 42q-28 46 -70 138l-54 104h2q-10 16 -18 36t-12 24h2q-94 188 -94 210zM396 1548 l168 286q32 54 56 76h74l110 -2q70 -6 191 -7t121 -15t-4 -22l-260 -292q-56 -66 -114 -66t-102 -2l-140 -2l-52 -2h-12q-8 2 -12 2z" />
<glyph unicode="&#xfe;" horiz-adv-x="1366" d="M92 102v310q0 24 4 44v250l2 634v12l-2 244l-4 100q8 36 78 36h460q10 -20 10 -64v-282l224 -10h68q316 0 408 -336q12 -52 12 -140q0 -184 -200 -346q-124 -66 -296 -74l-32 -4q-24 -4 -64 -4h-96q-4 0 -10 -2q0 -262 8 -396q-6 -34 -78 -34h-472q-6 16 -10 32zM606 842 l24 -72q-2 0 -2 4q4 -2 12 -2q212 0 212 164q0 140 -218 140h-8l-10 -16v-70l-4 -34q-6 -58 -6 -82v-32z" />
<glyph unicode="&#xff;" horiz-adv-x="1366" d="M-32 1358q0 22 48 22h184q28 0 66 2h126l108 -2h18q16 -8 30 -8l26 -92q10 -42 26 -84l24 -68q8 -30 18 -57t18 -55l42 -130l142 404q4 16 12 33t13 38t107 21l40 -2h8l160 2l122 2h52q30 -2 42 -48l-16 -28v-2l-12 -26q0 -2 -2 -4l-52 -94q-26 -44 -50 -90l-18 -32h2 l-68 -132q-10 -20 -107 -203t-113 -221v-58q0 -42 1 -87l2 -90q1 -45 1 -87v-108q-8 -30 -38 -34l-128 -2h-382l-32 42q0 6 -2 12v14l2 40v292q0 30 -2 60l-122 262q-10 24 -17 36t-11 8l-24 42q-28 46 -70 138l-54 104h2q-10 16 -18 36t-12 24h2q-94 188 -94 210zM252 1548 v62q0 290 36 290q164 -4 328 -4q24 -6 24 -44l-2 -44l2 -122v-154q-8 -28 -96 -28l-70 2l-190 -8q-8 12 -16 26zM796 1544q0 338 36 356q54 -4 106 -4l164 4q76 0 82 -24q4 -170 4 -340q-8 -24 -16 -24t-8 2l-332 -16l-32 40z" />
<glyph unicode="&#x131;" horiz-adv-x="668" d="M46 84q0 160 4 312l2 208l8 394v26q0 24 20 22l76 2l50 -2l126 2l224 -4h24q16 0 16 -24v-62l2 -138q2 -68 2 -140l16 -300v-26l-2 -16l2 -34v-136q0 -192 -44 -192h-280l-40 -4h-172l-32 24z" />
<glyph unicode="&#x152;" horiz-adv-x="1992" d="M32 680q0 436 208 644q40 40 92 64l96 56q196 68 348 68t216 -6l128 -12l808 18q32 -4 32 -32l4 -386l-36 -38q-104 4 -210 4t-210 2l-4 -102l94 4h94l150 2q62 0 65 -25t3 -49l-2 -340q-4 -24 -28 -30q-188 0 -380 4v-120q24 2 48 2l300 -2h73q31 0 37 -22l-2 -384 q0 -16 -10 -16t-20 8l-898 -12l-204 -4q-252 0 -404 82q-282 106 -364 452q-24 102 -24 170zM608 648q0 -338 166 -338q102 0 158 28l16 30q-6 128 -18 756l-94 32h-44q-136 0 -176 -244q-8 -50 -8 -84v-44q2 -44 2 -78zM860 382q0 2 2 2z" />
<glyph unicode="&#x153;" horiz-adv-x="1942" d="M32 414q0 314 78 408q222 266 424 266h98q20 4 58 4h54q88 0 250 -98q146 108 374 108q554 0 554 -594l-2 -80l-30 -36l-270 2h-292q-56 2 -112 2v-16q0 -124 106 -124q38 0 66 28l20 22q8 10 24 12l72 -2l324 6q56 0 56 -29t-12 -61l-22 -48q-128 -236 -443 -236 t-431 116q-120 -106 -311 -106t-281 30q-168 52 -260 188t-92 238zM504 521q0 -291 138 -291q158 0 158 278v60q0 244 -148 244t-148 -291zM1206 680q0 -48 18 -48h32l152 -4q88 0 88 36v32q0 82 -58 111t-92 29q-62 0 -101 -54t-39 -102z" />
<glyph unicode="&#x178;" horiz-adv-x="1524" d="M-40 1478q0 28 48 28h252l312 -2q38 -6 112 -250l98 -330q52 138 96 280l92 284q6 22 158 22h20q40 -2 132 -2t180 -1t95 -10t13 -35q-32 -64 -138 -262l-356 -700q-2 -40 -2 -78v-422q-8 -32 -40 -32l-564 -4q-36 36 -36 66l2 50l2 144v72q0 230 -100 430l-226 454 q-36 74 -70 130l-36 62q-44 78 -44 106zM324 1656v62q0 290 36 290q164 -4 328 -4q24 -6 24 -44l-2 -44l2 -122v-154q-8 -28 -96 -28l-70 2l-190 -8q-8 12 -16 26zM868 1652q0 338 36 356q54 -4 106 -4l164 4q76 0 82 -24q4 -170 4 -340q-8 -24 -16 -24t-8 2l-332 -16 l-32 40z" />
<glyph unicode="&#x2c6;" horiz-adv-x="710" d="M-132 1370v28l176 246q20 24 28 42q34 52 168 58l340 4q28 -4 64 -59t48 -71l88 -126l22 -28q50 -66 50 -89t-36 -23h-130q-94 0 -238 -8q-44 22 -64 67t-30 61q-4 -4 -14 -24q-54 -96 -84 -96l-256 4l-58 -4q-74 0 -74 18z" />
<glyph unicode="&#x2da;" horiz-adv-x="598" d="M-2 1644l2 4q22 192 170 266q52 26 116 26t119 -22t97 -60t66 -92t24 -118q0 -120 -87 -206t-179 -86q-152 0 -233 86t-95 202zM180 1658q0 -80 80 -110q20 -8 40 -8q104 0 104 108q0 76 -44 94t-64 18q-100 0 -116 -102z" />
<glyph unicode="&#x2dc;" horiz-adv-x="698" d="M-134 1398q0 348 304 348q62 0 138 -24l68 -18q32 -8 60 -16l28 -8h10q10 14 10 32l34 28l252 -4q24 0 34 -32q-14 -354 -296 -354q-92 0 -148 21t-102 35t-72 14t-27 -26t-11 -26h-4q-66 -4 -130 -4l-128 -4q-20 6 -20 38zM484 1690v2v-2z" />
<glyph unicode="&#x2000;" horiz-adv-x="1124" />
<glyph unicode="&#x2001;" horiz-adv-x="2248" />
<glyph unicode="&#x2002;" horiz-adv-x="1124" />
<glyph unicode="&#x2003;" horiz-adv-x="2248" />
<glyph unicode="&#x2004;" horiz-adv-x="748" />
<glyph unicode="&#x2005;" horiz-adv-x="562" />
<glyph unicode="&#x2006;" horiz-adv-x="374" />
<glyph unicode="&#x2007;" horiz-adv-x="374" />
<glyph unicode="&#x2008;" horiz-adv-x="280" />
<glyph unicode="&#x2009;" horiz-adv-x="448" />
<glyph unicode="&#x200a;" horiz-adv-x="124" />
<glyph unicode="&#x2010;" horiz-adv-x="858" d="M36 380l2 92q2 48 2 92l-4 78q0 102 32 102h410h302q28 -4 28 -134v-214q-6 -36 -28 -36l-708 -20l-20 20q-8 8 -16 20z" />
<glyph unicode="&#x2011;" horiz-adv-x="858" d="M36 380l2 92q2 48 2 92l-4 78q0 102 32 102h410h302q28 -4 28 -134v-214q-6 -36 -28 -36l-708 -20l-20 20q-8 8 -16 20z" />
<glyph unicode="&#x2012;" horiz-adv-x="858" d="M36 380l2 92q2 48 2 92l-4 78q0 102 32 102h410h302q28 -4 28 -134v-214q-6 -36 -28 -36l-708 -20l-20 20q-8 8 -16 20z" />
<glyph unicode="&#x2013;" horiz-adv-x="1054" d="M-24 412v168q0 168 34 168l418 -4h236q116 0 236 4l44 2l56 2q58 0 62 -28q6 -116 6 -238t-32 -122h-4l-1020 -20q-36 36 -36 68z" />
<glyph unicode="&#x2014;" horiz-adv-x="2046" d="M-20 640v34q0 72 16 72q4 0 20 -6h378l1144 8l498 2q24 -4 24 -46l-4 -178l-4 -140q-4 -14 -28 -18q-222 8 -404 8h-206q-452 0 -1254 -26l-148 -6l-30 48z" />
<glyph unicode="&#x2018;" horiz-adv-x="726" d="M22 900l140 376l90 222q16 16 222 15t206 -33q0 -62 -22 -140l-18 -76q-10 -38 -18 -72l-26 -134q-28 -144 -52 -181t-180 -37h-312q-16 30 -30 60z" />
<glyph unicode="&#x2019;" horiz-adv-x="724" d="M20 876q24 96 48 188l6 30q6 32 18 80l26 106q52 218 75 223t41 5h146l140 2q168 -2 168 -18v-20q-2 0 -2 -4l-158 -454l-56 -148q-12 -26 -92 -26h-200l-50 -2l-78 2l-18 16z" />
<glyph unicode="&#x201a;" horiz-adv-x="728" d="M18 -188l78 320q40 152 80 300q8 16 24 16h16q96 -4 184 -4l120 2q168 0 168 -30v-12l-160 -456l-58 -146q-20 -26 -100 -26h-226l-72 -2q-24 0 -36 18l2 4q-8 8 -20 16z" />
<glyph unicode="&#x201c;" horiz-adv-x="1212" d="M-12 890l144 394v2l20 58q52 158 82 164h278q128 0 128 -24q0 -40 -20 -120l-16 -64q-8 -32 -14 -60l-10 -64l-34 -168q-36 -160 -58 -160l-12 2l-92 -2q-188 -4 -372 -12zM638 882l146 402v2q10 24 20 58q48 138 84 172q216 -12 312 -12t96 -14t2 -26l-54 -228l-12 -64 q-8 -40 -16 -84q-44 -240 -88 -240q-152 -8 -300 -8l-160 2z" />
<glyph unicode="&#x201d;" horiz-adv-x="1216" d="M-10 882v14q2 20 18 80l64 268q66 264 96 264l104 4l74 -2h114q192 0 192 -11t-22 -69t-60 -172l-102 -310q-30 -98 -44 -100q-116 -8 -408 -8l-16 20q-4 8 -8 12q-2 4 -2 10zM640 872l48 184q14 50 49 219t83 239q88 -2 178 -2h62q248 0 248 -36v-8l-216 -608 q-14 -28 -244 -28l-144 2h-28q-20 12 -36 38z" />
<glyph unicode="&#x201e;" horiz-adv-x="1216" d="M-16 -190l66 244l-2 2l12 64l32 128q34 136 56 184q8 16 88 16h236q180 0 180 -24v-10l-148 -430q-66 -200 -82 -200t-18 2l-322 -14q-68 0 -82 18zM552 -190l42 152q22 80 29 121t13 65l10 60q36 192 78 248l72 -4q22 -2 44 -2l44 2q24 0 48 -2l112 -2q176 0 176 -36 v-10l-218 -602q-14 -28 -172 -28l-96 2l-152 -2q-6 8 -14 18z" />
<glyph unicode="&#x2022;" horiz-adv-x="1142" d="M156 730l4 4q32 266 236 366q72 36 160 36q178 0 300 -118t122 -246q0 -208 -120 -324t-250 -116q-214 0 -324 119t-128 279z" />
<glyph unicode="&#x2026;" horiz-adv-x="2074" d="M80 28v16l4 100v52q0 244 32 244h356q150 0 150 -28l6 -294v-78q0 -58 -22 -58l-6 2q-12 0 -378 -16h-108l-32 46q-2 6 -2 14zM758 40v32q0 128 10 342q0 30 140 30h264q120 0 128 -28v-244q0 -90 4 -166q-12 -38 -190 -38h-324l-30 44q0 12 -2 28zM1434 88q0 118 10 328 q0 30 164 30l196 -2q18 -4 91 -6t81 -20l2 -208l-2 -62l4 -144q-12 -36 -280 -36l-136 2l-96 -2q-8 12 -16 22t-16 22z" />
<glyph unicode="&#x202f;" horiz-adv-x="448" />
<glyph unicode="&#x2039;" horiz-adv-x="734" d="M-12 506q0 32 38 90l34 46q20 22 32 42l18 32q10 16 22 33t24 45l70 122q72 114 102 124q46 2 82 2h202q16 2 30 2h18l28 -2q50 -4 54 -26l-214 -494l16 -34l-4 -4l120 -270q8 -20 24 -47t40 -78t24 -82t-32 -31l-56 2l-336 -10q-30 14 -72 88l-70 128l-60 96l-14 18 q-12 16 -28 36l-30 46q-62 94 -62 126z" />
<glyph unicode="&#x203a;" horiz-adv-x="730" d="M-12 -7q0 15 4 23l202 500l-14 34v2q0 2 2 1t2 3l-106 244q-8 20 -22 50l-32 62q-36 72 -36 102t72 30l276 2h34q18 -2 37 -4t31 -24l200 -330q10 -16 26 -40l34 -50q42 -68 42 -83t-10 -33t-23 -38t-27 -40t-24 -36l-232 -374q-10 -8 -22 -10l-142 -2q-56 -4 -164 -4 t-108 15z" />
<glyph unicode="&#x205f;" horiz-adv-x="562" />
<glyph unicode="&#x2074;" horiz-adv-x="1306" d="M140 174v194q8 114 148 330l212 334l8 8q22 2 43 3t41 3l64 2q108 4 210 4h138q12 0 24 -8v-40l-4 -376v-84l-2 -48q-2 -52 26 -52h64q36 0 36 -40q0 -4 -4 -4l4 -60l2 -106q0 -86 -24 -86h-98l2 -130q0 -38 -30 -38h-212q-90 0 -148 -4l-24 30v150q0 16 -28 16 q-58 0 -108 -20l-176 -4h-102q-46 0 -62 26zM430 440q8 -18 18 -36h12l186 4q16 8 20 24l-2 52v10q2 10 2 26l2 76q0 196 -12 196h-14q-14 0 -18 -6z" />
<glyph unicode="&#x20ac;" horiz-adv-x="1444" d="M-4 486q60 200 76 206h48l2 64h-54q-28 0 -48 4q-20 8 -20 24l54 190q4 14 18 18h84q74 294 290 420l62 32l102 36q26 6 58 9t64 7t62 4h50q242 0 344 -66q160 -102 197 -159t53 -131l10 -60q-4 -20 -20 -22l-460 -2q-12 8 -22 22q-44 62 -104 62q-114 0 -140 -102 l-12 -46h350q36 -6 0 -128l-24 -96q-8 -16 -18 -16h-14l-88 -4q-44 -2 -92 -2l-116 2v-56q56 4 116 4l66 -2l82 2q32 -4 32 -20v-20l-52 -192l492 -8q30 -4 30 -24v-32q0 -300 -326 -420q-166 -60 -236 -60q-192 0 -332 50l-28 8q-20 8 -32 14l-24 12l-36 24 q-192 96 -290 424h-132q-22 8 -22 30zM704 446q28 -174 116 -174q64 0 64 162l16 14q-48 0 -98 -1t-98 -1z" />
<glyph unicode="&#x2122;" horiz-adv-x="2072" d="M62 1442q0 30 12 50t106 20l158 -4l282 6q156 0 166 -21t14 -53t4 -93t-28 -75l-184 4l-2 -96l10 -540q-6 -36 -116 -36h-144q-36 0 -48 2l-14 24l-16 22v42l10 574l-100 -4q-98 0 -103 26t-5 68zM882 646v88q6 374 10 750q0 24 20 24q172 0 342 -2q26 -4 70 -156 t64 -199t32 -99l144 438q4 14 22 22l190 -2h58q110 0 110 -14l12 -856q-6 -28 -42 -28h-198q-68 0 -68 176v144l-20 -70l-20 -78q-48 -160 -90 -172t-86 -12l-118 4q-52 44 -71 128t-31 116l-22 76q-6 -216 -6 -286q-4 -30 -84 -30h-172q-48 0 -46 38z" />
<glyph unicode="&#xe000;" horiz-adv-x="1385" d="M0 1385h1385v-1385h-1385v1385z" />
<glyph unicode="&#xfb01;" horiz-adv-x="1864" d="M84 1052l4 60v240q0 32 64 32h156l156 4h306l194 -4l128 -2q26 0 26 -38l2 -140l-2 -42v-38l2 -74q0 -42 -12 -44t-34 -2h-74l-44 -4h-60l-118 -4l-58 -4h-70v-24q0 -24 4 -64q126 12 202 12h126q42 0 72 1t38 -31v-58l-4 -118v-90q2 -12 2 -28v-40q-2 -32 -38 -32h-88 l-196 -4l-80 -4h-32l6 -344l2 -82q0 -36 -44 -46h-84l-36 -2l-18 2h-368l-26 44v244l4 220l2 210q2 102 2 178l-4 78zM1192 56v152l4 76v142q0 172 6 274l2 148l4 196v308q4 20 18 36q56 -4 116 -4l38 -4q40 -4 132 -4h234q18 -4 18 -32v-672l2 -122v-56q2 -20 2 -38v-232 l4 -50v-52q0 -26 2 -48q-6 -30 -34 -30h-28q-150 -6 -200 -6h-280q-34 18 -40 18z" />
<glyph unicode="&#xfb02;" horiz-adv-x="2246" d="M84 1052l4 60v240q0 32 64 32h156l156 4h306l194 -4l128 -2q26 0 26 -38l2 -140l-2 -42v-38l2 -74q0 -42 -12 -44t-34 -2h-74l-44 -4h-60l-118 -4l-58 -4h-70v-24q0 -24 4 -64q126 12 202 12h126q42 0 72 1t38 -31v-58l-4 -118v-90q2 -12 2 -28v-40q-2 -32 -38 -32h-88 l-196 -4l-80 -4h-32l6 -344l2 -82q0 -36 -44 -46h-84l-36 -2l-18 2h-368l-26 44v244l4 220l2 210q2 102 2 178l-4 78zM1202 68v236l2 84l4 64l-2 48l10 528l-8 188q0 142 34 172q156 -4 310 -4h172l28 -4h6q20 -4 36 -42v-14l-2 -64v-44q-4 -20 -4 -40v-84q0 -10 -2 -27 t-2 -29l-2 4q-6 2 -6 4v-20l-4 -176v-86q-4 -64 -4 -128v-124q0 -34 -4 -62h444q32 0 32 -34v-232q0 -52 2 -102q-6 -36 -98 -36h-68l-262 -4h-282l-64 -2h-6l-38 -2h-198z" />
<glyph unicode="&#xfb03;" horiz-adv-x="2996" d="M2324 56v152l4 76v142q0 172 6 274l2 148l4 196v308q4 20 18 36q56 -4 116 -4l38 -4q40 -4 132 -4h234q18 -4 18 -32v-672l2 -122v-56q2 -20 2 -38v-232l4 -50v-52q0 -26 2 -48q-6 -30 -34 -30h-28q-150 -6 -200 -6h-280q-34 18 -40 18zM1210 1052l4 60v240q0 32 64 32 h156l156 4h306l194 -4l128 -2q26 0 26 -38l2 -140l-2 -42v-38l2 -74q0 -42 -12 -44t-34 -2h-74l-44 -4h-60l-118 -4l-58 -4h-70v-24q0 -24 4 -64q126 12 202 12h126q42 0 72 1t38 -31v-58l-4 -118v-90q2 -12 2 -28v-40q-2 -32 -38 -32h-88l-196 -4l-80 -4h-32l6 -344l2 -82 q0 -36 -44 -46h-84l-36 -2l-18 2h-368l-26 44v244l4 220l2 210q2 102 2 178l-4 78zM84 1052l4 60v240q0 32 64 32h156l156 4h306l194 -4l128 -2q26 0 26 -38l2 -140l-2 -42v-38l2 -74q0 -42 -12 -44t-34 -2h-74l-44 -4h-60l-118 -4l-58 -4h-70v-24q0 -24 4 -64 q126 12 202 12h126q42 0 72 1t38 -31v-58l-4 -118v-90q2 -12 2 -28v-40q-2 -32 -38 -32h-88l-196 -4l-80 -4h-32l6 -344l2 -82q0 -36 -44 -46h-84l-36 -2l-18 2h-368l-26 44v244l4 220l2 210q2 102 2 178l-4 78z" />
<glyph unicode="&#xfb04;" horiz-adv-x="3378" d="M2334 68v236l2 84l4 64l-2 48l10 528l-8 188q0 142 34 172q156 -4 310 -4h172l28 -4h6q20 -4 36 -42v-14l-2 -64v-44q-4 -20 -4 -40v-84q0 -10 -2 -27t-2 -29l-2 4q-6 2 -6 4v-20l-4 -176v-86q-4 -64 -4 -128v-124q0 -34 -4 -62h444q32 0 32 -34v-232q0 -52 2 -102 q-6 -36 -98 -36h-68l-262 -4h-282l-64 -2h-6l-38 -2h-198zM1210 1052l4 60v240q0 32 64 32h156l156 4h306l194 -4l128 -2q26 0 26 -38l2 -140l-2 -42v-38l2 -74q0 -42 -12 -44t-34 -2h-74l-44 -4h-60l-118 -4l-58 -4h-70v-24q0 -24 4 -64q126 12 202 12h126q42 0 72 1 t38 -31v-58l-4 -118v-90q2 -12 2 -28v-40q-2 -32 -38 -32h-88l-196 -4l-80 -4h-32l6 -344l2 -82q0 -36 -44 -46h-84l-36 -2l-18 2h-368l-26 44v244l4 220l2 210q2 102 2 178l-4 78zM84 1052l4 60v240q0 32 64 32h156l156 4h306l194 -4l128 -2q26 0 26 -38l2 -140l-2 -42v-38 l2 -74q0 -42 -12 -44t-34 -2h-74l-44 -4h-60l-118 -4l-58 -4h-70v-24q0 -24 4 -64q126 12 202 12h126q42 0 72 1t38 -31v-58l-4 -118v-90q2 -12 2 -28v-40q-2 -32 -38 -32h-88l-196 -4l-80 -4h-32l6 -344l2 -82q0 -36 -44 -46h-84l-36 -2l-18 2h-368l-26 44v244l4 220l2 210 q2 102 2 178l-4 78z" />
</font>
</defs>
</svg>
