<?xml version="1.0" standalone="no"?>
<!DOCTYPE svg PUBLIC "-//W3C//DTD SVG 1.1//EN" "http://www.w3.org/Graphics/SVG/1.1/DTD/svg11.dtd" >
<svg xmlns="http://www.w3.org/2000/svg">
<metadata></metadata>
<defs>
<font id="NixieOneRegular" horiz-adv-x="1171" >
<font-face units-per-em="2048" ascent="1638" descent="-410" />
<missing-glyph horiz-adv-x="573" />
<glyph horiz-adv-x="0" />
<glyph horiz-adv-x="2048" />
<glyph unicode=" "  horiz-adv-x="573" />
<glyph unicode="&#x09;" horiz-adv-x="573" />
<glyph unicode="&#xa0;" horiz-adv-x="573" />
<glyph unicode="!" horiz-adv-x="548" d="M164 82q0 47 27.5 74.5t74.5 27.5t75 -27.5t28 -74.5t-28 -74.5t-75 -27.5t-74.5 27.5t-27.5 74.5zM236 379v1024q0 31 30.5 31t30.5 -31v-1024q0 -31 -30.5 -31t-30.5 31z" />
<glyph unicode="&#x22;" horiz-adv-x="643" d="M158 973v430q0 31 30.5 31t30.5 -31v-430q0 -31 -30.5 -31t-30.5 31zM424 973v430q0 31 30.5 31t30.5 -31v-430q0 -31 -30.5 -31t-30.5 31z" />
<glyph unicode="#" horiz-adv-x="1556" d="M74 422q0 31 30 31h299l134 528h-293q-31 0 -31 30.5t31 30.5h307l92 367q8 25 29 25q4 0 8 -2q31 -6 22 -37l-88 -353h490l92 367q8 25 29 25q4 0 8 -2q31 -6 22 -37l-88 -353h285q31 0 31 -30.5t-31 -30.5h-301l-131 -528h293q31 0 30.5 -31t-30.5 -31h-309l-91 -366 q-8 -25 -28 -25q-4 0 -8 2q-31 6 -23 37l88 352h-491l-91 -366q-8 -25 -28 -25q-4 0 -8 2q-31 6 -23 37l88 352h-285q-30 0 -30 31zM467 453h489l134 528h-492z" />
<glyph unicode="$" horiz-adv-x="1277" d="M123 31v389q0 31 31 31t30 -31v-154q55 -63 131 -112q66 -43 158 -78q59 -23 133 -31v664q-76 20 -147 43q-82 27 -152 61q-84 41 -134 108.5t-50 174.5q0 70 24.5 134t80 114.5t145.5 80t221 29.5h12v113q0 31 31 30.5t31 -30.5v-117q39 -6 75 -14q72 -18 129.5 -45 t100.5 -57.5t69 -53.5q20 -16 26.5 -6t6.5 26v103q0 31 31 31t31 -31v-389q0 -31 -31 -31t-31 31v143q-55 63 -129 117q-63 45 -153 82q-57 25 -125 33v-625q6 -2 14 -4q86 -23 169 -48.5t153 -60.5q84 -41 134 -108.5t50 -173.5q0 -84 -33 -156t-95.5 -124t-156.5 -80.5 t-217 -28.5h-18v-113q0 -31 -31 -31t-31 31v117q-43 4 -84 14q-74 18 -133 46t-102 57.5t-70 52.5q-20 16 -26.5 6t-6.5 -27v-102q0 -31 -30 -31q-31 0 -31 31zM184 1096q0 -80 50.5 -139.5t127.5 -94.5q68 -30 150 -55q47 -12 94 -27v613h-12q-111 0 -188.5 -25t-127 -66.5 t-72 -95t-22.5 -110.5zM668 41h18q111 0 194 25.5t138 69.5t81.5 103.5t26.5 129.5q0 80 -50 139t-128 94q-68 31 -151 53q-63 18 -129 37v-651z" />
<glyph unicode="%" horiz-adv-x="1605" d="M76 1105.5q0 147.5 96 248t241.5 100.5t242 -100.5t96.5 -248t-96.5 -247.5t-242 -100t-241.5 100t-96 247.5zM137 1106q0 -123 80 -205t196.5 -82t196.5 82t80 205t-80 205t-196.5 82t-196.5 -82t-80 -205zM324 29q0 8 8 18l887 1370q10 14 24 15q8 0 17 -5 q29 -20 8 -41l-885 -1372q-16 -23 -41 -10q-18 10 -18 25zM854 327.5q0 147.5 96.5 248t241.5 100.5t241.5 -100.5t96.5 -248t-96.5 -247.5t-241.5 -100t-241.5 100t-96.5 247.5zM915 328q0 -123 80 -205t197 -82t196.5 82t79.5 205t-79.5 204.5t-196.5 81.5t-197 -81.5 t-80 -204.5z" />
<glyph unicode="&#x26;" horiz-adv-x="1431" d="M92 348q0 156 104.5 259.5t297.5 148.5q31 10 2 43q-72 86 -120 169t-48 179q0 141 98 224t270 83q117 0 210 -55.5t147 -141.5q14 -23 -15 -38q-23 -14 -43 12q-59 76 -128.5 119t-170.5 43q-141 0 -224 -71t-83 -175q0 -23 5 -51.5t21.5 -66.5t47.5 -85t82 -104 l434 -492q18 -20 33 0l241 365q18 23 43 6q27 -16 7 -43l-248 -371q-16 -23 4 -45l147 -168q27 -31 51 -31h136q31 0 30 -30q0 -31 -30 -31h-164q-27 0 -53 31l-154 174q-23 20 -37 0q-195 -246 -493 -246q-174 0 -287 107q-113 106 -113 282zM154 348q0 -145 94 -237 q96 -90 244 -91q266 0 448 228q12 14 12 26q0 10 -10 21l-356 401q-8 14 -31 15q-4 0 -20 -4q-381 -103 -381 -359z" />
<glyph unicode="'" horiz-adv-x="376" d="M158 973v430q0 31 30.5 31t30.5 -31v-430q0 -31 -30.5 -31t-30.5 31z" />
<glyph unicode="(" horiz-adv-x="575" d="M156 532v205q0 260 75.5 483.5t190.5 360.5q23 25 45 8q25 -23 6 -41q-111 -133 -183.5 -342t-72.5 -469v-205q0 -260 72.5 -471t183.5 -340q18 -18 -6 -40q-23 -16 -45 8q-115 137 -190.5 360t-75.5 483z" />
<glyph unicode=")" horiz-adv-x="575" d="M94 -295q0 8 8 16q111 129 183.5 340t72.5 471v205q0 260 -72.5 469t-183.5 342q-8 8 -8 17q0 12 15 24q8 6 18 6l27 -14q115 -137 190.5 -360.5t75.5 -483.5v-205q0 -260 -76 -483t-190 -360q-14 -14 -27 -15l-18 7q-14 12 -15 24z" />
<glyph unicode="*" horiz-adv-x="917" d="M137 938q0 14 19 25l219 124q10 4 10 13.5t-10 15.5l-219 125q-18 10 -19 25q0 8 6 18q14 27 43 10l209 -123q33 -18 33 17v215q0 31 30.5 31t30.5 -31v-215q0 -35 33 -17l209 123q29 16 43 -10q6 -10 6 -18q0 -14 -18 -25l-219 -125q-10 -6 -10.5 -15t10.5 -14l219 -124 q18 -10 18 -25q0 -8 -6 -18q-14 -27 -43 -11l-209 121q-33 18 -33 -16v-205q0 -31 -30.5 -31t-30.5 31v205q0 35 -33 16l-209 -121q-29 -16 -43 11q-6 10 -6 18z" />
<glyph unicode="+" horiz-adv-x="1026" d="M82 655.5q0 30.5 31 30.5h327q31 0 31 31v338q0 31 30.5 30.5t30.5 -30.5v-338q0 -31 31 -31h348q31 0 31 -30.5t-31 -30.5h-348q-31 0 -31 -31v-338q0 -31 -30.5 -31t-30.5 31v338q0 31 -31 31h-327q-31 0 -31 30.5z" />
<glyph unicode="," horiz-adv-x="495" d="M145 82q0 47 28 74.5t75 27.5q102 0 102 -123v-30q0 -106 -41 -181t-112 -106q-12 -6 -21 -6q-14 0 -24 14q-14 27 12 39q125 55 125 189v16q-27 -16 -51 -16q-39 0 -66 27.5t-27 74.5z" />
<glyph unicode="-" d="M156 655.5q0 30.5 30 30.5h799q31 0 31 -30.5t-31 -30.5h-799q-30 0 -30 30.5z" />
<glyph unicode="." horiz-adv-x="495" d="M145 82q0 47 28 74.5t75 27.5t74.5 -27.5t27.5 -74.5t-27.5 -74.5t-74.5 -27.5t-75 27.5t-28 74.5z" />
<glyph unicode="/" horiz-adv-x="1060" d="M53 29q0 8 8 18l887 1370q10 14 25 15q8 0 16 -5q16 -12 17 -24q0 -8 -9 -17l-884 -1372q-10 -14 -25 -14q-8 0 -16 4q-18 10 -19 25z" />
<glyph unicode="0" horiz-adv-x="1339" d="M127 717q0 348 154.5 542.5t388 194.5t388 -194.5t154.5 -542.5t-154.5 -542.5t-388 -194.5t-388 194.5t-154.5 542.5zM188 716.5q0 -321.5 138.5 -498.5t343 -177t343 177t138.5 498.5t-138.5 499t-343 177.5t-343 -177.5t-138.5 -499z" />
<glyph unicode="1" horiz-adv-x="708" d="M53 1161q0 12 15 23l262 219q43 31 55 31q41 0 41 -31v-1311q0 -31 31 -31h143q31 0 31 -30.5t-31 -30.5h-410q-31 0 -30.5 30.5t30.5 30.5h144q31 0 31 31v1239q0 6 -4.5 8t-10.5 0t-14 -8l-227 -194q-23 -23 -46 2q-10 12 -10 22z" />
<glyph unicode="2" horiz-adv-x="1218" d="M123 31v112q0 119 92 222q47 51 104.5 95t122.5 79l263 145q131 70 225 168q94 96 94 213q0 131 -111 229t-299 99q-125 0 -242.5 -47.5t-205.5 -139.5q-23 -23 -43 0q-23 20 0 43q98 96 219.5 150.5t271.5 54.5q217 0 344 -117t127 -272q0 -131 -94 -238 q-92 -106 -225 -184l-262 -143q-66 -35 -123 -76t-105 -86q-92 -90 -92 -195v-51q0 -31 31 -31h778q31 0 31 31v225q0 31 31 31t30 -31v-286q0 -31 -30 -31h-901q-31 0 -31 31z" />
<glyph unicode="3" horiz-adv-x="1230" d="M123 184q-23 20 0 43q12 12 22.5 11.5t20.5 -11.5q88 -92 205.5 -139t242.5 -47q203 0 316.5 93t113.5 255q0 154 -96 241t-252 87h-215q-31 0 -30 31q0 31 30 30h174q82 0 146.5 22.5t109.5 61.5t69 93.5t24 119.5q0 68 -28 126.5t-80 100t-127 66.5t-171 25 q-117 0 -222.5 -48.5t-185.5 -117.5q-23 -20 -43 0q-23 23 0 43q90 78 200 131t251 53q219 0 344 -108q123 -109 123 -271q0 -246 -256 -323q143 -25 220 -123.5t77 -239.5q0 -92 -34 -168t-98.5 -130t-155.5 -82.5t-204 -28.5q-150 0 -271.5 54t-219.5 150z" />
<glyph unicode="4" horiz-adv-x="1183" d="M29 373q0 10 6 22q182 272 225 353q137 260 154 604q2 55 2 112q0 31 30.5 31t30.5 -31q0 -182 -23.5 -328.5t-75.5 -271.5t-103.5 -213t-139.5 -211q-14 -31 23 -30h678q31 0 30 30v586q0 31 31 31t31 -31v-586q0 -31 30 -30h164q31 0 31 -31t-31 -31h-164 q-31 0 -30 -31v-307q0 -31 -31 -30.5t-31 30.5v307q0 31 -30 31h-779q-18 0 -24 14q-4 4 -4 11z" />
<glyph unicode="5" d="M143 768v635q0 31 31 31h799q31 0 31 -31t-31 -31h-737q-31 0 -31 -31v-481q0 -41 31 -24q162 86 344 86q242 0 368.5 -121t126.5 -330q0 -258 -248 -395t-643 -137q-31 0 -30 30q0 31 30 31q227 0 408.5 47t300.5 158q121 109 121 266q0 180 -111.5 284.5t-322.5 104.5 q-215 0 -375 -110q-29 -12 -33 -13q-29 0 -29 31z" />
<glyph unicode="6" horiz-adv-x="1222" d="M117 614q0 365 227 623t592 258q31 0 31 -31t-31 -30q-330 0 -545 -242q-47 -53 -84 -109.5t-55 -109.5q-10 -31 27 -31h315q129 0 230.5 -34t172 -96t107.5 -151.5t37 -199.5q0 -215 -131 -346q-133 -135 -351 -135q-244 0 -393 165q-150 168 -149 469zM178 614 q0 -274 131 -424t350 -149q98 0 176 29.5t132.5 85t83 132.5t28.5 173q0 199 -124 309.5t-371 110.5h-334q-29 0 -41 -31q-6 -20 -12.5 -54t-10.5 -70t-6 -66.5t-2 -45.5z" />
<glyph unicode="7" horiz-adv-x="954" d="M0 1116v287q0 31 31 31h901q18 0 24 -13q4 -6 5 -12q0 -10 -7 -23l-151 -253q-55 -96 -136 -256t-125 -281t-78 -273.5t-34 -291.5q0 -31 -30.5 -31t-30.5 31q0 532 493 1310q14 31 -22 31h-748q-31 0 -31 -31v-225q0 -31 -30.5 -31t-30.5 31z" />
<glyph unicode="8" horiz-adv-x="1318" d="M117 348q0 49 13 92t29.5 73t55.5 60.5t62.5 47t80 42t80 34t88.5 32.5q25 10 0 21q-66 27 -104.5 45t-90.5 51t-81 66.5t-50.5 84t-21.5 109.5q0 154 126 251t355.5 97t355.5 -97t126 -251q0 -59 -21.5 -109.5t-50.5 -84t-81 -66.5t-91 -51.5t-104 -44.5q-25 -10 0 -21 q205 -78 268 -123q141 -94 141 -258q0 -160 -152.5 -264t-390 -104t-390 104t-152.5 264zM178 348q0 -137 133 -222t348 -85t348.5 85t133.5 222q0 33 -8.5 62.5t-18.5 52t-35 47.5l-41 39q-16 14 -53 33.5t-56.5 29t-65.5 26.5t-64 24l-70 22q-53 16 -70 23q-16 -6 -69 -23 l-70 -22q-18 -6 -64 -23.5t-65.5 -27t-56.5 -29t-53 -33.5l-41 -39q-25 -25 -35 -47.5t-18.5 -52t-8.5 -62.5zM240 1106q0 -57 25.5 -104.5t60 -79t98 -62.5t110 -47t125.5 -41q80 25 125 41t109.5 48t98.5 62.5t60.5 78t26.5 104.5q0 129 -106.5 208t-313 79t-313 -79 t-106.5 -208z" />
<glyph unicode="9" horiz-adv-x="1222" d="M82 973q0 213 131 346q131 135 350 135q242 0 393 -166q150 -168 150 -469q0 -365 -227 -622q-227 -258 -592 -258q-31 0 -31 30q0 31 31 31q330 0 544 242q47 53 84.5 109.5t55.5 109.5q6 16 -2 23.5t-25 7.5h-315q-129 0 -230.5 33.5t-172 96t-107.5 151.5t-37 200z M143 973q0 -197 124 -308.5t372 -111.5h334q29 0 41 31q6 18 12 53t10 70.5t6 66.5t2 45q0 274 -131 424t-350 150q-98 0 -176 -30t-132 -85t-83 -133t-29 -172z" />
<glyph unicode=":" horiz-adv-x="516" d="M156 82q0 47 27.5 74.5t74.5 27.5t74.5 -27.5t27.5 -74.5t-27.5 -74.5t-74.5 -27.5t-74.5 27.5t-27.5 74.5zM156 942q0 47 27.5 74.5t74.5 27.5t74.5 -27.5t27.5 -74.5t-27.5 -74.5t-74.5 -27.5t-74.5 27.5t-27.5 74.5z" />
<glyph unicode=";" horiz-adv-x="516" d="M156 82q0 47 27.5 74.5t74.5 27.5q102 0 102 -123v-30q0 -106 -40.5 -181t-112.5 -106q-12 -6 -21 -6q-14 0 -24 14q-14 27 12 39q125 55 125 189v16q-27 -16 -51 -16q-39 0 -65.5 27.5t-26.5 74.5zM156 942q0 47 27.5 74.5t74.5 27.5t74.5 -27.5t27.5 -74.5t-27.5 -74.5 t-74.5 -27.5t-74.5 27.5t-27.5 74.5z" />
<glyph unicode="&#x3c;" horiz-adv-x="1021" d="M68 510.5q0 21.5 20 34.5l770 442q10 8 19 8q14 0 24 -18q6 -10 6 -21q0 -14 -16 -22l-703 -406q-29 -18 0 -36l703 -404q16 -12 16 -25q0 -8 -6 -18q-10 -18 -24 -18q-8 0 -19 8l-768 442q-22 12 -22 33.5z" />
<glyph unicode="=" horiz-adv-x="1187" d="M164 450.5q0 30.5 31 30.5h798q31 0 31 -30.5t-31 -30.5h-798q-31 0 -31 30.5zM164 860q0 31 31 31h798q31 0 31 -31t-31 -31h-798q-31 0 -31 31z" />
<glyph unicode="&#x3e;" horiz-adv-x="1021" d="M115 63q0 12 16 25l703 404q27 18 0 36l-703 406q-16 8 -16 22q0 10 6 21q10 18 24 18q8 0 19 -8l770 -442q20 -12 20 -34t-22 -34l-768 -442q-10 -8 -19 -8q-14 0 -24 18q-6 10 -6 18z" />
<glyph unicode="?" horiz-adv-x="1110" d="M72 1044q0 186 126 298t345 112q217 0 344 -116.5t127 -272.5q0 -109 -45 -188.5t-109 -128.5l-131 -97q-66 -47 -111 -114.5t-45 -157.5q0 -31 -30.5 -31t-30.5 31q0 88 33 157.5t82 110.5l106 86l105 84q49 39 81.5 103.5t32.5 144.5q0 131 -110.5 229.5t-298.5 98.5 q-190 0 -300 -93.5t-110 -255.5q0 -31 -30.5 -31t-30.5 31zM440 82q0 47 28 74.5t75 27.5t74.5 -27.5t27.5 -74.5t-27.5 -74.5t-74.5 -27.5t-75 27.5t-28 74.5z" />
<glyph unicode="@" horiz-adv-x="1888" d="M104 532.5q0 401.5 246 661.5t604 260q356 0 603 -260t247 -662q0 -252 -84 -402t-219 -150q-164 0 -219 163q-12 43 -33 21q-164 -184 -346 -184t-311 139t-129 393t129 393t311 139t346 -184q16 -16 24.5 -8t8.5 29v112q0 31 30.5 31t30.5 -31v-768q0 -90 42 -137 t116 -47q106 0 174 135t68 356q0 379 -226.5 620t-562.5 241t-562 -241t-226 -619.5t226 -619.5t562 -241q344 0 510 187q23 23 43.5 0t-0.5 -43q-188 -205 -553 -205q-358 0 -604 260t-246 661.5zM524 512q0 -231 109.5 -351t269.5 -120q154 0 281 143q57 66 98 144v368 q-41 78 -98 144q-127 143 -281 143q-160 0 -269.5 -120t-109.5 -351z" />
<glyph unicode="A" horiz-adv-x="1482" d="M-20 29q0 33 30 32h133q25 0 41 31l512 1331q4 14 17.5 22.5t28 8.5t27.5 -8t17 -23l512 -1331q14 -31 41 -31h134q31 0 30 -30q0 -31 -30 -31h-390q-31 0 -30 31q0 31 30 30h123q35 0 21 31l-146 379q-12 29 -49 29h-581q-37 0 -50 -29l-145 -379q-16 -31 20 -31h123 q31 0 31 -30q0 -31 -31 -31h-389q-30 0 -30 29zM444 576q0 -15 27 -15h541q26 0 26 16q0 6 -4 15l-280 729q-4 12 -12.5 12t-12.5 -12l-280 -729q-5 -9 -5 -16z" />
<glyph unicode="B" horiz-adv-x="1333" d="M94 31q0 31 31 30h143q31 0 31 31v1249q0 31 -31 31h-143q-31 0 -31 31t31 31h625q164 0 266 -103q102 -102 102 -256q0 -217 -194 -309q147 -29 222 -128t75 -249q0 -180 -101.5 -284.5t-288.5 -104.5h-706q-31 0 -31 31zM360 92q0 -31 31 -31h440q154 0 241 87.5 t87 240.5q0 154 -87 241t-241 87h-440q-31 0 -31 -31v-594zM360 809q0 -31 31 -31h369q129 0 213 86q84 88 84 211q0 131 -83 214t-224 83h-359q-31 0 -31 -31v-532z" />
<glyph unicode="C" horiz-adv-x="1423" d="M119 717q0 319 180 526q180 211 465 211q248 0 448 -174q33 -27 33 20v103q0 31 31 31t31 -31v-389q0 -31 -31 -31t-31 31v143q-55 63 -129 117q-168 119 -352 119q-252 0 -418 -193q-166 -195 -166 -483q0 -295 172 -486q172 -190 453 -190q141 0 261 47t208 139 q20 20 43 0q10 -12 10 -22.5t-10 -20.5q-98 -96 -222 -150t-290 -54q-309 0 -498 206q-188 212 -188 531z" />
<glyph unicode="D" horiz-adv-x="1503" d="M94 30.5q0 30.5 31 30.5h143q31 0 31 31v1249q0 31 -31 31h-143q-31 0 -31 31t31 31h573q309 0 497.5 -205t188.5 -512t-188 -512t-498 -205h-573q-31 0 -31 30.5zM360 92q0 -31 31 -31h307q279 0 452 186.5t173 469t-173 469t-452 186.5h-307q-31 0 -31 -31v-1249z" />
<glyph unicode="E" horiz-adv-x="1257" d="M94 30.5q0 30.5 31 30.5h143q31 0 31 31v1249q0 31 -31 31h-143q-31 0 -31 31t31 31h973q31 0 30 -31v-287q0 -31 -30.5 -31t-30.5 31v225q0 31 -31 31h-645q-31 0 -31 -31v-553q0 -31 31 -30h461q31 0 31 30v103q0 31 30.5 31t30.5 -31v-328q0 -31 -30.5 -31t-30.5 31 v103q0 31 -31 30h-461q-31 0 -31 -30v-574q0 -31 31 -31h666q31 0 30 31v225q0 31 31 31t31 -31v-286q0 -31 -31 -31h-993q-31 0 -31 30.5z" />
<glyph unicode="F" horiz-adv-x="1200" d="M94 30.5q0 30.5 31 30.5h143q31 0 31 31v1249q0 31 -31 31h-143q-31 0 -31 31t31 31h973q31 0 30 -31v-287q0 -31 -30.5 -31t-30.5 31v225q0 31 -31 31h-645q-31 0 -31 -31v-553q0 -31 31 -30h481q31 0 31 30v103q0 31 31 31t31 -31v-328q0 -31 -31 -31t-31 31v103 q0 31 -31 30h-481q-31 0 -31 -30v-574q0 -31 31 -31h164q31 0 31 -30.5t-31 -30.5h-430q-31 0 -31 30.5z" />
<glyph unicode="G" horiz-adv-x="1564" d="M119 717q0 317 181 527t464 210q246 0 448 -174q33 -29 33 20v103q0 31 31 31t31 -31v-389q0 -31 -31 -31t-31 31v143q-55 63 -129 117q-168 119 -352 119q-252 0 -418 -192.5t-166 -483.5q0 -293 169 -484.5t435 -191.5q176 0 334 117q59 43 127 118v390q0 31 -31 30 h-122q-31 0 -31 31t31 31h389q31 0 31 -30q0 -32 -31 -32h-144q-31 0 -30 -30v-635q0 -31 -31 -31t-31 31v102q0 49 -33 21q-203 -174 -428 -174q-297 0 -481 209t-184 528z" />
<glyph unicode="H" horiz-adv-x="1601" d="M94 31q0 31 31 30h143q31 0 31 31v1249q0 31 -31 31h-143q-31 0 -31 31t31 31h389q31 0 31 -31t-31 -31h-123q-31 0 -31 -31v-553q0 -31 31 -30h819q31 0 31 30v553q0 31 -31 31h-123q-31 0 -30 31q0 31 30 31h390q30 0 30 -29q0 -33 -30 -33h-144q-31 0 -30 -31v-1249 q0 -31 30 -31h144q31 0 30 -30q0 -31 -30 -31h-390q-31 0 -30 31q0 31 30 30h123q31 0 31 31v574q0 31 -31 30h-819q-31 0 -31 -30v-574q0 -31 31 -31h123q31 0 31 -30q0 -31 -31 -31h-389q-31 0 -31 31z" />
<glyph unicode="I" horiz-adv-x="659" d="M94 30.5q0 30.5 31 30.5h143q31 0 31 31v1249q0 31 -31 31h-143q-31 0 -31 31t31 31h410q31 0 31 -30q0 -32 -31 -32h-144q-31 0 -31 -31v-1249q0 -31 31 -31h144q31 0 31 -30q0 -31 -31 -31h-410q-31 0 -31 30.5z" />
<glyph unicode="J" horiz-adv-x="1034" d="M36 191q0 13 19 24q23 14 43 -12q59 -76 129 -119t170 -43q135 0 221.5 88t86.5 250v962q0 31 -31 31h-144q-31 0 -30 31q0 31 30 31h410q31 0 31 -31t-31 -31h-143q-31 0 -31 -31v-962q0 -190 -101.5 -294.5t-267.5 -104.5q-117 0 -210 55t-146 141q-5 8 -5 15z" />
<glyph unicode="K" horiz-adv-x="1425" d="M94 30.5q0 30.5 31 30.5h143q31 0 31 31v1249q0 31 -31 31h-143q-31 0 -31 31t31 31h389q31 0 31 -31t-31 -31h-123q-31 0 -31 -31v-757l697 757q12 10 9 20.5t-19 10.5h-134q-31 0 -30.5 31t30.5 31h420q31 0 31 -31t-31 -31h-131q-23 0 -53 -31l-473 -514l534 -735 q27 -31 52 -31h133q31 0 31 -30q0 -31 -31 -31h-410q-31 0 -31 30.5t31 30.5h133q37 0 10 31l-497 686l-271 -295v-391q0 -31 31 -31h123q31 0 31 -30.5t-31 -30.5h-389q-31 0 -31 30.5z" />
<glyph unicode="L" horiz-adv-x="1183" d="M94 30.5q0 30.5 31 30.5h143q31 0 31 31v1249q0 31 -31 31h-143q-31 0 -31 31t31 31h450q31 0 31 -31t-31 -31h-184q-31 0 -31 -31v-1249q0 -31 31 -31h656q31 0 30 31v225q0 31 31 31t31 -31v-286q0 -31 -31 -31h-983q-31 0 -31 30.5z" />
<glyph unicode="M" horiz-adv-x="1990" d="M94 30.5q0 30.5 31 30.5h143q31 0 31 31v1249q0 31 -31 31h-143q-31 0 -31 31t31 31h225q37 0 51 -31l574 -1270q20 -41 41 0l573 1270q14 31 51 31h226q31 0 31 -30q0 -32 -31 -32h-144q-31 0 -30 -31v-1249q0 -31 30 -31h144q31 0 31 -30q0 -31 -31 -31h-389 q-31 0 -31 30.5t31 30.5h122q31 0 31 31v1198q0 10 -3 14.5t-6 3.5t-7 -8l-574 -1269q-16 -31 -44.5 -31t-45.5 31l-573 1269q-4 6 -7 7.5t-6.5 -3t-3.5 -14.5v-1198q0 -31 31 -31h123q31 0 31 -30.5t-31 -30.5h-389q-31 0 -31 30.5z" />
<glyph unicode="N" horiz-adv-x="1607" d="M94 30.5q0 30.5 31 30.5h143q31 0 31 31v1249q0 31 -31 31h-143q-31 0 -31 31t31 31h225q33 0 51 -31l840 -1280q4 -8 12.5 -7t8.5 17v1208q0 31 -31 31h-123q-31 0 -31 31t31 31h389q31 0 31 -31t-31 -31h-143q-31 0 -31 -31v-1249q0 -31 31 -31h143q31 0 31 -30.5 t-31 -30.5h-225q-33 0 -51 31l-840 1280q-4 8 -12.5 7t-8.5 -18v-1208q0 -31 31 -31h123q31 0 31 -30.5t-31 -30.5h-389q-31 0 -31 30.5z" />
<glyph unicode="O" horiz-adv-x="1609" d="M119 716.5q0 321.5 188.5 529.5t497.5 208t497.5 -208t188.5 -529.5t-188.5 -529t-497.5 -207.5t-497.5 207.5t-188.5 529zM180 717q0 -295 172 -485.5t452.5 -190.5t453 190.5t172.5 485.5t-172.5 485.5t-453 190.5t-452.5 -190.5t-172 -485.5z" />
<glyph unicode="P" horiz-adv-x="1296" d="M94 31q0 31 31 30h143q31 0 31 31v1249q0 31 -31 31h-143q-31 0 -31 31t31 31h686q203 0 306.5 -110t103.5 -320q0 -211 -103.5 -321t-306.5 -110h-420q-31 0 -31 -30v-451q0 -31 31 -31h164q31 0 31 -30q0 -31 -31 -31h-430q-31 0 -31 31zM360 666q0 -31 31 -31h420 q348 0 348 369q0 368 -346 368h-2h-420q-31 0 -31 -31v-675z" />
<glyph unicode="Q" horiz-adv-x="1611" d="M119 717q0 322 188 528q186 209 498 209q309 0 498 -209q188 -207 188 -528q0 -264 -129 -457q-127 -190 -352 -252q20 -59 55 -95t82 -36q35 0 64.5 10.5t45.5 22.5q29 20 46 -4q18 -25 -7 -43q-23 -16 -65.5 -31.5t-83.5 -15.5q-72 0 -120 45t-81 131q-66 -12 -141 -12 q-309 0 -498 206q-188 211 -188 531zM180 717q0 -295 172 -486q109 -121 258 -163q29 86 76 131t119 45t116 -46t72 -132q154 43 264 165q173 191 173 486t-173 485q-172 190 -452 191q-281 0 -453 -191q-172 -190 -172 -485zM674 51q31 -4 63.5 -7t67.5 -3q33 0 63.5 2 t61.5 8q-37 131 -125 131q-94 0 -131 -131z" />
<glyph unicode="R" horiz-adv-x="1409" d="M94 31q0 31 31 30h143q31 0 31 31v1249q0 31 -31 31h-143q-31 0 -31 31t31 31h686q199 0 304.5 -102.5t105.5 -287.5q0 -184 -105.5 -286.5t-304.5 -102.5h-10q-16 0 -23.5 -9t2.5 -21l389 -533q27 -31 52 -31h133q31 0 30 -30q0 -31 -30 -31h-410q-31 0 -31 31t31 30 h133q37 0 10 31l-409 563h-287q-31 0 -31 -30v-533q0 -31 31 -31h123q31 0 31 -30q0 -31 -31 -31h-389q-31 0 -31 31zM360 748q0 -31 31 -31h420q168 0 258 86t90 241q0 156 -90 242t-258 86h-420q-31 0 -31 -31v-593z" />
<glyph unicode="S" horiz-adv-x="1320" d="M143 31v389q0 31 31 31t31 -31v-154q55 -63 131 -112q66 -43 158 -78t213 -35q111 0 193.5 25.5t138 69.5t82 103.5t26.5 129.5q0 80 -50 139t-128 94q-68 31 -151 54.5t-169 47t-169 49t-152 60.5q-84 41 -134.5 108.5t-50.5 174.5q0 70 25 134t80 114.5t145 80 t221 29.5q80 0 151 -18.5t128 -45t100 -57t70 -53.5q20 -16 26.5 -6t6.5 26v103q0 31 30 31q31 0 31 -31v-389q0 -31 -31 -31t-30 31v143q-55 63 -129 117q-63 45 -152.5 82t-200.5 37t-188.5 -25t-126.5 -66.5t-71.5 -95t-22.5 -110.5q0 -80 50 -139.5t128 -94.5 q68 -31 150.5 -54.5t168.5 -47t169 -49t153 -60.5q84 -41 134 -108.5t50 -173.5q0 -84 -32.5 -156t-95 -124t-157 -80.5t-216.5 -28.5q-88 0 -163 18t-134.5 46t-102.5 57.5t-69 52.5q-20 16 -26.5 6t-6.5 -27v-102q0 -31 -31 -31t-31 31z" />
<glyph unicode="T" horiz-adv-x="1265" d="M53 1106v297q0 31 31 31h1106q31 0 31 -31v-297q0 -31 -31 -31t-31 31v235q0 31 -31 31h-430q-31 0 -30 -31v-1249q0 -31 30 -31h144q31 0 30.5 -30.5t-30.5 -30.5h-410q-31 0 -31 30.5t31 30.5h143q31 0 31 31v1249q0 31 -31 31h-430q-31 0 -30 -31v-235q0 -31 -31 -31 t-31 31z" />
<glyph unicode="U" horiz-adv-x="1589" d="M57 1403q0 31 31 31h389q31 0 31 -31t-31 -31h-123q-31 0 -30 -31v-829q0 -213 133 -342t337.5 -129t338 129t133.5 342v829q0 31 -31 31h-123q-31 0 -31 31t31 31h389q31 0 31 -31t-31 -31h-143q-31 0 -31 -31v-829q0 -236 -150.5 -384t-382 -148t-382 148t-150.5 384 v829q0 31 -31 31h-143q-31 0 -31 31z" />
<glyph unicode="V" horiz-adv-x="1482" d="M-21 1403q0 31 31 31h389q31 0 31 -31t-31 -31h-123q-35 0 -20 -31l473 -1228q4 -12 12.5 -12.5t12.5 12.5l473 1228q14 31 -21 31h-123q-31 0 -30.5 31t30.5 31h390q31 0 31 -30q0 -32 -31 -32h-134q-25 0 -41 -31l-512 -1331q-8 -31 -43 -31l-1 1q-36 0 -46 30 l-512 1331q-16 31 -41 31h-133q-31 0 -31 31z" />
<glyph unicode="W" horiz-adv-x="2074" d="M-21 1403q0 31 31 31h389q31 0 31 -31t-31 -31h-123q-35 0 -20 -31l367 -1183q4 -12 12 -12.5t12 12.5l350 1245q10 31 41 31t41 -31l348 -1245q4 -12 12.5 -12.5t12.5 12.5l367 1183q16 31 -21 31h-123q-31 0 -30.5 31t30.5 31h389q31 0 31 -31t-31 -31h-133 q-31 0 -41 -31l-411 -1331q-8 -31 -38 -31l-1 1q-31 0 -39 30l-350 1250q-4 12 -14.5 12t-14.5 -12l-348 -1250q-10 -31 -38 -31l-1 1q-29 0 -39 30l-412 1331q-8 31 -41 31h-133q-31 0 -31 31z" />
<glyph unicode="X" horiz-adv-x="1353" d="M14 30.5q0 30.5 31 30.5h123q33 0 51 31l410 621q12 18 0 37l-389 591q-18 31 -52 31h-122q-31 0 -31 31t31 31h389q31 0 30.5 -31t-30.5 -31h-123q-16 0 -22.5 -9t1.5 -22l351 -532q14 -20 28 0l352 532q8 12 2 21.5t-22 9.5h-123q-31 0 -31 31t31 31h389q31 0 31 -31 t-31 -31h-123q-33 0 -51 -31l-389 -591q-12 -18 0 -37l410 -621q18 -31 51 -31h123q31 0 31 -30q0 -31 -31 -31h-389q-31 0 -31 30.5t31 30.5h122q16 0 22.5 9.5t-1.5 21.5l-373 563q-14 20 -28 0l-371 -563q-8 -12 -2 -21.5t22 -9.5h123q31 0 31 -30.5t-31 -30.5h-389 q-31 0 -31 30.5z" />
<glyph unicode="Y" horiz-adv-x="1284" d="M-21 1403q0 31 31 31h389q31 0 31 -31t-31 -31h-123q-16 0 -22 -9t2 -22l371 -647q14 -20 28 0l373 647q8 12 2 21.5t-22 9.5h-123q-31 0 -31 31t31 31h389q31 0 31 -31t-31 -31h-123q-33 0 -51 -31l-426 -739v-510q0 -31 31 -31h143q31 0 31 -30.5t-31 -30.5h-410 q-31 0 -30.5 30.5t30.5 30.5h144q31 0 30 31v506l-428 743q-18 31 -51 31h-123q-31 0 -31 31z" />
<glyph unicode="Z" horiz-adv-x="1259" d="M102 35q0 8 25 47l920 1257q12 12 6 22.5t-29 10.5h-819q-31 0 -31 -31v-225q0 -31 -30.5 -31t-30.5 31v287q0 31 30 31h983q31 0 31 -35q0 -8 -24 -47l-920 -1258q-12 -12 -6 -22.5t29 -10.5h819q31 0 30 31v225q0 31 31 31t31 -31v-286q0 -31 -31 -31h-983 q-31 0 -31 35z" />
<glyph unicode="[" horiz-adv-x="593" d="M219 -297v1864q0 31 31 30h266q31 0 31 -30.5t-31 -30.5h-205q-31 0 -30 -31v-1741q0 -31 30 -30h205q31 0 31 -31t-31 -31h-266q-31 0 -31 31z" />
<glyph unicode="\" horiz-adv-x="1062" d="M55 1403q0 12 17 24q8 4 16 5q14 0 25 -15l886 -1370q8 -10 9 -18q0 -14 -19 -25q-8 -4 -16 -4q-14 0 -25 14l-885 1372q-8 8 -8 17z" />
<glyph unicode="]" horiz-adv-x="593" d="M47 -297q0 31 31 31h205q31 0 30 30v1741q0 31 -30 31h-205q-31 0 -31 30.5t31 30.5h266q31 0 31 -30v-1864q0 -31 -31 -31h-266q-31 0 -31 31z" />
<glyph unicode="^" horiz-adv-x="956" d="M43 938q0 8 6 16l395 539q12 20 35 23q20 0 33 -23l395 -539q6 -8 6 -16q0 -14 -14 -25q-10 -8 -20 -8q-14 0 -25 17l-356 485q-8 12 -19.5 12t-19.5 -12l-357 -485q-10 -16 -24 -17q-10 0 -21 8q-14 10 -14 25z" />
<glyph unicode="_" horiz-adv-x="1449" d="M387 -133q0 31 31 31h614q31 0 31 -31t-31 -31h-614q-31 0 -31 31z" />
<glyph unicode="`" horiz-adv-x="495" d="M123 1444q0 12 16 20q10 10 21 11q12 0 22 -19l183 -260q8 -10 8 -20t-15 -21q-10 -6 -20 -6q-12 0 -23 12l-184 262q-8 10 -8 21z" />
<glyph unicode="a" d="M84 287q0 63 27.5 119.5t81 97.5t129 65.5t172.5 24.5h337q31 0 31 31v82q0 57 -23.5 108t-65.5 88t-101.5 58.5t-128.5 21.5q-123 0 -207 -36t-125 -68q-27 -20 -43 4q-18 25 4 41q55 45 147.5 82.5t223.5 37.5q172 0 276 -98q104 -96 105 -239v-615q0 -31 30 -31h144 q31 0 30 -30q0 -31 -30 -31h-205q-31 0 -31 31v114q0 20 -8 28.5t-25 -7.5q-55 -70 -149 -127q-102 -59 -227 -59q-90 0 -159 23.5t-116 64.5t-70.5 97t-23.5 122zM145 287q0 -109 79 -177.5t229 -68.5q168 0 305 137q29 29 55.5 63.5t48.5 75.5v185q0 30 -29 30h-2h-337 q-178 0 -263.5 -69.5t-85.5 -175.5z" />
<glyph unicode="b" horiz-adv-x="1226" d="M-8 1403q0 31 31 31h204q31 0 31 -31v-348q0 -31 31 -31h276q131 0 233.5 -35t173 -99.5t108.5 -157.5t38 -210q0 -129 -31.5 -230.5t-91 -170t-142.5 -105t-185 -36.5q-127 0 -230 59q-96 61 -147 127q-16 16 -24.5 8t-8.5 -29v-114q0 -31 -31 -31t-30 31v1310 q0 31 -31 31h-143q-31 0 -31 31zM258 317q47 -82 104 -139q137 -137 306 -137q174 0 281.5 124t107.5 357q0 211 -129 326t-363 115h-276q-31 0 -31 -31v-615z" />
<glyph unicode="c" horiz-adv-x="1124" d="M104 512q0 236 129 383q128 149 319 149h3q203 0 356 -153q18 -16 25.5 -8t7.5 28v82q0 31 31 31t31 -31v-327q0 -31 -31 -31t-31 31v102q-49 63 -102 106q-133 109 -287 109q-166 0 -279 -131q-111 -133 -110 -340q0 -215 117 -344q117 -127 303 -127q80 0 140 15.5 t104 38t76 48t55 45.5q14 12 24 7t21 -15q10 -12 10 -22q0 -11 -12 -21q-27 -25 -65 -52.5t-88 -51t-115.5 -38.5t-149.5 -15q-217 0 -348 147q-133 150 -134 385z" />
<glyph unicode="d" horiz-adv-x="1292" d="M102 522q0 117 38 210t108.5 157.5t173 99.5t233.5 35h277q31 0 31 31v286q0 31 -31 31h-164q-31 0 -31 31t31 31h225q31 0 31 -31v-1311q0 -31 31 -31h143q31 0 31 -30q0 -31 -31 -31h-205q-31 0 -30 31v114q0 20 -8.5 28.5t-24.5 -7.5q-51 -68 -150 -127 q-100 -59 -227 -59q-102 0 -185 36.5t-142.5 105t-91.5 170t-32 230.5zM164 522q0 -233 107.5 -357t281.5 -124q168 0 305 137q57 57 105 139v615q0 31 -31 31h-277q-233 0 -362 -115t-129 -326z" />
<glyph unicode="e" horiz-adv-x="1161" d="M106 512q0 233 134 385q131 147 348 147q211 0 346 -135t135 -325v-31q0 -61 -61 -61h-807q-35 0 -31 -31q12 -178 115 -293q117 -127 303 -127q80 0 140 15.5t104.5 38t76 48t54.5 45.5q14 12 24 7t21 -15q20 -25 -2 -43q-27 -25 -65 -52.5t-88 -51t-115.5 -38.5 t-149.5 -15q-217 0 -348 147q-133 152 -134 385zM172 578q0 -25 29 -25h776q31 0 31 31q0 164 -121 280q-119 119 -299 119q-186 0 -303 -131q-97 -108 -113 -268v-6z" />
<glyph unicode="f" horiz-adv-x="847" d="M74 29q0 33 30 32h144q31 0 31 31v840q0 31 -31 31h-144q-31 0 -30 30q0 31 30 31h144q31 0 31 31v20q0 184 83.5 281.5t243.5 97.5q49 0 91 -12t76 -29.5t57.5 -38t39.5 -37.5q10 -10 14 -22v-5q0 -10 -10 -20q-23 -23 -43 0q-35 33 -91 68t-134 35q-129 0 -197.5 -81 t-68.5 -237v-20q0 -31 31 -31h327q31 0 31 -31t-31 -30h-327q-31 0 -31 -31v-840q0 -31 31 -31h164q31 0 30 -30q0 -31 -30 -31h-431q-30 0 -30 29z" />
<glyph unicode="g" horiz-adv-x="1239" d="M51 -113q0 70 40 137.5t114 104.5q14 6 14 17.5t-14 15.5q-39 14 -71 46t-32 77q0 55 36 85.5t73 47.5q27 14 0 43q-33 37 -55.5 90t-22.5 135q0 162 113.5 260t337.5 98q190 0 307 -75q18 18 43 32q23 12 52.5 22.5t68.5 10.5h133q31 0 31 -30v-236q0 -31 -31 -31 t-31 31v184q0 31 -31 31h-71q-23 0 -40.5 -5t-29.5 -9q-14 -6 -27 -13q-25 -25 -2 -45q33 -39 55.5 -97t22.5 -128q0 -162 -113.5 -260t-336.5 -98q-96 0 -170 18.5t-119 46.5q-59 -16 -95 -38.5t-36 -69.5q0 -37 39 -58.5t125 -21.5h256q145 0 246.5 -23.5t165 -65.5 t92 -100.5t28.5 -128.5t-28.5 -128t-92 -100t-165 -65.5t-246.5 -23.5t-246.5 23.5t-165 65.5t-92.5 100.5t-29 127.5zM113 -113q0 -53 23.5 -100t77.5 -82t144.5 -54.5t225.5 -19.5t225 19.5t144.5 54.5t78 82t23.5 100t-23.5 100.5t-78 82t-144.5 54t-225 19.5 q-127 0 -216 -18.5t-146.5 -52t-83 -80.5t-25.5 -105zM195 686q0 -139 91 -218t298 -79t298 79t91 218q0 137 -91 217t-298 80t-298 -80t-91 -217z" />
<glyph unicode="h" horiz-adv-x="1333" d="M39 30.5q0 30.5 31 30.5h143q31 0 31 31v1249q0 31 -31 31h-143q-31 0 -31 31t31 31h204q31 0 31 -31v-524q0 -20 8.5 -28.5t24.5 7.5q166 186 367 186q188 0 293.5 -105t105.5 -304v-543q0 -31 31 -31h143q31 0 31 -30.5t-31 -30.5h-389q-31 0 -31 30.5t31 30.5h123 q31 0 30 31v543q0 174 -90 261t-247 87q-154 0 -293 -139q-59 -61 -107 -137v-615q0 -31 31 -31h123q31 0 30.5 -30.5t-30.5 -30.5h-389q-31 0 -31 30.5z" />
<glyph unicode="i" horiz-adv-x="585" d="M75 993q0 31 31 31h205q31 0 31 -31v-901q0 -31 31 -31h143q31 0 31 -30.5t-31 -30.5h-410q-30 0 -30 30.5t30 30.5h144q31 0 31 31v840q0 31 -31 31h-144q-31 0 -31 30zM219 1270q0 35 23.5 58.5t58.5 23.5t58.5 -23.5t23.5 -58.5t-23.5 -58.5t-58.5 -23.5t-58.5 23.5 t-23.5 58.5z" />
<glyph unicode="j" horiz-adv-x="501" d="M-278 -286q0 10 10 20q20 20 43 0q35 -33 91 -68t134 -35q115 0 179.5 75t64.5 222v1004q0 31 -31 31h-143q-31 0 -31 30q0 31 31 31h204q31 0 31 -31v-1065q0 -174 -81 -266t-224 -92q-49 0 -91 12t-76 29.5t-58.5 38t-38.5 37.5q-10 10 -14 22v5zM182 1270q0 35 23 57 q25 25 59.5 25t57.5 -25q25 -23 25 -56q0 -35 -25 -61q-23 -23 -57.5 -23t-59.5 23q-23 25 -23 60z" />
<glyph unicode="k" horiz-adv-x="1189" d="M39 30.5q0 30.5 31 30.5h143q31 0 31 31v1249q0 31 -31 31h-143q-31 0 -31 31t31 31h204q31 0 31 -31v-1008l492 537q12 10 9 20.5t-20 10.5h-114q-31 0 -31 30.5t31 30.5h401q31 0 31 -30.5t-31 -30.5h-131q-23 0 -53 -31l-307 -334l368 -506q27 -31 51 -31h134 q31 0 31 -30q0 -31 -31 -31h-390q-31 0 -30.5 30.5t30.5 30.5h113q37 0 10 31l-331 457l-232 -254v-203q0 -31 31 -31h123q31 0 30.5 -30.5t-30.5 -30.5h-389q-31 0 -31 30.5z" />
<glyph unicode="l" horiz-adv-x="548" d="M39 30.5q0 30.5 31 30.5h143q31 0 31 31v1249q0 31 -31 31h-143q-31 0 -31 31t31 31h204q31 0 31 -31v-1311q0 -31 31 -31h143q31 0 31 -30.5t-31 -30.5h-409q-31 0 -31 30.5z" />
<glyph unicode="m" horiz-adv-x="1964" d="M73 30.5q0 30.5 31 30.5h144q31 0 31 31v840q0 31 -31 31h-144q-31 0 -30.5 30.5t30.5 30.5h205q31 0 31 -31v-114q0 -23 7 -31t26 10q160 186 315 186q119 0 207 -67.5t123 -194.5q41 72 98 131q127 131 268 131q154 0 251.5 -107.5t97.5 -301.5v-543q0 -31 30 -31h144 q31 0 31 -30q0 -31 -31 -31h-389q-31 0 -31 30.5t31 30.5h122q31 0 31 31v543q0 168 -82 258t-205 90q-127 0 -254 -143q-57 -66 -98 -144q4 -45 4 -61v-543q0 -31 31 -31h123q31 0 31 -30.5t-31 -30.5h-369q-31 0 -30.5 30.5t30.5 30.5h123q31 0 31 31v543q0 168 -82 258 t-205 90q-125 0 -248 -139q-53 -59 -100 -137v-615q0 -31 31 -31h123q31 0 30.5 -30.5t-30.5 -30.5h-390q-31 0 -31 30.5z" />
<glyph unicode="n" horiz-adv-x="1368" d="M73 30.5q0 30.5 31 30.5h144q31 0 31 31v840q0 31 -31 31h-144q-31 0 -30.5 30.5t30.5 30.5h205q31 0 31 -31v-114q0 -20 8 -28.5t25 7.5q166 186 366 186q188 0 294 -105t106 -304v-543q0 -31 30 -31h144q31 0 31 -30q0 -31 -31 -31h-389q-31 0 -31 30.5t31 30.5h123 q31 0 30 31v543q0 174 -90 261t-248 87q-154 0 -293 -139q-61 -61 -106 -137v-615q0 -31 31 -31h123q31 0 30.5 -30.5t-30.5 -30.5h-390q-31 0 -31 30.5z" />
<glyph unicode="o" horiz-adv-x="1212" d="M104 512q0 238 139.5 385t362.5 147t362.5 -147t139.5 -385t-139.5 -385t-362.5 -147t-362.5 147t-139.5 385zM166 512q0 -215 120 -343t320.5 -128t320.5 128t120 343q0 213 -121 342t-319.5 129t-319.5 -129t-121 -342z" />
<glyph unicode="p" horiz-adv-x="1273" d="M39 -379q0 31 31 31h143q31 0 31 31v1249q0 31 -31 31h-143q-31 0 -31 30q0 31 31 31h204q31 0 31 -31v-114q0 -20 8.5 -28.5t24.5 7.5q51 66 147 125q100 61 230 61q205 0 327 -143q123 -145 123 -399q0 -117 -37.5 -210t-108.5 -157.5t-173.5 -99.5t-233.5 -35h-276 q-31 0 -31 -31v-286q0 -31 31 -31h164q31 0 30 -31q0 -31 -30 -31h-430q-31 0 -31 31zM305 92q0 -31 31 -31h276q236 0 364 115t128 326q0 236 -107.5 358.5t-281.5 122.5q-166 0 -305 -139q-33 -33 -58.5 -68t-46.5 -69v-615z" />
<glyph unicode="q" horiz-adv-x="1253" d="M109 502q0 254 122 399q123 143 328 143q129 0 227 -61q51 -29 88 -60.5t62 -64.5q16 -16 24.5 -8t8.5 29v114q0 31 30 31q31 0 31 -31v-1310q0 -31 31 -31h143q31 0 31 -31t-31 -31h-430q-31 0 -31 31t31 31h164q31 0 31 31v286q0 31 -31 31h-276q-131 0 -233.5 35 t-173.5 99.5t-108.5 157.5t-37.5 210zM170 502q0 -211 129 -326t363 -115h276q31 0 31 31v615q-39 72 -105 137q-139 139 -305 139q-174 0 -281.5 -124t-107.5 -357z" />
<glyph unicode="r" horiz-adv-x="1038" d="M74 29q0 33 30 32h144q31 0 31 31v840q0 31 -31 31h-144q-31 0 -30 30q0 31 30 31h205q31 0 31 -31v-162q0 -20 8 -26t25 12q37 43 86 84t109.5 73t131 51t152.5 19h100q31 0 31 -30v-256q0 -31 -30.5 -31t-30.5 31v194q0 31 -31 31h-39q-96 0 -176 -27.5t-143.5 -72.5 t-111.5 -102.5t-81 -114.5v-574q0 -31 31 -31h164q31 0 30 -30q0 -31 -30 -31h-431q-30 0 -30 29z" />
<glyph unicode="s" horiz-adv-x="1134" d="M123 31v327q0 31 31 31t30 -31v-102q43 -61 103 -109q51 -41 127 -73.5t180 -32.5q178 0 273.5 62.5t95.5 162.5q0 53 -24 86t-65 56q-45 25 -106 39t-131 25t-141.5 21.5t-135.5 26.5q-49 14 -93 33.5t-75.5 50.5t-50 73t-18.5 101q0 49 26.5 97.5t79 86t128 60 t175.5 22.5q66 0 122.5 -16t102.5 -40.5t79.5 -51.5t52.5 -45q18 -20 25.5 -8t7.5 28v82q0 31 30 31q31 0 31 -31v-327q0 -31 -31 -31t-30 31v102q-45 59 -103 106q-51 41 -122.5 75t-164.5 34q-88 0 -153.5 -17.5t-108.5 -46t-64.5 -65.5t-21.5 -76q0 -55 21.5 -91 t60.5 -60q45 -29 106.5 -46.5t131 -28.5t141.5 -21.5t137 -24.5q51 -12 95.5 -30.5t77 -46.5t51 -67.5t18.5 -95.5q0 -123 -107.5 -204.5t-322.5 -81.5q-61 0 -117.5 14t-104.5 35.5t-88 49t-67 54.5q-20 20 -26.5 8t-6.5 -28v-82q0 -31 -30 -31q-31 0 -31 31z" />
<glyph unicode="t" horiz-adv-x="825" d="M31 993q0 31 30 31h144q31 0 31 31v348q0 31 30 31q31 0 31 -31v-348q0 -31 31 -31h348q31 0 31 -31t-31 -30h-348q-31 0 -31 -31v-594q0 -147 65.5 -222t180.5 -75q78 0 134 35t91 67q12 12 22.5 11.5t20.5 -11.5q9 -10 9 -21q0 -13 -13 -26q-16 -16 -40 -36.5 t-57.5 -38t-75.5 -29.5t-91 -12q-143 0 -225 92t-82 266v594q0 31 -31 31h-144q-31 0 -30 30z" />
<glyph unicode="u" horiz-adv-x="1331" d="M22 993.5q0 30.5 31 30.5h205q31 0 31 -31v-604q0 -174 90 -261t248 -87q154 0 291 137q61 63 108 139v615q0 31 -31 31h-143q-31 0 -31 30.5t31 30.5h205q31 0 30 -31v-901q0 -31 31 -31h144q31 0 31 -30q0 -31 -31 -31h-205q-31 0 -31 31v114q0 20 -8 28.5t-25 -7.5 q-166 -186 -366 -186q-188 0 -294 105t-106 304v543q0 31 -30 31h-144q-31 0 -31 30.5z" />
<glyph unicode="v" horiz-adv-x="1277" d="M-2 993.5q0 30.5 31 30.5h389q31 0 31 -30.5t-31 -30.5h-127q-37 0 -21 -31l357 -834q4 -12 12 -12t12 12l357 834q16 31 -21 31h-127q-31 0 -31 30.5t31 30.5h389q31 0 31 -30.5t-31 -30.5h-133q-27 0 -41 -31l-395 -922q-16 -31 -40 -31l-1 1q-25 0 -41 30l-395 922 q-14 31 -41 31h-133q-31 0 -31 30.5z" />
<glyph unicode="w" horiz-adv-x="1769" d="M-2 993.5q0 30.5 31 30.5h389q31 0 31 -30.5t-31 -30.5h-123q-37 0 -21 -31l277 -785q4 -12 12 -12t12 12l269 846q8 31 41 31t41 -31l268 -846q4 -12 12 -12t13 12l276 785q16 31 -20 31h-123q-31 0 -31 30.5t31 30.5h389q31 0 31 -30.5t-31 -30.5h-133q-31 0 -41 -31 l-326 -922q-8 -31 -34 -31l-1 1q-26 0 -35 30l-266 840q-4 16 -20.5 16t-20.5 -16l-266 -840q-8 -31 -34 -31v1q-26 0 -36 30l-325 922q-10 31 -41 31h-133q-31 0 -31 30.5z" />
<glyph unicode="x" horiz-adv-x="1185" d="M45 30.5q0 30.5 31 30.5h123q25 0 51 31l293 408q12 18 0 37l-283 395q-18 31 -51 31h-123q-31 0 -31 30.5t31 30.5h389q31 0 31 -30.5t-31 -30.5h-123q-16 0 -23 -9.5t3 -21.5l246 -342q14 -20 28 0l248 342q10 12 3 21.5t-23 9.5h-123q-31 0 -31 30.5t31 30.5h389 q31 0 30.5 -30.5t-30.5 -30.5h-123q-33 0 -51 -31l-283 -395q-12 -18 0 -37l293 -408q27 -31 51 -31h123q31 0 31 -30.5t-31 -30.5h-389q-31 0 -31 30.5t31 30.5h123q16 0 23 9.5t-3 21.5l-258 357q-14 20 -28 0l-256 -357q-10 -12 -3 -21.5t23 -9.5h123q31 0 31 -30.5 t-31 -30.5h-389q-31 0 -31 30.5z" />
<glyph unicode="y" horiz-adv-x="1263" d="M-2 993q0 31 31 31h389q31 0 31 -31t-31 -30h-127q-37 0 -21 -31l387 -809q10 -29 23 0l313 809q14 31 -20 31h-127q-31 0 -31 30q0 31 31 31h389q31 0 31 -31t-31 -30h-133q-27 0 -41 -31l-389 -1004q-37 -92 -71 -159.5t-74 -111.5t-87.5 -65.5t-113.5 -21.5 q-49 0 -89 11t-72 28.5t-55.5 38t-37.5 39.5q-10 10 -13.5 22t9.5 25q20 20 43 0q35 -35 87 -69t128 -34q98 0 159.5 71t120.5 226l21 54q8 27 0 49l-424 901q-16 31 -41 31h-133q-31 0 -31 30z" />
<glyph unicode="z" horiz-adv-x="1101" d="M100 35q0 18 25 47l754 848q12 10 6 21.5t-29 11.5h-651q-31 0 -31 -31v-195q0 -31 -30.5 -30.5t-30.5 30.5v256q0 31 30 31h826q30 0 30 -33q0 -20 -24 -49l-754 -848q-12 -10 -6 -21.5t29 -11.5h653q31 0 31 31v195q0 31 30.5 30.5t30.5 -30.5v-256q0 -31 -31 -31h-827 q-31 0 -31 35z" />
<glyph unicode="{" horiz-adv-x="663" d="M43 635q0 31 31 31h20q195 4 195 204v461q0 123 71.5 194.5t194.5 71.5h31q31 0 30.5 -30.5t-30.5 -30.5h-31q-205 0 -205 -205v-461q0 -180 -143 -235q143 -55 143 -236v-460q0 -205 205 -205h31q31 0 30.5 -31t-30.5 -31h-31q-123 0 -194.5 72t-71.5 195v460 q0 199 -195 205h-20q-31 0 -31 31z" />
<glyph unicode="|" horiz-adv-x="503" d="M221 -379v1782q0 31 31 31t31 -31v-1782q0 -31 -31 -31t-31 31z" />
<glyph unicode="}" horiz-adv-x="663" d="M47 -297q0 31 31 31h31q205 0 204 205v460q0 180 144 236q-143 55 -144 235v461q0 205 -204 205h-31q-31 0 -31 30.5t31 30.5h31q123 0 194.5 -71.5t71.5 -194.5v-461q0 -201 194 -204h21q31 0 31 -31t-31 -31h-21q-195 -6 -194 -205v-460q0 -123 -72 -195t-194 -72h-31 q-31 0 -31 31z" />
<glyph unicode="~" horiz-adv-x="1073" d="M160 573q0 205 205 205q53 0 103 -30.5t82 -66.5t76 -66.5t87 -30.5q143 0 143 143q0 31 31 31t31 -31q0 -205 -205 -205q-53 0 -103.5 31t-82 66.5t-75.5 66.5t-87 31q-143 0 -144 -144q0 -31 -30.5 -31t-30.5 31z" />
<glyph unicode="&#xa0;" d="M84 287q0 63 27.5 119.5t81 97.5t129 65.5t172.5 24.5h337q31 0 31 31v82q0 57 -23.5 108t-65.5 88t-101.5 58.5t-128.5 21.5q-123 0 -207 -36t-125 -68q-27 -20 -43 4q-18 25 4 41q55 45 147.5 82.5t223.5 37.5q172 0 276 -98q104 -96 105 -239v-615q0 -31 30 -31h144 q31 0 30 -30q0 -31 -30 -31h-205q-31 0 -31 31v114q0 20 -8 28.5t-25 -7.5q-55 -70 -149 -127q-102 -59 -227 -59q-90 0 -159 23.5t-116 64.5t-70.5 97t-23.5 122zM145 287q0 -109 79 -177.5t229 -68.5q168 0 305 137q29 29 55.5 63.5t48.5 75.5v185q0 31 -31 30h-337 q-178 0 -263.5 -69.5t-85.5 -175.5zM383 1310.5q0 69.5 46 117t117.5 47.5t118 -47.5t46.5 -117t-46.5 -116.5t-118 -47t-118.5 47q-45 47 -45 116.5zM444 1310.5q0 -46.5 28 -74.5t75 -28t74.5 28t27.5 75t-27.5 74.5t-74.5 27.5t-76 -29q-27 -27 -27 -73.5z" />
<glyph unicode="&#xa1;" horiz-adv-x="491" d="M143 942q0 47 28 74.5t75 27.5t74.5 -27.5t27.5 -74.5t-27.5 -74.5t-74.5 -27.5t-75 27.5t-28 74.5zM215 -379v1024q0 31 30.5 31t30.5 -31v-1024q0 -31 -30.5 -31t-30.5 31z" />
<glyph unicode="&#xa2;" horiz-adv-x="1183" d="M117 512q0 236 129 383q127 147 311 149v113q0 31 31 31t30 -31v-115q168 -18 306 -151q18 -16 25 -8t7 28v82q0 31 31 31t31 -31v-327q0 -31 -31 -31t-31 31v102q-49 63 -102 106q-111 90 -236 105v-938q74 2 131.5 18.5t99.5 38t71.5 46t52.5 44.5q14 12 24.5 7 t20.5 -15q20 -25 -2 -43q-27 -25 -62.5 -51.5t-84 -49t-111 -38.5t-140.5 -18v-113q0 -31 -30 -31q-31 0 -31 31v115q-188 12 -307 145q-133 150 -133 385zM178 512q0 -215 117 -344q106 -115 262 -127v942q-158 -6 -268 -131q-111 -133 -111 -340z" />
<glyph unicode="&#xa3;" horiz-adv-x="1183" d="M74 30.5q0 30.5 30 30.5q98 0 162 76t64 221v308q0 31 -31 30h-143q-31 0 -31 31t31 31h143q31 0 31 30v287q0 182 82 280.5t225 98.5q137 0 222 -88t85 -229q0 -31 -30.5 -31t-30.5 31q0 117 -67.5 186.5t-178.5 69.5q-113 0 -179.5 -81t-66.5 -237v-287q0 -31 31 -30 h246q31 0 30.5 -31t-30.5 -31h-246q-31 0 -31 -30v-308q0 -207 -112 -297h542q94 0 160 66t66 170q0 31 30.5 31t30.5 -31q0 -129 -82 -213t-205 -84h-717q-30 0 -30 30.5z" />
<glyph unicode="&#xa4;" horiz-adv-x="1337" d="M133 30.5q0 30.5 31 30.5h143q31 0 31 31v277q0 31 -31 30h-143q-31 0 -31 31t31 31h143q31 0 31 31v92q0 31 -31 30h-143q-31 0 -31 31t31 31h143q31 0 31 31v634q0 31 -31 31h-143q-31 0 -31 31t31 31h686q199 0 304.5 -107.5t105.5 -302.5t-105.5 -302.5 t-304.5 -107.5h-420q-31 0 -31 -30v-92q0 -31 31 -31h574q31 0 30.5 -31t-30.5 -31h-574q-31 0 -31 -30v-277q0 -31 31 -31h164q31 0 31 -30.5t-31 -30.5h-430q-31 0 -31 30.5zM399 707q0 -31 31 -31h420q170 0 259 89t89 259t-89 259t-259 89h-420q-31 0 -31 -31v-634z" />
<glyph unicode="&#xa5;" horiz-adv-x="1439" d="M57 1403q0 31 31 31h389q31 0 31 -31t-31 -31h-123q-16 0 -22 -9t2 -22l371 -647q14 -20 28 0l373 647q8 12 2 21.5t-23 9.5h-122q-31 0 -31 31t31 31h389q31 0 30.5 -31t-30.5 -31h-123q-33 0 -51 -31l-396 -686q-16 -31 21 -30h235q31 0 31 -31t-31 -31h-256 q-31 0 -30 -31v-122q0 -31 30 -31h256q31 0 31 -31t-31 -31h-256q-31 0 -30 -30v-195q0 -31 30 -31h144q31 0 30.5 -30.5t-30.5 -30.5h-410q-31 0 -31 30.5t31 30.5h143q31 0 31 31v195q0 31 -31 30h-256q-31 0 -30.5 31t30.5 31h256q31 0 31 31v122q0 31 -31 31h-256 q-31 0 -30.5 31t30.5 31h236q33 0 18 30l-395 686q-18 31 -51 31h-123q-31 0 -31 31z" />
<glyph unicode="&#xa6;" horiz-adv-x="524" d="M231 338q0 31 31 31t31 -31v-717q0 -31 -31 -31t-31 31v717zM231 686v717q0 31 31 31t31 -31v-717q0 -31 -31 -31t-31 31z" />
<glyph unicode="&#xa7;" horiz-adv-x="1191" d="M129 553q0 90 57.5 162.5t159.5 101.5q10 4 10 10.5t-10 10.5q-45 18 -83 41.5t-64.5 55.5t-42 74t-15.5 97q0 70 28 129t83 103t140 70t200 26q66 0 128 -10.5t115.5 -28t96.5 -39t72 -43.5q23 -16 4 -41q-16 -25 -43 -4q-20 16 -58.5 34.5t-87.5 34t-107.5 25.5 t-119.5 10q-201 0 -295 -75.5t-94 -190.5q0 -90 60.5 -140.5t152.5 -84.5q96 -35 208.5 -62.5t211.5 -66.5q49 -18 90 -43t71.5 -59t48 -78t17.5 -101q0 -90 -58.5 -162.5t-158.5 -101.5q-10 -4 -10 -10.5t10 -10.5q45 -18 83 -41.5t64.5 -55.5t42 -74t15.5 -97 q0 -70 -28 -129t-83 -103t-140 -70t-200 -26q-66 0 -128 10.5t-115.5 28t-97.5 39t-71 43.5q-23 16 -4 41q16 25 43 4q20 -16 58.5 -34.5t87.5 -34t107.5 -25.5t119.5 -10q199 0 294 75.5t95 190.5q0 90 -60.5 140.5t-152.5 84.5q-96 35 -208.5 62.5t-211.5 66.5 q-96 37 -161.5 101.5t-65.5 179.5zM190 553q0 -68 31 -115t84 -76q49 -29 112.5 -47t133.5 -36q31 -8 61.5 -16.5t61.5 -16.5q168 0 247.5 66.5t79.5 158.5q0 66 -30.5 114t-83.5 77q-49 29 -112.5 47t-133.5 36q-31 8 -61.5 16.5t-61.5 16.5q-84 0 -146.5 -18.5t-102.5 -49 t-59.5 -71.5t-19.5 -86z" />
<glyph unicode="&#xa8;" horiz-adv-x="491" d="M0 1229q0 35 23.5 58.5t58.5 23.5t58.5 -23.5t23.5 -58.5t-23.5 -58.5t-58.5 -23.5t-58.5 23.5t-23.5 58.5zM328 1229q0 35 23.5 58.5t58 23.5t58.5 -23.5t24 -58.5t-24 -58.5t-58.5 -23.5t-58 23.5t-23.5 58.5z" />
<glyph unicode="&#xa9;" horiz-adv-x="1798" d="M111 717q0 342 228 570.5t560 228.5t560.5 -228.5t228.5 -570.5t-228.5 -570.5t-560.5 -228.5t-560 228.5t-228 570.5zM172 716.5q0 -323.5 206 -530t521 -206.5t521 206.5t206 530t-206 530.5t-521 207t-521 -207t-206 -530.5zM469 717q0 221 115.5 356t294.5 135h-11 q172 0 316 -143q18 -14 25.5 -7t7.5 27v82q0 31 30.5 31t30.5 -31v-307q0 -31 -30.5 -31t-30.5 31v82q-37 45 -101 102q-127 102 -237 103q-152 0 -250.5 -117t-98.5 -313q0 -199 104.5 -314.5t274.5 -115.5q219 0 346 207q16 23 39 4q14 -8 15 -21q0 -12 -11 -26 q-143 -225 -389 -226q-199 0 -319.5 134.5t-120.5 357.5z" />
<glyph unicode="&#xaa;" horiz-adv-x="860" d="M123 983q0 94 62.5 149.5t183.5 55.5h153q31 0 31 31v8q0 156 -164 155q-109 0 -180 -75q-20 -20 -43 0t0 43q33 41 94.5 67.5t128.5 26.5q106 0 165.5 -60.5t59.5 -156.5v-336q0 -31 31 -31h41q31 0 31 -30.5t-31 -30.5h-102q-31 0 -31 30v52q-23 -23 -57 -47 q-78 -45 -148 -46q-100 0 -162.5 52.5t-62.5 142.5zM184 983q0 -57 46 -95t128 -38q66 0 136 55q37 29 59 58v133q0 31 -31 30h-153q-90 0 -137.5 -39.5t-47.5 -103.5z" />
<glyph unicode="&#xab;" horiz-adv-x="1021" d="M80 510q0 17 16 33l473 471q10 10 20.5 10t22.5 -10q23 -23 0 -43l-442 -443q-18 -18 0 -36l438 -439q23 -20 0 -43q-12 -10 -22.5 -10t-20.5 10l-467 465q-18 18 -18 35zM428 510q0 17 16 33l381 379q10 10 21.5 10t22 -10.5t10.5 -21.5t-11 -21l-350 -351 q-18 -18 0 -36l346 -347q10 -10 10 -21t-10 -21.5t-21.5 -10.5t-21.5 10l-375 373q-18 18 -18 35z" />
<glyph unicode="&#xac;" horiz-adv-x="1212" d="M188 676q0 31 31 31h799q31 0 31 -31v-215q0 -31 -31 -31t-31 31v153q0 31 -31 31h-737q-31 0 -31 31z" />
<glyph unicode="&#xad;" d="M156 655.5q0 30.5 30 30.5h799q31 0 31 -30.5t-31 -30.5h-799q-30 0 -30 30.5z" />
<glyph unicode="&#xae;" horiz-adv-x="1798" d="M111 716.5q0 342.5 228 571t560 228.5t560.5 -228.5t228.5 -570.5t-228.5 -570.5t-560.5 -228.5t-561 227q-227 229 -227 571.5zM172 716.5q0 -323.5 206 -530t521 -206.5t521 206.5t206 530t-206 530.5t-521 207t-522 -207q-205 -207 -205 -530.5zM469 256q0 31 31 31 h102q31 0 31 30v779q0 31 -31 30h-102q-31 0 -31 31t31 31h491q137 0 217 -72t80 -184.5t-80 -184t-217 -71.5q-16 0 -23 -9.5t3 -21.5l213 -328q27 -31 51 -30h92q31 0 31 -31t-31 -31h-297q-31 0 -31 31t31 31h68q37 0 10 30l-234 359h-149q-31 0 -31 -31v-328 q0 -31 31 -30h61q31 0 31 -31t-31 -31h-286q-31 0 -31 31zM694 768q0 -31 31 -31h266q111 0 173.5 56.5t62.5 138.5t-62.5 138t-173.5 56h-266q-31 0 -31 -30v-328z" />
<glyph unicode="&#xb0;" horiz-adv-x="901" d="M113 1105.5q0 147.5 96 248t241.5 100.5t241.5 -100.5t96 -248t-96 -247.5t-241.5 -100t-241.5 100t-96 247.5zM174 1106q0 -123 80 -205t196.5 -82t196.5 82t80 205t-80 205t-196.5 82t-196.5 -82t-80 -205z" />
<glyph unicode="&#xb1;" horiz-adv-x="1046" d="M92 205q0 31 31 31h799q31 0 30.5 -31t-30.5 -31h-799q-31 0 -31 31zM92 655.5q0 30.5 31 30.5h328q31 0 30 31v338q0 31 31 30.5t31 -30.5v-338q0 -31 30 -31h349q31 0 30.5 -30.5t-30.5 -30.5h-349q-31 0 -30 -31v-256q0 -31 -31 -31t-31 31v256q0 31 -30 31h-328 q-31 0 -31 30.5z" />
<glyph unicode="&#xb2;" horiz-adv-x="821" d="M143.5 1318.5q-0.5 10.5 10.5 22.5q102 102 245 103q266 0 267 -184q0 -66 -46.5 -108t-111.5 -65l-135 -40q-66 -20 -112 -58.5t-46 -97.5q0 -31 31 -31h327q31 0 31 31v51q0 31 31 31t31 -31v-113q0 -31 -31 -30h-451q-30 -1 -30 30v62q0 86 70.5 141t154.5 74.5 t154.5 57.5t70.5 96q0 123 -205 122q-127 0 -202 -84q-16 -27 -43 0q-10 10 -10.5 20.5z" />
<glyph unicode="&#xb3;" horiz-adv-x="780" d="M135 912.5q0 11.5 10 21.5q23 20 43 0q33 -35 89.5 -59.5t115.5 -24.5q195 0 195 113q0 61 -43 97t-121 36h-133q-31 0 -31 30q0 29 31 29h133q143 0 143 115q0 113 -184 112q-119 0 -190 -75q-20 -20 -43 0q-12 10 -12.5 21t12.5 22q33 39 99 66.5t134 27.5 q121 0 183.5 -47t62.5 -127q0 -100 -103 -144q123 -45 123 -163q0 -82 -64.5 -128.5t-191.5 -46.5q-74 0 -143.5 31t-104.5 72q-10 10 -10 21.5z" />
<glyph unicode="&#xb4;" horiz-adv-x="249" d="M8 1196l182 260q18 31 43 8q27 -14 9 -41l-185 -262q-18 -23 -42.5 -6.5t-6.5 41.5z" />
<glyph unicode="&#xb5;" horiz-adv-x="1409" d="M75 993.5q0 30.5 31 30.5h205q31 0 31 -31v-622q0 -164 92 -247t256 -83q152 0 287 143q55 59 102 144v604q0 31 -30 31h-144q-31 0 -31 30.5t31 30.5h205q31 0 31 -31v-901q0 -31 30 -31h144q31 0 31 -30.5t-31 -30.5h-205q-31 0 -31 31v114q0 20 -7 28.5t-25 -7.5 q-166 -186 -357 -186q-246 0 -348 163v-522q0 -31 -30.5 -31t-30.5 31v1311q0 31 -31 31h-144q-31 0 -31 30.5z" />
<glyph unicode="&#xb6;" horiz-adv-x="1505" d="M76 942q0 117 35.5 209t101.5 154.5t158 95.5t207 33h829q31 0 31 -31t-31 -31h-205q-31 0 -31 -31v-1720q0 -31 -30 -31q-31 0 -31 31v1720q0 31 -31 31h-286q-31 0 -31 -31v-1720q0 -31 -31 -31t-31 31v799q0 31 -30 31h-92q-115 0 -207 32.5t-158 95t-101.5 154.5 t-35.5 209zM137 942q0 -211 116 -320.5t325 -109.5h92q31 0 30 31v798q0 31 -30 31h-92q-209 0 -325 -109.5t-116 -320.5z" />
<glyph unicode="&#xb7;" horiz-adv-x="516" d="M156 717q0 47 27.5 74.5t74.5 27.5t74.5 -27.5t27.5 -74.5t-27.5 -75t-74.5 -28t-74.5 28t-27.5 75z" />
<glyph unicode="&#xb8;" horiz-adv-x="235" d="M0 -338q0 31 31 31q143 0 143 82q0 35 -25.5 58.5t-76.5 23.5h-31q-31 0 -31 30v113q0 31 31 31t31 -31v-82q76 0 120 -40t44 -103q0 -66 -50.5 -105t-154.5 -39q-31 0 -31 31z" />
<glyph unicode="&#xb9;" horiz-adv-x="632" d="M119 1266q0 12 14 22l152 125q43 31 55 31q41 0 41 -31v-522q0 -31 31 -31h82q31 0 30.5 -30.5t-30.5 -30.5h-287q-31 0 -31 30.5t31 30.5h82q31 0 30 31v450q0 6 -4 8.5t-10 0.5t-14 -9l-117 -100q-22 -21 -45 2q-10 12 -10 23z" />
<glyph unicode="&#xba;" horiz-adv-x="811" d="M119 1116.5q0 149.5 81 238.5t205.5 89t205.5 -89t81 -238.5t-81 -239t-205.5 -89.5t-205.5 89.5t-81 239zM180 1116q0 -127 61.5 -196.5t164 -69.5t164 69.5t61.5 196.5t-61.5 196.5t-164 69.5t-164 -69.5t-61.5 -196.5z" />
<glyph unicode="&#xbb;" horiz-adv-x="1021" d="M141.5 900q-0.5 11 12.5 22q23 20 43 0l381 -379q16 -16 16 -33q0 -16 -19 -35l-374 -373q-20 -20 -43 0q-12 10 -12.5 21.5t12.5 21.5l346 347q18 18 0 36l-350 351q-12 10 -12.5 21zM399.5 992.5q-0.5 11.5 10 21.5t20.5 10t23 -10l473 -471q16 -16 16 -33 q0 -16 -18 -35l-467 -465q-10 -10 -21.5 -10t-22 10t-10.5 21.5t11 21.5l438 439q18 18 0 36l-442 443q-10 10 -10.5 21.5z" />
<glyph unicode="&#xbc;" horiz-adv-x="1376" d="M90 1268q0 12 14 22l152 125q43 31 55 31q41 0 41 -31v-522q0 -31 31 -31h82q31 0 31 -30.5t-31 -30.5h-287q-31 0 -31 30.5t31 30.5h82q31 0 31 31v450q0 6 -4 8.5t-10.5 0.5t-14.5 -9l-117 -100q-22 -23 -45 2q-10 12 -10 23zM205 29q0 8 8 18l887 1370q10 14 24 15 q8 0 17 -5q29 -20 8 -41l-885 -1372q-16 -23 -41 -10q-18 10 -18 25zM705 180v10q0 8 6 15q102 88 153 181t51 239q0 31 31 30.5t31 -30.5q0 -133 -44 -237.5t-110 -162.5h267q31 0 30 31v217q0 31 31 31t31 -31v-217q0 -31 30 -31h62q31 0 31 -30.5t-31 -30.5h-62 q-31 0 -30 -31v-113q0 -31 -31 -30.5t-31 30.5v113q0 31 -30 31h-359q-20 0 -26 16z" />
<glyph unicode="&#xbd;" horiz-adv-x="1380" d="M80 1268q0 12 14 22l152 125q43 31 55 31q41 0 41 -31v-522q0 -31 31 -31h82q31 0 30.5 -30.5t-30.5 -30.5h-287q-31 0 -31 30.5t31 30.5h82q31 0 31 31v450q0 6 -4.5 8.5t-10.5 0.5t-14 -9l-117 -100q-20 -23 -45 2q-10 12 -10 23zM195 29q0 8 8 18l887 1370 q10 14 24 15q8 0 16 -5q29 -20 9 -41l-885 -1372q-10 -14 -25 -14q-8 0 -16 4q-18 10 -18 25zM758 521q0 11 10 22q102 102 246 102q266 0 266 -184q0 -66 -46 -108t-112 -62l-133 -43q-68 -20 -114 -58t-46 -98q0 -31 31 -31h328q31 0 31 31v51q0 31 30.5 31t30.5 -31v-112 q0 -31 -31 -31h-450q-31 0 -31 31v61q0 86 70.5 141.5t154.5 75t155 57t71 95.5q0 123 -205 123q-127 0 -203 -84q-16 -27 -43 0q-10 10 -10 21z" />
<glyph unicode="&#xbe;" horiz-adv-x="1445" d="M100.5 913.5q-0.5 10.5 10.5 20.5q20 20 43 0q33 -35 89 -59.5t115 -24.5q195 0 195 113q0 61 -43 97t-121 36h-133q-31 0 -31 30q0 29 31 29h133q143 0 143 115q0 113 -184 112q-119 0 -190 -75q-23 -20 -43 0q-10 10 -10.5 21t10.5 22q33 39 99.5 66.5t133.5 27.5 q121 0 183.5 -47t62.5 -127q0 -100 -102 -144q123 -45 122 -163q0 -82 -64.5 -128.5t-191.5 -46.5q-74 0 -143 31t-104 72q-10 12 -10.5 22.5zM274 29q1 8 9 18l886 1370q10 14 25 15q8 0 16 -5q29 -20 9 -41l-885 -1372q-16 -23 -41 -10q-18 10 -19 25zM774 180v10 q0 8 6 15q102 88 153.5 181t51.5 239q0 31 31 30.5t31 -30.5q0 -133 -44.5 -237.5t-109.5 -162.5h266q31 0 31 31v217q0 31 30.5 31t30.5 -31v-217q0 -31 31 -31h61q31 0 31 -30.5t-31 -30.5h-61q-31 0 -31 -31v-113q0 -31 -30.5 -30.5t-30.5 30.5v113q0 31 -31 31h-358 q-21 0 -27 16z" />
<glyph unicode="&#xbf;" horiz-adv-x="1089" d="M82 -41q0 80 24.5 143.5t63.5 106.5t86 80l92 71q47 35 86 73t63.5 92.5t24.5 119.5q0 31 31 31t31 -31q0 -104 -45 -181t-109 -126l-131 -94q-66 -47 -111 -118t-45 -167q0 -131 111 -229.5t299 -98.5q190 0 300 93.5t110 255.5q0 31 30.5 30.5t30.5 -30.5 q0 -186 -125 -298t-346 -112q-219 0 -345 115.5t-126 273.5zM450.5 942q0.5 45 29 73.5t73.5 28.5t73.5 -28.5t28.5 -73.5t-28.5 -73.5t-73.5 -29t-74 28.5t-28.5 74z" />
<glyph unicode="&#xc0;" horiz-adv-x="1482" d="M-20 31q0 31 30 30h133q25 0 41 31l512 1331q4 14 17.5 22.5t28 8.5t27.5 -8t17 -23l512 -1331q14 -31 41 -31h134q31 0 30 -30q0 -31 -30 -31h-390q-31 0 -30 31q0 31 30 30h123q35 0 21 31l-146 379q-12 29 -49 29h-581q-37 0 -50 -29l-145 -379q-16 -31 20 -31h123 q31 0 31 -30q0 -31 -31 -31h-389q-31 0 -30 31zM449 592q-16 -31 22 -31h541q37 0 22 31l-280 729q-4 12 -12.5 12t-12.5 -12zM518 1843q0 12 17 21q10 10 20 10q12 0 23 -19l182 -260q8 -10 8 -20t-14 -21q-12 -6 -21 -6q-14 0 -22 13l-185 262q-8 10 -8 20z" />
<glyph unicode="&#xc1;" horiz-adv-x="1482" d="M-20 31q0 31 30 30h133q25 0 41 31l512 1331q4 14 17.5 22.5t28 8.5t27.5 -8t17 -23l512 -1331q14 -31 41 -31h134q31 0 30 -30q0 -31 -30 -31h-390q-31 0 -30 31q0 31 30 30h123q35 0 21 31l-146 379q-12 29 -49 29h-581q-37 0 -50 -29l-145 -379q-16 -31 20 -31h123 q31 0 31 -30q0 -31 -31 -31h-389q-31 0 -30 31zM449 592q-16 -31 22 -31h541q37 0 22 31l-280 729q-4 12 -12.5 12t-12.5 -12zM711 1575q0 10 8 20l182 260q10 18 23 19q10 0 20 -10q16 -8 17 -21q0 -10 -9 -20l-184 -262q-10 -12 -25 -13q-8 0 -18 6q-14 10 -14 21z" />
<glyph unicode="&#xc2;" horiz-adv-x="1482" d="M-20 31q0 31 30 30h133q25 0 41 31l512 1331q4 14 17.5 22.5t28 8.5t27.5 -8t17 -23l512 -1331q14 -31 41 -31h134q31 0 30 -30q0 -31 -30 -31h-390q-31 0 -30 31q0 31 30 30h123q35 0 21 31l-146 379q-12 29 -49 29h-581q-37 0 -50 -29l-145 -379q-16 -31 20 -31h123 q31 0 31 -30q0 -31 -31 -31h-389q-31 0 -30 31zM449 592q-16 -31 22 -31h541q37 0 22 31l-280 729q-4 12 -12.5 12t-12.5 -12zM475 1537.5q0 11.5 10 21.5l220 223q18 18 34 18t33 -16l225 -225q12 -10 12.5 -21.5t-11 -22t-22.5 -10.5t-22 11l-196 194q-18 18 -37 0 l-193 -194q-10 -10 -20 -10.5t-21.5 10t-11.5 22z" />
<glyph unicode="&#xc3;" horiz-adv-x="1482" d="M-20 31q0 31 30 30h133q25 0 41 31l512 1331q4 14 17.5 22.5t28 8.5t27.5 -8t17 -23l512 -1331q14 -31 41 -31h134q31 0 30 -30q0 -31 -30 -31h-390q-31 0 -30 31q0 31 30 30h123q35 0 21 31l-146 379q-12 29 -49 29h-581q-37 0 -50 -29l-145 -379q-16 -31 20 -31h123 q31 0 31 -30q0 -31 -31 -31h-389q-31 0 -30 31zM449 592q-16 -31 22 -31h541q37 0 22 31l-280 729q-4 12 -12.5 12t-12.5 -12zM485 1559q0 88 40 136t104 48q45 0 77.5 -23.5t49 -53.5t42 -53.5t56.5 -23.5q82 0 82 123q0 31 30.5 31t30.5 -31q0 -90 -39.5 -137t-103.5 -47 q-45 0 -78 23.5t-49 53t-42 53t-56 23.5q-82 0 -82 -122q0 -31 -31 -31t-31 31z" />
<glyph unicode="&#xc4;" horiz-adv-x="1482" d="M-20 31q0 31 30 30h133q25 0 41 31l512 1331q4 14 17.5 22.5t28 8.5t27.5 -8t17 -23l512 -1331q14 -31 41 -31h134q31 0 30 -30q0 -31 -30 -31h-390q-31 0 -30 31q0 31 30 30h123q35 0 21 31l-146 379q-12 29 -49 29h-581q-37 0 -50 -29l-145 -379q-16 -31 20 -31h123 q31 0 31 -30q0 -31 -31 -31h-389q-31 0 -30 31zM449 592q-16 -31 22 -31h541q37 0 22 31l-280 729q-4 12 -12.5 12t-12.5 -12zM495.5 1607.5q0.5 34.5 24 58.5t58 24t58 -24t23.5 -58.5t-23.5 -58t-58 -24t-59.5 22.5q-23 25 -22.5 59.5zM823 1607.5q0 34.5 23.5 58.5 t58.5 24t58.5 -24t23.5 -58.5t-23.5 -58t-58 -24t-59.5 22.5q-23 25 -23 59.5z" />
<glyph unicode="&#xc5;" horiz-adv-x="1484" d="M-20 31q0 31 30 30h133q25 0 41 31l504 1309q-109 37 -108 155q0 70 45 117t116 47q72 0 119 -47t47 -117q0 -55 -29.5 -97t-82.5 -58l503 -1309q14 -31 41 -31h134q31 0 30 -30q0 -31 -30 -31h-390q-31 0 -30 31q0 31 30 30h123q35 0 21 31l-146 379q-12 29 -49 29h-581 q-37 0 -50 -29l-145 -379q-16 -31 20 -31h123q31 0 31 -30q0 -31 -31 -31h-389q-31 0 -30 31zM449 592q-16 -31 22 -31h541q37 0 22 31l-280 729q-4 12 -12.5 12t-12.5 -12zM641 1556q0 -47 29.5 -74.5t70.5 -27.5t71 27.5t30 74.5t-30 75t-71 28t-70.5 -27.5t-29.5 -75.5z " />
<glyph unicode="&#xc6;" horiz-adv-x="1974" d="M-49 31q0 31 31 30h133q25 0 41 31l721 1301q18 41 53 41h885q31 0 30 -31v-287q0 -31 -30 -31q-31 0 -31 31v225q0 31 -31 31h-645q-31 0 -31 -31v-553q0 -31 31 -30h461q31 0 30 30v103q0 31 31 31t31 -31v-328q0 -31 -31 -31t-31 31v103q0 31 -30 30h-461 q-31 0 -31 -30v-574q0 -31 31 -31h666q31 0 30 31v225q0 31 31 31t31 -31v-286q0 -31 -31 -31h-973q-31 0 -31 31t31 30h123q31 0 31 31v430q0 31 -31 31h-469q-37 0 -49 -29l-240 -432q-16 -31 21 -31h123q31 0 30 -30q0 -31 -30 -31h-389q-31 0 -31 31zM535 645 q-16 -31 22 -31h428q31 0 31 31v696q0 31 -31 31h-22q-27 0 -41 -31z" />
<glyph unicode="&#xc7;" horiz-adv-x="1425" d="M121 717q0 319 180 526q180 211 465 211q248 0 448 -174q33 -27 33 20v103q0 31 31 31t31 -31v-389q0 -31 -31 -31t-31 31v143q-55 63 -129 117q-168 119 -352 119q-252 0 -418 -193q-166 -195 -166 -483q0 -295 172 -486q172 -190 453 -190q141 0 261 47t208 139 q20 20 43 0q20 -23 0 -43q-98 -96 -222 -150t-290 -54q-309 0 -498 206q-188 212 -188 531zM721 -338q0 31 31 31q143 0 143 82q0 35 -25.5 58.5t-76.5 23.5h-31q-31 0 -31 30v113q0 31 31 31t31 -31v-82q76 0 119.5 -40t43.5 -103q0 -66 -50 -105t-154 -39q-31 0 -31 31z " />
<glyph unicode="&#xc8;" horiz-adv-x="1257" d="M94 30.5q0 30.5 31 30.5h143q31 0 31 31v1249q0 31 -31 31h-143q-31 0 -31 31t31 31h973q31 0 30 -31v-287q0 -31 -30.5 -31t-30.5 31v225q0 31 -31 31h-645q-31 0 -31 -31v-553q0 -31 31 -30h461q31 0 31 30v103q0 31 30.5 31t30.5 -31v-328q0 -31 -30.5 -31t-30.5 31 v103q0 31 -31 30h-461q-31 0 -31 -30v-574q0 -31 31 -31h666q31 0 30 31v225q0 31 31 31t31 -31v-286q0 -31 -31 -31h-993q-31 0 -31 30.5zM475 1853q0 12 17 21q10 10 20 10q12 0 23 -18l182 -260q8 -10 8 -21q0 -10 -14 -20q-10 -6 -21 -6q-12 0 -22 12l-185 262 q-8 10 -8 20z" />
<glyph unicode="&#xc9;" horiz-adv-x="1257" d="M94 30.5q0 30.5 31 30.5h143q31 0 31 31v1249q0 31 -31 31h-143q-31 0 -31 31t31 31h973q31 0 30 -31v-287q0 -31 -30.5 -31t-30.5 31v225q0 31 -31 31h-645q-31 0 -31 -31v-553q0 -31 31 -30h461q31 0 31 30v103q0 31 30.5 31t30.5 -31v-328q0 -31 -30.5 -31t-30.5 31 v103q0 31 -31 30h-461q-31 0 -31 -30v-574q0 -31 31 -31h666q31 0 30 31v225q0 31 31 31t31 -31v-286q0 -31 -31 -31h-993q-31 0 -31 30.5zM598 1565q0 10 8 20l182 260q10 18 23 19q10 0 20 -11q16 -8 17 -20q0 -10 -8 -21l-185 -262q-10 -12 -22 -12q-10 0 -21 6 q-14 10 -14 21z" />
<glyph unicode="&#xca;" horiz-adv-x="1257" d="M94 30.5q0 30.5 31 30.5h143q31 0 31 31v1249q0 31 -31 31h-143q-31 0 -31 31t31 31h973q31 0 30 -31v-287q0 -31 -30.5 -31t-30.5 31v225q0 31 -31 31h-645q-31 0 -31 -31v-553q0 -31 31 -30h461q31 0 31 30v103q0 31 30.5 31t30.5 -31v-328q0 -31 -30.5 -31t-30.5 31 v103q0 31 -31 30h-461q-31 0 -31 -30v-574q0 -31 31 -31h666q31 0 30 31v225q0 31 31 31t31 -31v-286q0 -31 -31 -31h-993q-31 0 -31 30.5zM375 1590.5q0 11.5 10 21.5l219 223q18 18 35 18q16 0 33 -16l225 -225q10 -10 10 -21.5t-10 -21.5t-21.5 -10t-21.5 10l-197 194 q-18 18 -36 0l-193 -194q-10 -10 -21.5 -10t-21.5 10t-10 21.5z" />
<glyph unicode="&#xcb;" horiz-adv-x="1257" d="M94 30.5q0 30.5 31 30.5h143q31 0 31 31v1249q0 31 -31 31h-143q-31 0 -31 31t31 31h973q31 0 30 -31v-287q0 -31 -30.5 -31t-30.5 31v225q0 31 -31 31h-645q-31 0 -31 -31v-553q0 -31 31 -30h461q31 0 31 30v103q0 31 30.5 31t30.5 -31v-328q0 -31 -30.5 -31t-30.5 31 v103q0 31 -31 30h-461q-31 0 -31 -30v-574q0 -31 31 -31h666q31 0 30 31v225q0 31 31 31t31 -31v-286q0 -31 -31 -31h-993q-31 0 -31 30.5zM416 1659q0 35 23.5 58.5t58 23.5t58.5 -23.5t24 -58.5t-24 -58.5t-58.5 -23.5t-58 23.5t-23.5 58.5zM743 1659q0 35 24 58.5 t58.5 23.5t58 -23.5t23.5 -58.5t-23.5 -58.5t-58 -23.5t-58.5 23.5t-24 58.5z" />
<glyph unicode="&#xcc;" horiz-adv-x="659" d="M94 30.5q0 30.5 31 30.5h143q31 0 31 31v1249q0 31 -31 31h-143q-31 0 -31 31t31 31h410q31 0 30.5 -31t-30.5 -31h-144q-31 0 -31 -31v-1249q0 -31 31 -31h144q31 0 30.5 -30.5t-30.5 -30.5h-410q-31 0 -31 30.5zM102 1833q0 12 17 20q10 10 20 11q12 0 23 -19l182 -260 q8 -10 8 -20t-14 -21q-10 -6 -21 -6q-12 0 -22 12l-184 262q-8 10 -9 21z" />
<glyph unicode="&#xcd;" horiz-adv-x="659" d="M94 30.5q0 30.5 31 30.5h143q31 0 31 31v1249q0 31 -31 31h-143q-31 0 -31 31t31 31h410q31 0 30.5 -31t-30.5 -31h-144q-31 0 -31 -31v-1249q0 -31 31 -31h144q31 0 30.5 -30.5t-30.5 -30.5h-410q-31 0 -31 30.5zM287 1565q0 10 8 20l182 260q10 18 23 19q10 0 20 -11 q16 -8 17 -20q0 -10 -9 -21l-184 -262q-10 -12 -22 -12q-10 0 -21 6q-14 10 -14 21z" />
<glyph unicode="&#xce;" horiz-adv-x="659" d="M63.5 1590.5q-0.5 11.5 10.5 21.5l219 223q18 18 35 18q16 0 32 -16l226 -225q10 -10 10 -21.5t-10 -21.5q-20 -20 -43 0l-197 194q-18 18 -37 0l-192 -194q-23 -20 -43 0q-10 10 -10.5 21.5zM94 30.5q0 30.5 31 30.5h143q31 0 31 31v1249q0 31 -31 31h-143q-31 0 -31 31 t31 31h410q31 0 30.5 -31t-30.5 -31h-144q-31 0 -31 -31v-1249q0 -31 31 -31h144q31 0 30.5 -30.5t-30.5 -30.5h-410q-31 0 -31 30.5z" />
<glyph unicode="&#xcf;" horiz-adv-x="659" d="M84 1659q0 35 23.5 58.5t58.5 23.5t58.5 -23.5t23.5 -58.5t-23.5 -58.5t-58.5 -23.5t-58.5 23.5t-23.5 58.5zM94 30.5q0 30.5 31 30.5h143q31 0 31 31v1249q0 31 -31 31h-143q-31 0 -31 31t31 31h410q31 0 30.5 -31t-30.5 -31h-144q-31 0 -31 -31v-1249q0 -31 31 -31h144 q31 0 30.5 -30.5t-30.5 -30.5h-410q-31 0 -31 30.5zM412 1659q0 35 23.5 58.5t58 23.5t58 -23.5t23.5 -58.5t-23.5 -58.5t-58 -23.5t-58 23.5t-23.5 58.5z" />
<glyph unicode="&#xd0;" horiz-adv-x="1503" d="M94 30.5q0 30.5 31 30.5h143q31 0 31 31v563q0 31 -31 31h-143q-31 0 -31 31t31 31h143q31 0 31 30v563q0 31 -31 31h-143q-31 0 -31 31t31 31h573q309 0 497.5 -205t188.5 -512t-188 -512t-498 -205h-573q-31 0 -31 30.5zM360 92q0 -31 31 -31h307q279 0 452 186.5 t173 469t-173 469t-452 186.5h-307q-31 0 -31 -31v-563q0 -31 31 -30h144q31 0 30.5 -31t-30.5 -31h-144q-31 0 -31 -31v-563z" />
<glyph unicode="&#xd1;" horiz-adv-x="1607" d="M94 30.5q0 30.5 31 30.5h143q31 0 31 31v1249q0 31 -31 31h-143q-31 0 -31 31t31 31h225q33 0 51 -31l840 -1280q4 -8 12.5 -7t8.5 17v1208q0 31 -31 31h-123q-31 0 -31 31t31 31h389q31 0 31 -31t-31 -31h-143q-31 0 -31 -31v-1249q0 -31 31 -31h143q31 0 31 -30.5 t-31 -30.5h-225q-33 0 -51 31l-840 1280q-4 8 -12.5 7t-8.5 -18v-1208q0 -31 31 -31h123q31 0 31 -30.5t-31 -30.5h-389q-31 0 -31 30.5zM535 1608q0 88 39.5 136t103.5 48q45 0 77.5 -23.5t49 -53t42 -53.5t56.5 -24q82 0 82 123q0 31 31 31t31 -31q0 -90 -40 -137 t-104 -47q-45 0 -77.5 23.5t-49 53t-42 53.5t-56.5 24q-82 0 -82 -123q0 -31 -30.5 -31t-30.5 31z" />
<glyph unicode="&#xd2;" horiz-adv-x="1609" d="M119 716.5q0 321.5 188.5 529.5t497.5 208t497.5 -208t188.5 -529.5t-188.5 -529t-497.5 -207.5t-497.5 207.5t-188.5 529zM180 717q0 -295 172 -485.5t452.5 -190.5t453 190.5t172.5 485.5t-172.5 485.5t-453 190.5t-452.5 -190.5t-172 -485.5zM598 1853q0 12 16 21 q10 10 21 10q12 0 22 -18l183 -260q8 -10 8 -21q0 -10 -14 -20q-10 -6 -21 -6q-12 0 -22 12l-185 262q-8 10 -8 20z" />
<glyph unicode="&#xd3;" horiz-adv-x="1609" d="M119 716.5q0 321.5 188.5 529.5t497.5 208t497.5 -208t188.5 -529.5t-188.5 -529t-497.5 -207.5t-497.5 207.5t-188.5 529zM180 717q0 -295 172 -485.5t452.5 -190.5t453 190.5t172.5 485.5t-172.5 485.5t-453 190.5t-452.5 -190.5t-172 -485.5zM762 1585q0 11 8 21 l182 260q10 18 23 18q10 0 20 -10q16 -8 17 -21q0 -10 -8 -20l-185 -262q-10 -12 -22 -12q-10 0 -21 6q-14 10 -14 20z" />
<glyph unicode="&#xd4;" horiz-adv-x="1609" d="M119 716.5q0 321.5 188.5 529.5t497.5 208t497.5 -208t188.5 -529.5t-188.5 -529t-497.5 -207.5t-497.5 207.5t-188.5 529zM180 717q0 -295 172 -485.5t452.5 -190.5t453 190.5t172.5 485.5t-172.5 485.5t-453 190.5t-452.5 -190.5t-172 -485.5zM539 1590.5 q0 11.5 10 21.5l219 223q18 18 35 18q16 0 33 -16l225 -225q10 -10 10 -21.5t-10 -21.5t-21.5 -10t-21.5 10l-197 194q-18 18 -37 0l-192 -194q-10 -10 -21.5 -10t-21.5 10t-10 21.5z" />
<glyph unicode="&#xd5;" horiz-adv-x="1609" d="M119 716.5q0 321.5 188.5 529.5t497.5 208t497.5 -208t188.5 -529.5t-188.5 -529t-497.5 -207.5t-497.5 207.5t-188.5 529zM180 717q0 -295 172 -485.5t452.5 -190.5t453 190.5t172.5 485.5t-172.5 485.5t-453 190.5t-452.5 -190.5t-172 -485.5zM549 1608q0 88 40 136 t103 48q45 0 78 -23.5t49.5 -53t42 -53.5t56.5 -24q82 0 81 123q0 31 31 31t31 -31q0 -90 -40 -137t-103 -47q-45 0 -78 23.5t-49.5 53t-42 53.5t-56.5 24q-82 0 -82 -123q0 -31 -30.5 -31t-30.5 31z" />
<glyph unicode="&#xd6;" horiz-adv-x="1609" d="M119 716.5q0 321.5 188.5 529.5t497.5 208t497.5 -208t188.5 -529.5t-188.5 -529t-497.5 -207.5t-497.5 207.5t-188.5 529zM180 717q0 -295 172 -485.5t452.5 -190.5t453 190.5t172.5 485.5t-172.5 485.5t-453 190.5t-452.5 -190.5t-172 -485.5zM559 1679.5 q0 34.5 23.5 58t58.5 23.5t58.5 -23.5t23.5 -58t-23.5 -58.5t-58.5 -24t-58.5 24t-23.5 58.5zM887 1679.5q0 34.5 23.5 58t58.5 23.5t58.5 -23.5t23.5 -58t-23.5 -58.5t-58.5 -24t-58.5 24t-23.5 58.5z" />
<glyph unicode="&#xd7;" horiz-adv-x="935" d="M150 998.5q0 11.5 10 23.5q10 10 21.5 10t21.5 -10l239 -240q20 -20 43 0l246 246q10 10 21.5 10t23.5 -10q10 -10 10 -21.5t-10 -21.5l-248 -246q-20 -23 0 -43l240 -239q10 -10 10 -21.5t-10 -22t-21.5 -10.5t-21.5 11l-240 237q-23 20 -43 0l-231 -231 q-10 -10 -21.5 -10t-21.5 10t-10 21.5t10 21.5l231 231q20 25 0 45l-239 238q-10 10 -10 21.5z" />
<glyph unicode="&#xd8;" horiz-adv-x="1609" d="M119 717q0 322 188.5 529.5t497.5 207.5q207 0 373 -104l45 67q16 23 41 10q29 -20 8 -41l-45 -69q264 -207 264 -600q0 -322 -188.5 -529.5t-497.5 -207.5q-211 0 -375 102l-43 -68q-16 -23 -41 -10q-29 16 -10 43l45 70q-262 211 -262 600zM180 717q0 -352 236 -547 l729 1126q-145 96 -340 97q-281 0 -453 -190.5t-172 -485.5zM465 135q143 -94 340 -94q281 0 453 190.5t172 485.5q0 356 -238 547z" />
<glyph unicode="&#xd9;" horiz-adv-x="1589" d="M57 1403q0 31 31 31h389q31 0 31 -31t-31 -31h-123q-31 0 -30 -31v-829q0 -213 133 -342t337.5 -129t338 129t133.5 342v829q0 31 -31 31h-123q-31 0 -31 31t31 31h389q31 0 31 -31t-31 -31h-143q-31 0 -31 -31v-829q0 -236 -150.5 -384t-382 -148t-382 148t-150.5 384 v829q0 31 -31 31h-143q-31 0 -31 31zM629 1833q0 12 16 20q10 10 21 11q12 0 22 -19l182 -260q8 -10 9 -20q0 -10 -15 -21q-12 -6 -22 -6q-12 0 -21 12l-184 262q-8 10 -8 21z" />
<glyph unicode="&#xda;" horiz-adv-x="1589" d="M57 1403q0 31 31 31h389q31 0 31 -31t-31 -31h-123q-31 0 -30 -31v-829q0 -213 133 -342t337.5 -129t338 129t133.5 342v829q0 31 -31 31h-123q-31 0 -31 31t31 31h389q31 0 31 -31t-31 -31h-143q-31 0 -31 -31v-829q0 -236 -150.5 -384t-382 -148t-382 148t-150.5 384 v829q0 31 -31 31h-143q-31 0 -31 31zM752 1565q0 10 8 20l182 260q10 18 23 19q10 0 20 -11q16 -8 16 -20q0 -10 -8 -21l-184 -262q-10 -12 -23 -12q-10 0 -20 6q-14 10 -14 21z" />
<glyph unicode="&#xdb;" horiz-adv-x="1589" d="M57 1403q0 31 31 31h389q31 0 31 -31t-31 -31h-123q-31 0 -30 -31v-829q0 -213 133 -342t337.5 -129t338 129t133.5 342v829q0 31 -31 31h-123q-31 0 -31 31t31 31h389q31 0 31 -31t-31 -31h-143q-31 0 -31 -31v-829q0 -236 -150.5 -384t-382 -148t-382 148t-150.5 384 v829q0 31 -31 31h-143q-31 0 -31 31zM528.5 1590.5q0.5 11.5 10.5 21.5l219 223q18 18 35 18q16 0 32 -16l226 -225q10 -10 10 -21.5t-10.5 -21.5t-21.5 -10t-21 10l-197 194q-18 18 -37 0l-192 -194q-10 -10 -21.5 -10t-22 10t-10 21.5z" />
<glyph unicode="&#xdc;" horiz-adv-x="1589" d="M57 1403q0 31 31 31h389q31 0 31 -31t-31 -31h-123q-31 0 -30 -31v-829q0 -213 133 -342t337.5 -129t338 129t133.5 342v829q0 31 -31 31h-123q-31 0 -31 31t31 31h389q31 0 31 -31t-31 -31h-143q-31 0 -31 -31v-829q0 -236 -150.5 -384t-382 -148t-382 148t-150.5 384 v829q0 31 -31 31h-143q-31 0 -31 31zM548.5 1659q0.5 35 24 58.5t58.5 23.5t58.5 -23.5t23.5 -58.5t-23.5 -58.5t-58.5 -24t-60 22.5q-23 25 -22.5 60zM876.5 1659q0.5 35 24 58.5t58 23.5t58 -23.5t23.5 -58.5t-23.5 -58.5t-58 -24t-59.5 22.5q-23 25 -22.5 60z" />
<glyph unicode="&#xdd;" horiz-adv-x="1284" d="M-21 1403q0 31 31 31h389q31 0 31 -31t-31 -31h-123q-16 0 -22 -9t2 -22l371 -647q14 -20 28 0l373 647q8 12 2 21.5t-22 9.5h-123q-31 0 -31 31t31 31h389q31 0 31 -31t-31 -31h-123q-33 0 -51 -31l-426 -739v-510q0 -31 31 -31h143q31 0 31 -30.5t-31 -30.5h-410 q-31 0 -30.5 30.5t30.5 30.5h144q31 0 30 31v506l-428 743q-18 31 -51 31h-123q-31 0 -31 31zM618 1565q1 10 9 20l182 260q10 18 22 19q10 0 21 -11q16 -8 16 -20q0 -10 -8 -21l-184 -262q-10 -12 -23 -12q-10 0 -20 6q-14 10 -15 21z" />
<glyph unicode="&#xde;" horiz-adv-x="1249" d="M94 31q0 31 31 30h143q31 0 31 31v1249q0 31 -31 31h-143q-31 0 -31 31t31 31h410q31 0 30 -31q0 -31 -30 -31h-144q-31 0 -31 -31v-102q0 -31 31 -31h215q264 0 414 -133q150 -131 149 -358q0 -227 -149 -359q-150 -133 -414 -133h-215q-31 0 -31 -30v-103q0 -31 31 -31 h144q31 0 30 -30q0 -31 -30 -31h-410q-31 0 -31 31zM360 317q0 -31 31 -30h215q242 0 372 112.5t130 317.5t-130 317.5t-372 112.5h-215q-31 0 -31 -31v-799z" />
<glyph unicode="&#xdf;" horiz-adv-x="1312" d="M73 30.5q0 30.5 31 30.5h144q31 0 31 31v840q0 31 -31 31h-144q-31 0 -30.5 30.5t30.5 30.5h144q31 0 31 31v20q0 182 103 280.5t265 98.5q152 0 250 -82t98 -205q0 -66 -36.5 -110.5t-80.5 -72.5t-81 -64.5t-37 -79.5q0 -61 50 -111.5t123 -89.5t145.5 -87t122.5 -119 t50 -167q0 -119 -96 -202.5t-252 -83.5q-256 0 -409 204q-25 29 4 47q25 16 39 -4q135 -186 366 -186q135 0 211 64.5t76 160.5q0 72 -37 130.5t-92 95.5l-117 77l-119 72q-53 33 -90 85t-37 114q0 57 37 101t81 72.5t81 65.5t37 88q0 100 -79 163t-208 63q-143 0 -225 -80 t-82 -238v-1044q0 -31 -31 -31h-205q-31 0 -31 30.5z" />
<glyph unicode="&#xe0;" d="M84 287q0 63 27.5 119.5t81 97.5t129 65.5t172.5 24.5h337q31 0 31 31v82q0 57 -23.5 108t-65.5 88t-101.5 58.5t-128.5 21.5q-123 0 -207 -36t-125 -68q-27 -20 -43 4q-18 25 4 41q55 45 147.5 82.5t223.5 37.5q172 0 276 -98q104 -96 105 -239v-615q0 -31 30 -31h144 q31 0 30 -30q0 -31 -30 -31h-205q-31 0 -31 31v114q0 20 -8 28.5t-25 -7.5q-55 -70 -149 -127q-102 -59 -227 -59q-90 0 -159 23.5t-116 64.5t-70.5 97t-23.5 122zM145 287q0 -109 79 -177.5t229 -68.5q168 0 305 137q29 29 55.5 63.5t48.5 75.5v185q0 31 -31 30h-337 q-178 0 -263.5 -69.5t-85.5 -175.5zM340 1464q0 12 16 21q10 10 21 10q12 0 22 -18l183 -260q8 -10 8 -21q0 -10 -15 -20q-10 -6 -20 -7q-12 0 -23 13l-184 262q-8 10 -8 20z" />
<glyph unicode="&#xe1;" d="M84 287q0 63 27.5 119.5t81 97.5t129 65.5t172.5 24.5h337q31 0 31 31v82q0 57 -23.5 108t-65.5 88t-101.5 58.5t-128.5 21.5q-123 0 -207 -36t-125 -68q-27 -20 -43 4q-18 25 4 41q55 45 147.5 82.5t223.5 37.5q172 0 276 -98q104 -96 105 -239v-615q0 -31 30 -31h144 q31 0 30 -30q0 -31 -30 -31h-205q-31 0 -31 31v114q0 20 -8 28.5t-25 -7.5q-55 -70 -149 -127q-102 -59 -227 -59q-90 0 -159 23.5t-116 64.5t-70.5 97t-23.5 122zM145 287q0 -109 79 -177.5t229 -68.5q168 0 305 137q29 29 55.5 63.5t48.5 75.5v185q0 31 -31 30h-337 q-178 0 -263.5 -69.5t-85.5 -175.5zM504 1196q0 11 8 21l182 260q10 18 23 18q10 0 20 -10q16 -8 17 -21q0 -10 -9 -20l-184 -262q-10 -12 -22 -13q-10 0 -21 7q-14 10 -14 20z" />
<glyph unicode="&#xe2;" d="M84 287q0 63 27.5 119.5t81 97.5t129 65.5t172.5 24.5h337q31 0 31 31v82q0 57 -23.5 108t-65.5 88t-101.5 58.5t-128.5 21.5q-123 0 -207 -36t-125 -68q-27 -20 -43 4q-18 25 4 41q55 45 147.5 82.5t223.5 37.5q172 0 276 -98q104 -96 105 -239v-615q0 -31 30 -31h144 q31 0 30 -30q0 -31 -30 -31h-205q-31 0 -31 31v114q0 20 -8 28.5t-25 -7.5q-55 -70 -149 -127q-102 -59 -227 -59q-90 0 -159 23.5t-116 64.5t-70.5 97t-23.5 122zM145 287q0 -109 79 -177.5t229 -68.5q168 0 305 137q29 29 55.5 63.5t48.5 75.5v185q0 31 -31 30h-337 q-178 0 -263.5 -69.5t-85.5 -175.5zM281 1179.5q0 10.5 10 22.5l219 223q18 18 35 19q16 0 33 -17l225 -225q10 -12 10 -22.5t-10 -20.5t-21.5 -10t-21.5 10l-197 195q-18 18 -37 0l-192 -195q-12 -10 -22.5 -10t-20.5 10t-10 20.5z" />
<glyph unicode="&#xe3;" d="M84 287q0 63 27.5 119.5t81 97.5t129 65.5t172.5 24.5h337q31 0 31 31v82q0 57 -23.5 108t-65.5 88t-101.5 58.5t-128.5 21.5q-123 0 -207 -36t-125 -68q-27 -20 -43 4q-18 25 4 41q55 45 147.5 82.5t223.5 37.5q172 0 276 -98q104 -96 105 -239v-615q0 -31 30 -31h144 q31 0 30 -30q0 -31 -30 -31h-205q-31 0 -31 31v114q0 20 -8 28.5t-25 -7.5q-55 -70 -149 -127q-102 -59 -227 -59q-90 0 -159 23.5t-116 64.5t-70.5 97t-23.5 122zM145 287q0 -109 79 -177.5t229 -68.5q168 0 305 137q29 29 55.5 63.5t48.5 75.5v185q0 31 -31 30h-337 q-178 0 -263.5 -69.5t-85.5 -175.5zM291 1198q0 88 40 136t103 48q45 0 78 -23.5t49.5 -53t42 -53t55.5 -23.5q82 0 82 123q0 31 31 30.5t31 -30.5q0 -90 -40 -137.5t-104 -47.5q-45 0 -77.5 23.5t-49 53.5t-42 53.5t-56.5 23.5q-82 0 -82 -123q0 -31 -30.5 -31t-30.5 31z " />
<glyph unicode="&#xe4;" d="M84 287q0 63 27.5 119.5t81 97.5t129 65.5t172.5 24.5h337q31 0 31 31v82q0 57 -23.5 108t-65.5 88t-101.5 58.5t-128.5 21.5q-123 0 -207 -36t-125 -68q-27 -20 -43 4q-18 25 4 41q55 45 147.5 82.5t223.5 37.5q172 0 276 -98q104 -96 105 -239v-615q0 -31 30 -31h144 q31 0 30 -30q0 -31 -30 -31h-205q-31 0 -31 31v114q0 20 -8 28.5t-25 -7.5q-55 -70 -149 -127q-102 -59 -227 -59q-90 0 -159 23.5t-116 64.5t-70.5 97t-23.5 122zM145 287q0 -109 79 -177.5t229 -68.5q168 0 305 137q29 29 55.5 63.5t48.5 75.5v185q0 31 -31 30h-337 q-178 0 -263.5 -69.5t-85.5 -175.5zM321.5 1249.5q0.5 34.5 24 58t58 23.5t58 -23.5t23.5 -58.5t-23.5 -58.5t-58 -23.5t-59.5 23q-23 25 -22.5 59.5zM649 1249.5q0 34.5 23.5 58t58.5 23.5t58.5 -23.5t23.5 -58.5t-23.5 -58.5t-58 -23.5t-59.5 23q-23 25 -23 59.5z" />
<glyph unicode="&#xe5;" d="M84 287q0 63 27.5 119.5t81 97.5t129 65.5t172.5 24.5h337q31 0 31 31v82q0 57 -23.5 108t-65.5 88t-101.5 58.5t-128.5 21.5q-123 0 -207 -36t-125 -68q-27 -20 -43 4q-18 25 4 41q55 45 147.5 82.5t223.5 37.5q172 0 276 -98q104 -96 105 -239v-615q0 -31 30 -31h144 q31 0 30 -30q0 -31 -30 -31h-205q-31 0 -31 31v114q0 20 -8 28.5t-25 -7.5q-55 -70 -149 -127q-102 -59 -227 -59q-90 0 -159 23.5t-116 64.5t-70.5 97t-23.5 122zM145 287q0 -109 79 -177.5t229 -68.5q168 0 305 137q29 29 55.5 63.5t48.5 75.5v185q0 31 -31 30h-337 q-178 0 -263.5 -69.5t-85.5 -175.5zM383 1310.5q0 69.5 46 117t117.5 47.5t118 -47.5t46.5 -117t-46.5 -116.5t-118 -47t-118.5 47q-45 47 -45 116.5zM444 1310.5q0 -46.5 28 -74.5t75 -28t74.5 28t27.5 75t-27.5 74.5t-74.5 27.5t-76 -29q-27 -27 -27 -73.5z" />
<glyph unicode="&#xe6;" horiz-adv-x="1918" d="M86 287q0 143 105.5 225t304.5 82h358q31 0 31 31v82q0 57 -23.5 108t-66.5 88t-106.5 58.5t-143.5 21.5q-123 0 -207 -36t-125 -68q-27 -20 -43 4q-18 25 4 41q55 45 147.5 82.5t223.5 37.5q166 0 267 -74.5t126 -191.5q61 125 171 195.5t247 70.5q199 0 334 -129 q137 -129 137 -290v-31q0 -61 -62 -62h-788q-31 0 -31 -30q0 -92 29 -179t86 -153q113 -129 295 -129q80 0 140 15.5t104.5 38t76 48t54.5 45.5q14 12 24 7t21 -15q20 -25 -2 -43q-27 -25 -65 -52.5t-88 -51t-115.5 -38.5t-149.5 -15q-147 0 -261 77.5t-167 214.5 q-72 -127 -197 -209q-127 -84 -256 -83q-199 0 -294 79.5t-95 227.5zM147 287q0 -246 328 -246q168 0 305 137q29 29 55.5 63.5t49.5 75.5v185q0 31 -31 30h-358q-348 0 -349 -245zM954 625q-6 -31 29 -31h752q31 0 30 31q0 135 -120 245q-119 113 -289 113 q-178 0 -295 -131q-43 -49 -70 -99t-37 -128z" />
<glyph unicode="&#xe7;" horiz-adv-x="1146" d="M104 512q0 236 129 383q129 150 322 149q203 0 356 -153q18 -16 25.5 -8t7.5 28v82q0 31 31 31t31 -31v-327q0 -31 -31 -31t-31 31v102q-49 63 -102 106q-133 109 -287 109q-166 0 -279 -131q-111 -133 -110 -340q0 -215 117 -344q117 -127 303 -127q80 0 140 15.5 t104 38t76 48t55 45.5q14 12 24 7t21 -15q20 -25 -2 -43q-27 -25 -65 -52.5t-88 -51t-115.5 -38.5t-149.5 -15q-217 0 -348 147q-133 150 -134 385zM530 -338q0 31 31 31q143 0 144 82q0 35 -26 58.5t-77 23.5h-31q-31 0 -30 30v113q0 31 30.5 31t30.5 -31v-82q76 0 120 -40 t44 -103q0 -66 -50 -105t-155 -39q-31 0 -31 31z" />
<glyph unicode="&#xe8;" horiz-adv-x="1161" d="M106 512q0 233 134 385q131 147 348 147q211 0 346 -135t135 -325v-31q0 -61 -61 -61h-807q-35 0 -31 -31q12 -178 115 -293q117 -127 303 -127q80 0 140 15.5t104.5 38t76 48t54.5 45.5q14 12 24 7t21 -15q20 -25 -2 -43q-27 -25 -65 -52.5t-88 -51t-115.5 -38.5 t-149.5 -15q-217 0 -348 147q-133 152 -134 385zM172 584q-4 -31 29 -31h776q31 0 31 31q0 164 -121 280q-119 119 -299 119q-186 0 -303 -131q-97 -108 -113 -268zM371 1464q0 12 16 21q10 10 21 10q12 0 22 -18l182 -260q8 -10 9 -21q0 -10 -15 -20q-12 -6 -22 -7 q-12 0 -21 13l-184 262q-8 10 -8 20z" />
<glyph unicode="&#xe9;" horiz-adv-x="1161" d="M106 512q0 233 134 385q131 147 348 147q211 0 346 -135t135 -325v-31q0 -61 -61 -61h-807q-35 0 -31 -31q12 -178 115 -293q117 -127 303 -127q80 0 140 15.5t104.5 38t76 48t54.5 45.5q14 12 24 7t21 -15q20 -25 -2 -43q-27 -25 -65 -52.5t-88 -51t-115.5 -38.5 t-149.5 -15q-217 0 -348 147q-133 152 -134 385zM172 584q-4 -31 29 -31h776q31 0 31 31q0 164 -121 280q-119 119 -299 119q-186 0 -303 -131q-97 -108 -113 -268zM555 1196q0 11 8 21l182 260q10 18 23 18q10 0 20 -10q16 -8 17 -21q0 -10 -8 -20l-185 -262 q-10 -12 -22 -13q-10 0 -21 7q-14 10 -14 20z" />
<glyph unicode="&#xea;" horiz-adv-x="1161" d="M106 512q0 233 134 385q131 147 348 147q211 0 346 -135t135 -325v-31q0 -61 -61 -61h-807q-35 0 -31 -31q12 -178 115 -293q117 -127 303 -127q80 0 140 15.5t104.5 38t76 48t54.5 45.5q14 12 24 7t21 -15q20 -25 -2 -43q-27 -25 -65 -52.5t-88 -51t-115.5 -38.5 t-149.5 -15q-217 0 -348 147q-133 152 -134 385zM172 584q-4 -31 29 -31h776q31 0 31 31q0 164 -121 280q-119 119 -299 119q-186 0 -303 -131q-97 -108 -113 -268zM311.5 1180.5q0.5 11.5 10.5 21.5l219 223q18 18 34 19q16 0 33 -17l226 -225q10 -10 10 -21.5t-10.5 -21.5 t-21.5 -10t-21 10l-197 195q-18 18 -37 0l-192 -195q-10 -10 -21.5 -10t-22 10t-10 21.5z" />
<glyph unicode="&#xeb;" horiz-adv-x="1161" d="M106 512q0 233 134 385q131 147 348 147q211 0 346 -135t135 -325v-31q0 -61 -61 -61h-807q-35 0 -31 -31q12 -178 115 -293q117 -127 303 -127q80 0 140 15.5t104.5 38t76 48t54.5 45.5q14 12 24 7t21 -15q20 -25 -2 -43q-27 -25 -65 -52.5t-88 -51t-115.5 -38.5 t-149.5 -15q-217 0 -348 147q-133 152 -134 385zM172 584q-4 -31 29 -31h776q31 0 31 31q0 164 -121 280q-119 119 -299 119q-186 0 -303 -131q-97 -108 -113 -268zM331.5 1270q0.5 35 24 58.5t58.5 23.5t58.5 -23.5t23.5 -58.5t-23.5 -58.5t-58.5 -24t-60 22.5 q-23 25 -22.5 60zM659 1270q0 35 24 58.5t58.5 23.5t58 -23.5t23.5 -58.5t-23.5 -58.5t-58 -24t-59.5 22.5q-23 25 -23 60z" />
<glyph unicode="&#xec;" horiz-adv-x="585" d="M75.5 993.5q0.5 30.5 30.5 30.5h205q31 0 31 -31v-901q0 -31 31 -31h143q31 0 31 -30.5t-31 -30.5h-410q-30 0 -30 30.5t30 30.5h144q31 0 31 31v840q0 31 -31 31h-144q-31 0 -30.5 30.5zM84 1464q0 12 16 21q10 10 21 10q12 0 22 -18l183 -260q8 -10 8 -21 q0 -10 -15 -20q-12 -6 -22 -7q-12 0 -21 13l-184 262q-8 10 -8 20z" />
<glyph unicode="&#xed;" horiz-adv-x="585" d="M75.5 993.5q0.5 30.5 30.5 30.5h205q31 0 31 -31v-901q0 -31 31 -31h143q31 0 31 -30.5t-31 -30.5h-410q-30 0 -30 30.5t30 30.5h144q31 0 31 31v840q0 31 -31 31h-144q-31 0 -30.5 30.5zM248 1196q0 11 8 21l182 260q10 18 23 18q10 0 20 -10q16 -8 17 -21q0 -10 -9 -20 l-184 -262q-10 -12 -22 -13q-10 0 -21 7q-14 10 -14 20z" />
<glyph unicode="&#xee;" horiz-adv-x="585" d="M25 1180.5q0 11.5 10 21.5l219 223q18 18 35 19q16 0 33 -17l225 -225q10 -10 10 -21.5t-10 -21.5q-23 -20 -43 0l-197 195q-18 18 -37 0l-192 -195q-20 -20 -43 0q-10 10 -10 21.5zM75.5 993.5q0.5 30.5 30.5 30.5h205q31 0 31 -31v-901q0 -31 31 -31h143q31 0 31 -30.5 t-31 -30.5h-410q-30 0 -30 30.5t30 30.5h144q31 0 31 31v840q0 31 -31 31h-144q-31 0 -30.5 30.5z" />
<glyph unicode="&#xef;" horiz-adv-x="585" d="M45 1270q0 35 23.5 58.5t58.5 23.5t58.5 -23.5t23.5 -58.5t-23.5 -58.5t-58.5 -23.5t-58.5 23.5t-23.5 58.5zM75.5 993.5q0.5 30.5 30.5 30.5h205q31 0 31 -31v-901q0 -31 31 -31h143q31 0 31 -30.5t-31 -30.5h-410q-30 0 -30 30.5t30 30.5h144q31 0 31 31v840 q0 31 -31 31h-144q-31 0 -30.5 30.5zM373 1270q0 35 23.5 58.5t58 23.5t58.5 -23.5t24 -58.5t-24 -58.5t-58.5 -23.5t-58 23.5t-23.5 58.5z" />
<glyph unicode="&#xf0;" horiz-adv-x="1284" d="M111 481q0 102 36.5 187.5t107.5 145.5t172 94t230 34h318q36 0 26 31q-72 170 -200 293q-25 18 -43 -2l-115 -136q-18 -25 -43 -4q-25 23 -2 45l113 134q23 23 0 34q-188 137 -416 138q-31 0 -31 30q0 31 31 31q238 0 448 -145q27 -20 45 4l127 151q8 12 21 13 q12 0 22 -9q20 -23 7 -43l-127 -151q-18 -20 4 -43q137 -135 215 -317.5t78 -381.5q0 -287 -144 -460q-141 -174 -379 -174q-231 0 -366 135t-135 366zM172 481q0 -209 118 -324.5t322 -115.5q205 0 332 152q129 150 129 421q0 61 -7.5 120t-23.5 116q-12 31 -41 31h-333 q-248 0 -372 -108.5t-124 -291.5z" />
<glyph unicode="&#xf1;" horiz-adv-x="1368" d="M73 30.5q0 30.5 31 30.5h144q31 0 31 31v840q0 31 -31 31h-144q-31 0 -30.5 30.5t30.5 30.5h205q31 0 31 -31v-114q0 -20 8 -28.5t25 7.5q166 186 366 186q188 0 294 -105t106 -304v-543q0 -31 30 -31h144q31 0 30.5 -30.5t-30.5 -30.5h-389q-31 0 -31 30.5t31 30.5h123 q31 0 30 31v543q0 174 -90 261t-248 87q-154 0 -293 -139q-61 -61 -106 -137v-615q0 -31 31 -31h123q31 0 30.5 -30.5t-30.5 -30.5h-390q-31 0 -31 30.5zM453 1198q0 88 39.5 136t103.5 48q45 0 78 -23.5t49 -53t42 -53t56 -23.5q82 0 82 123q0 31 31 30.5t31 -30.5 q0 -90 -40 -137.5t-104 -47.5q-45 0 -77.5 23.5t-49 53.5t-42 53.5t-56.5 23.5q-82 0 -82 -123q0 -31 -30.5 -31t-30.5 31z" />
<glyph unicode="&#xf2;" horiz-adv-x="1212" d="M104 512q0 238 139.5 385t362.5 147t362.5 -147t139.5 -385t-139.5 -385t-362.5 -147t-362.5 147t-139.5 385zM166 512q0 -215 120 -343t320.5 -128t320.5 128t120 343q0 213 -121 342t-319.5 129t-319.5 -129t-121 -342zM399 1464q0 12 17 21q10 10 20 10q12 0 23 -18 l182 -260q8 -10 8 -21q0 -10 -14 -20q-12 -6 -23 -7q-12 0 -20 13l-184 262q-8 10 -9 20z" />
<glyph unicode="&#xf3;" horiz-adv-x="1212" d="M104 512q0 238 139.5 385t362.5 147t362.5 -147t139.5 -385t-139.5 -385t-362.5 -147t-362.5 147t-139.5 385zM166 512q0 -215 120 -343t320.5 -128t320.5 128t120 343q0 213 -121 342t-319.5 129t-319.5 -129t-121 -342zM563 1196q0 11 8 21l183 260q10 18 22 18 q10 0 21 -10q16 -8 16 -21q0 -10 -8 -20l-184 -262q-10 -12 -23 -13q-10 0 -20 7q-14 10 -15 20z" />
<glyph unicode="&#xf4;" horiz-adv-x="1212" d="M104 512q0 238 139.5 385t362.5 147t362.5 -147t139.5 -385t-139.5 -385t-362.5 -147t-362.5 147t-139.5 385zM166 512q0 -215 120 -343t320.5 -128t320.5 128t120 343q0 213 -121 342t-319.5 129t-319.5 -129t-121 -342zM340 1180.5q0 11.5 10 21.5l219 223q18 18 35 19 q16 0 33 -17l225 -225q10 -10 10 -21.5t-10 -21.5t-21.5 -10t-21.5 10l-196 195q-18 18 -37 0l-193 -195q-10 -10 -21.5 -10t-21.5 10t-10 21.5z" />
<glyph unicode="&#xf5;" horiz-adv-x="1212" d="M104 512q0 238 139.5 385t362.5 147t362.5 -147t139.5 -385t-139.5 -385t-362.5 -147t-362.5 147t-139.5 385zM166 512q0 -215 120 -343t320.5 -128t320.5 128t120 343q0 213 -121 342t-319.5 129t-319.5 -129t-121 -342zM350 1198q0 88 40 136t104 48q45 0 77.5 -23.5 t49 -53t42 -53t56.5 -23.5q82 0 82 123q0 31 30.5 30.5t30.5 -30.5q0 -90 -40 -137.5t-103 -47.5q-45 0 -78 23.5t-49.5 53.5t-42 53.5t-55.5 23.5q-82 0 -82 -123q0 -31 -31 -31t-31 31z" />
<glyph unicode="&#xf6;" horiz-adv-x="1212" d="M104 512q0 238 139.5 385t362.5 147t362.5 -147t139.5 -385t-139.5 -385t-362.5 -147t-362.5 147t-139.5 385zM166 512q0 -215 120 -343t320.5 -128t320.5 128t120 343q0 213 -121 342t-319.5 129t-319.5 -129t-121 -342zM360 1270q0 35 24 58.5t58.5 23.5t58 -23.5 t23.5 -58.5t-23.5 -58.5t-58 -23.5t-58.5 23.5t-24 58.5zM688 1270q0 35 23.5 58.5t58.5 23.5t58.5 -23.5t23.5 -58.5t-23.5 -58.5t-58.5 -23.5t-58.5 23.5t-23.5 58.5z" />
<glyph unicode="&#xf7;" horiz-adv-x="1189" d="M164 655.5q0 30.5 31 30.5h798q31 0 31 -30.5t-31 -30.5h-798q-31 0 -31 30.5zM481 328q0 47 28 74.5t75 27.5t74.5 -27.5t27.5 -74.5t-27.5 -75t-74.5 -28t-75 28t-28 75zM481 983q0 47 28 74.5t75 27.5t74.5 -27.5t27.5 -74.5t-27.5 -74.5t-74.5 -27.5t-75 27.5 t-28 74.5z" />
<glyph unicode="&#xf8;" horiz-adv-x="1212" d="M104 512q0 238 139.5 385t362.5 147q143 0 262 -67l35 53q10 14 25 14q8 0 16 -4q29 -20 8 -41l-37 -55q193 -152 193 -432q0 -238 -139.5 -385t-362.5 -147q-147 0 -264 67l-35 -53q-10 -14 -24 -14q-8 0 -17 4q-29 16 -10 43l35 55q-187 147 -187 430zM166 512 q0 -250 158 -379l512 793q-100 57 -230 57q-199 0 -319.5 -129t-120.5 -342zM375 98q100 -57 231 -57q201 0 321 128t120 343q0 258 -162 381z" />
<glyph unicode="&#xf9;" horiz-adv-x="1331" d="M22 993.5q0 30.5 31 30.5h205q31 0 31 -31v-604q0 -174 90 -261t248 -87q154 0 291 137q61 63 108 139v615q0 31 -31 31h-143q-31 0 -31 30.5t31 30.5h205q31 0 30 -31v-901q0 -31 31 -31h144q31 0 30.5 -30.5t-30.5 -30.5h-205q-31 0 -31 31v114q0 20 -8 28.5t-25 -7.5 q-166 -186 -366 -186q-188 0 -294 105t-106 304v543q0 31 -30 31h-144q-31 0 -31 30.5zM451 1423q0 12 16 21q10 10 20 10q12 0 23 -18l182 -260q8 -10 8 -21q0 -10 -14 -20q-10 -6 -20 -7q-12 0 -23 13l-184 262q-8 10 -8 20z" />
<glyph unicode="&#xfa;" horiz-adv-x="1331" d="M22 993.5q0 30.5 31 30.5h205q31 0 31 -31v-604q0 -174 90 -261t248 -87q154 0 291 137q61 63 108 139v615q0 31 -31 31h-143q-31 0 -31 30.5t31 30.5h205q31 0 30 -31v-901q0 -31 31 -31h144q31 0 30.5 -30.5t-30.5 -30.5h-205q-31 0 -31 31v114q0 20 -8 28.5t-25 -7.5 q-166 -186 -366 -186q-188 0 -294 105t-106 304v543q0 31 -30 31h-144q-31 0 -31 30.5zM553 1155q0 11 8 21l182 260q10 18 23 18q10 0 20 -10q16 -8 17 -21q0 -10 -8 -20l-185 -262q-10 -12 -22 -13q-10 0 -21 7q-14 10 -14 20z" />
<glyph unicode="&#xfb;" horiz-adv-x="1331" d="M22 993.5q0 30.5 31 30.5h205q31 0 31 -31v-604q0 -174 90 -261t248 -87q154 0 291 137q61 63 108 139v615q0 31 -31 31h-143q-31 0 -31 30.5t31 30.5h205q31 0 30 -31v-901q0 -31 31 -31h144q31 0 30.5 -30.5t-30.5 -30.5h-205q-31 0 -31 31v114q0 20 -8 28.5t-25 -7.5 q-166 -186 -366 -186q-188 0 -294 105t-106 304v543q0 31 -30 31h-144q-31 0 -31 30.5zM371 1179.5q0 10.5 10 22.5l219 223q18 18 35 19q16 0 33 -17l225 -225q10 -12 10 -22.5t-10 -20.5t-21.5 -10t-21.5 10l-197 195q-18 18 -37 0l-192 -195q-10 -10 -21.5 -10t-21.5 10 t-10 20.5z" />
<glyph unicode="&#xfc;" horiz-adv-x="1331" d="M22 993.5q0 30.5 31 30.5h205q31 0 31 -31v-604q0 -174 90 -261t248 -87q154 0 291 137q61 63 108 139v615q0 31 -31 31h-143q-31 0 -31 30.5t31 30.5h205q31 0 30 -31v-901q0 -31 31 -31h144q31 0 30.5 -30.5t-30.5 -30.5h-205q-31 0 -31 31v114q0 20 -8 28.5t-25 -7.5 q-166 -186 -366 -186q-188 0 -294 105t-106 304v543q0 31 -30 31h-144q-31 0 -31 30.5zM391 1249.5q0 34.5 23.5 58t58.5 23.5t58.5 -23.5t23.5 -58.5t-23.5 -58.5t-58 -23.5t-59.5 23q-23 25 -23 59.5zM718.5 1249.5q0.5 34.5 24 58t58.5 23.5t58.5 -23.5t23.5 -58.5 t-23.5 -58.5t-58.5 -23.5t-60 23q-23 25 -22.5 59.5z" />
<glyph unicode="&#xfd;" horiz-adv-x="1263" d="M-2 993q0 31 31 31h389q31 0 31 -31t-31 -30h-127q-37 0 -21 -31l387 -809q10 -29 23 0l313 809q14 31 -20 31h-127q-31 0 -31 30q0 31 31 31h389q31 0 31 -31t-31 -30h-133q-27 0 -41 -31l-389 -1004q-37 -92 -71 -159.5t-74 -111.5t-87.5 -65.5t-113.5 -21.5 q-49 0 -89 11t-72 28.5t-55.5 38t-37.5 39.5q-10 10 -13.5 22t9.5 25q20 20 43 0q35 -35 87 -69t128 -34q98 0 159.5 71t120.5 226l21 54q8 27 0 49l-424 901q-16 31 -41 31h-133q-31 0 -31 30zM588 1155q0 11 8 21l182 260q10 18 23 18q10 0 20 -10q16 -8 17 -21 q0 -10 -9 -20l-184 -262q-10 -12 -22 -13q-10 0 -21 7q-14 10 -14 20z" />
<glyph unicode="&#xfe;" horiz-adv-x="1228" d="M-6 -379q0 31 31 31h143q31 0 31 31v1658q0 31 -31 31h-143q-31 0 -31 31t31 31h204q31 0 31 -31v-524q0 -20 8 -28.5t25 7.5q51 66 147 125q100 61 230 61q205 0 327 -143q123 -145 123 -399q0 -117 -38 -210t-108.5 -157.5t-173 -99.5t-233.5 -35h-276q-31 0 -31 -31 v-286q0 -31 31 -31h164q31 0 30 -31q0 -31 -30 -31h-430q-31 0 -31 31zM260 92q0 -31 31 -31h276q236 0 364 115t128 326q0 236 -107.5 358.5t-281.5 122.5q-166 0 -305 -139q-33 -33 -58.5 -68t-46.5 -69v-615z" />
<glyph unicode="&#xff;" horiz-adv-x="1263" d="M-2 993q0 31 31 31h389q31 0 31 -31t-31 -30h-127q-37 0 -21 -31l387 -809q10 -29 23 0l313 809q14 31 -20 31h-127q-31 0 -31 30q0 31 31 31h389q31 0 31 -31t-31 -30h-133q-27 0 -41 -31l-389 -1004q-37 -92 -71 -159.5t-74 -111.5t-87.5 -65.5t-113.5 -21.5 q-49 0 -89 11t-72 28.5t-55.5 38t-37.5 39.5q-10 10 -13.5 22t9.5 25q20 20 43 0q35 -35 87 -69t128 -34q98 0 159.5 71t120.5 226l21 54q8 27 0 49l-424 901q-16 31 -41 31h-133q-31 0 -31 30zM374.5 1229q0.5 35 24 58.5t58.5 23.5t58.5 -23.5t23.5 -58.5t-23.5 -58.5 t-58.5 -24t-60 22.5q-23 25 -22.5 60zM702 1229q0 35 24 58.5t58.5 23.5t58 -23.5t23.5 -58.5t-23.5 -58.5t-58 -24t-59.5 22.5q-23 25 -23 60z" />
<glyph unicode="&#x152;" horiz-adv-x="1890" d="M119 717q0 307 188.5 512t497.5 205h932q31 0 30 -31v-246q0 -31 -30.5 -31t-30.5 31v184q0 31 -31 31h-645q-31 0 -31 -31v-553q0 -31 31 -30h461q31 0 31 30v103q0 31 30.5 31t30.5 -31v-328q0 -31 -30.5 -31t-30.5 31v103q0 31 -31 30h-461q-31 0 -31 -30v-574 q0 -31 31 -31h666q31 0 30 31v184q0 31 31 31t31 -31v-245q0 -31 -31 -31h-952q-309 0 -497.5 205t-188.5 512zM180 716.5q0 -282.5 173 -469t452 -186.5h102q31 0 31 31v1249q0 31 -31 31h-102q-279 0 -452 -186.5t-173 -469z" />
<glyph unicode="&#x153;" horiz-adv-x="1875" d="M104 512q0 238 139.5 385t362.5 147q215 0 355 -139q133 139 341.5 139t345 -135t136.5 -325v-31q0 -61 -62 -61h-807q-31 0 -30 -31q12 -180 122 -300t296 -120q80 0 140 15.5t104 38t76 48t54 45.5q14 12 24.5 7t20.5 -15q20 -25 -2 -43q-27 -25 -64.5 -52.5t-87.5 -51 t-116 -38.5t-149 -15q-213 0 -342 139q-135 -139 -355 -139q-223 0 -362.5 147t-139.5 385zM166 512q0 -215 120 -343t320 -128q199 0 316 123q-100 137 -101 348q0 209 101 346q-119 125 -316 125q-199 0 -319.5 -129t-120.5 -342zM887 584q-2 -31 28 -31h777q31 0 30 31 q0 164 -119.5 281.5t-299.5 117.5q-186 0 -293 -119t-123 -280z" />
<glyph unicode="&#x178;" horiz-adv-x="1284" d="M-21 1403q0 31 31 31h389q31 0 31 -31t-31 -31h-123q-16 0 -22 -9t2 -22l371 -647q14 -20 28 0l373 647q8 12 2 21.5t-22 9.5h-123q-31 0 -31 31t31 31h389q31 0 31 -31t-31 -31h-123q-33 0 -51 -31l-426 -739v-510q0 -31 31 -31h143q31 0 31 -30.5t-31 -30.5h-410 q-31 0 -30.5 30.5t30.5 30.5h144q31 0 30 31v506l-428 743q-18 31 -51 31h-123q-31 0 -31 31zM395 1659q0 35 23.5 58.5t58.5 23.5t58.5 -23.5t23.5 -58.5t-23.5 -58.5t-58 -24t-59.5 22.5q-23 25 -23 60zM722.5 1659q0.5 35 24 58.5t58.5 23.5t58.5 -23.5t23.5 -58.5 t-23.5 -58.5t-58.5 -24t-60 22.5q-23 25 -22.5 60z" />
<glyph unicode="&#x2c6;" horiz-adv-x="536" d="M2 1160q0 11 10 22l219 223q18 18 35 18q16 0 33 -16l225 -225q10 -10 10.5 -21.5t-10 -22t-21.5 -10.5t-22 11l-196 194q-18 18 -37 0l-193 -194q-10 -10 -21 -10.5t-21.5 10t-10.5 21.5z" />
<glyph unicode="&#x2dc;" horiz-adv-x="512" d="M0 1178q0 88 40 136t103 48q45 0 78 -23.5t49.5 -53.5t42 -53.5t56.5 -23.5q82 0 82 123q0 31 30.5 31t30.5 -31q0 -90 -40 -137t-103 -47q-45 0 -78 23.5t-49.5 53t-42 53t-56.5 23.5q-82 0 -82 -122q0 -31 -30.5 -31t-30.5 31z" />
<glyph unicode="&#x2000;" horiz-adv-x="942" />
<glyph unicode="&#x2001;" horiz-adv-x="1884" />
<glyph unicode="&#x2002;" horiz-adv-x="942" />
<glyph unicode="&#x2003;" horiz-adv-x="1884" />
<glyph unicode="&#x2004;" horiz-adv-x="628" />
<glyph unicode="&#x2005;" horiz-adv-x="471" />
<glyph unicode="&#x2006;" horiz-adv-x="314" />
<glyph unicode="&#x2007;" horiz-adv-x="314" />
<glyph unicode="&#x2008;" horiz-adv-x="235" />
<glyph unicode="&#x2009;" horiz-adv-x="376" />
<glyph unicode="&#x200a;" horiz-adv-x="104" />
<glyph unicode="&#x2010;" d="M156 655.5q0 30.5 30 30.5h799q31 0 31 -30.5t-31 -30.5h-799q-30 0 -30 30.5z" />
<glyph unicode="&#x2011;" d="M156 655.5q0 30.5 30 30.5h799q31 0 31 -30.5t-31 -30.5h-799q-30 0 -30 30.5z" />
<glyph unicode="&#x2012;" d="M156 655.5q0 30.5 30 30.5h799q31 0 31 -30.5t-31 -30.5h-799q-30 0 -30 30.5z" />
<glyph unicode="&#x2013;" horiz-adv-x="1335" d="M156 655.5q0 30.5 30 30.5h963q31 0 31 -30.5t-31 -30.5h-963q-30 0 -30 30.5z" />
<glyph unicode="&#x2014;" horiz-adv-x="1703" d="M156 655.5q0 30.5 30 30.5h1332q31 0 30.5 -30.5t-30.5 -30.5h-1332q-30 0 -30 30.5z" />
<glyph unicode="&#x2018;" horiz-adv-x="468" d="M131 1128v31q0 106 41 181t113 106q12 6 20 6q14 0 25 -14q14 -27 -13 -39q-125 -55 -124 -189v-16q27 16 51 16q39 0 65.5 -27.5t26.5 -74.5t-27.5 -74.5t-75.5 -27.5q-102 -1 -102 122z" />
<glyph unicode="&#x2019;" horiz-adv-x="466" d="M145 1352q0 47 28 74.5t75 27.5q102 0 102 -123v-31q0 -106 -41 -181t-112 -105q-12 -6 -21 -6q-14 0 -24 14q-14 27 12 39q125 55 125 188v17q-27 -16 -51 -17q-39 0 -66 28t-27 75z" />
<glyph unicode="&#x201a;" horiz-adv-x="495" d="M145 82q0 47 28 74.5t75 27.5q102 0 102 -123v-30q0 -106 -41 -181t-112 -106q-12 -6 -21 -6q-14 0 -24 14q-14 27 12 39q125 55 125 189v16q-27 -16 -51 -16q-39 0 -66 27.5t-27 74.5z" />
<glyph unicode="&#x201c;" horiz-adv-x="755" d="M131 1128v31q0 106 41 181t113 106q12 6 20 6q14 0 25 -14q14 -27 -13 -39q-125 -55 -124 -189v-16q27 16 51 16q39 0 65.5 -27.5t26.5 -74.5t-27.5 -74.5t-75.5 -27.5q-102 -1 -102 122zM418 1128v31q0 106 41 181t112 106q12 6 21 6q14 0 24 -14q14 -27 -12 -39 q-125 -55 -125 -189v-16q27 16 51 16q39 0 66 -27.5t27 -74.5t-28 -74.5t-75 -27.5q-102 -1 -102 122z" />
<glyph unicode="&#x201d;" horiz-adv-x="753" d="M145 1352q0 47 28 74.5t75 27.5q102 0 102 -123v-31q0 -106 -41 -181t-112 -105q-12 -6 -21 -6q-14 0 -24 14q-14 27 12 39q125 55 125 188v17q-27 -16 -51 -17q-39 0 -66 28t-27 75zM432 1352q0 47 27.5 74.5t75.5 27.5q102 0 102 -123v-31q0 -106 -41 -181t-113 -105 q-12 -6 -20 -6q-14 0 -25 14q-14 27 13 39q125 55 124 188v17q-27 -16 -51 -17q-39 0 -65.5 28t-26.5 75z" />
<glyph unicode="&#x201e;" horiz-adv-x="782" d="M145 82q0 47 28 74.5t75 27.5q102 0 102 -123v-30q0 -106 -41 -181t-112 -106q-12 -6 -21 -6q-14 0 -24 14q-14 27 12 39q125 55 125 189v16q-27 -16 -51 -16q-39 0 -66 27.5t-27 74.5zM432 82q0 47 27.5 74.5t75.5 27.5q102 0 102 -123v-30q0 -106 -41 -181t-113 -106 q-12 -6 -20 -6q-14 0 -25 14q-14 27 13 39q125 55 124 189v16q-27 -16 -51 -16q-39 0 -65.5 27.5t-26.5 74.5z" />
<glyph unicode="&#x2022;" horiz-adv-x="704" d="M127 717q0 94 65.5 159.5t159.5 65.5t160 -65.5t66 -159.5t-66 -159.5t-160 -65.5t-159.5 65.5t-65.5 159.5z" />
<glyph unicode="&#x2026;" horiz-adv-x="1355" d="M145 82q0 47 28 74.5t75 27.5t74.5 -27.5t27.5 -74.5t-27.5 -74.5t-74.5 -27.5t-75 27.5t-28 74.5zM575 82q0 47 28 74.5t75 27.5t74.5 -27.5t27.5 -74.5t-27.5 -74.5t-74.5 -27.5t-75 27.5t-28 74.5zM1006 82q0 47 27.5 74.5t74.5 27.5t74.5 -27.5t27.5 -74.5 t-27.5 -74.5t-74.5 -27.5t-74.5 27.5t-27.5 74.5z" />
<glyph unicode="&#x202f;" horiz-adv-x="376" />
<glyph unicode="&#x2039;" horiz-adv-x="729" d="M80 510q0 17 16 33l473 471q10 10 21.5 10t22 -10t10.5 -21.5t-11 -21.5l-442 -443q-18 -18 0 -36l438 -439q10 -10 10 -21.5t-11 -21.5t-21.5 -10t-20.5 10l-467 465q-18 18 -18 35z" />
<glyph unicode="&#x203a;" horiz-adv-x="729" d="M104.5 992.5q-0.5 11.5 11 21.5t23 10t21.5 -10l473 -471q16 -16 16 -33q0 -16 -18 -35l-467 -465q-10 -10 -21.5 -10t-21.5 10t-10 21.5t10 21.5l438 439q18 18 0 36l-442 443q-12 10 -12.5 21.5z" />
<glyph unicode="&#x205f;" horiz-adv-x="471" />
<glyph unicode="&#x20ac;" horiz-adv-x="1583" d="M73.5 563q0.5 31 30.5 31h183q-8 51 -8 123q0 68 8 123h-142q-31 0 -30.5 30.5t30.5 30.5h152q49 246 219 399.5t408 153.5q246 0 448 -174q33 -29 33 20v103q0 31 30.5 31t30.5 -31v-389q0 -31 -30.5 -31t-30.5 31v143q-55 63 -129 117q-168 119 -352 119 q-211 0 -363.5 -135.5t-202.5 -356.5h586q31 0 31 -30.5t-31 -30.5h-596q-8 -55 -8 -123q0 -72 8 -123h555q31 0 31 -31t-31 -31h-545q49 -223 211.5 -357t395.5 -134q141 0 261 47t208 139q20 20 43 0q20 -23 0 -43q-98 -96 -222.5 -150t-289.5 -54q-260 0 -439.5 151.5 t-228.5 400.5h-193q-31 0 -30.5 31z" />
<glyph unicode="&#x2122;" horiz-adv-x="1935" d="M160 1270v133q0 31 30 31h533q31 0 31 -31v-133q0 -31 -31 -31t-31 31v71q0 31 -30 31h-144q-31 0 -31 -31v-450q0 -31 31 -31h82q31 0 31 -30.5t-31 -30.5h-287q-31 0 -30.5 30.5t30.5 30.5h82q31 0 31 31v450q0 31 -31 31h-143q-31 0 -31 -31v-71q0 -31 -30.5 -31 t-30.5 31zM815 829.5q0 30.5 31 30.5h82q31 0 30 31v450q0 31 -30 31h-82q-31 0 -31 31t31 31h158q37 0 51 -31l221 -471q20 -41 41 0l221 471q14 31 51 31h158q31 0 31 -31t-31 -31h-82q-31 0 -31 -31v-450q0 -31 31 -31h82q31 0 31 -30.5t-31 -30.5h-246q-31 0 -31 30.5 t31 30.5h41q31 0 31 31v399q0 10 -3 14.5t-6 3.5t-8 -8l-221 -471q-14 -31 -38.5 -30.5t-39.5 30.5l-221 471q-4 6 -7 7.5t-6 -3t-3 -14.5v-399q0 -31 31 -31h41q31 0 30.5 -30.5t-30.5 -30.5h-246q-31 0 -31 30.5z" />
<glyph unicode="&#xe000;" horiz-adv-x="1025" d="M0 0v1025h1025v-1025h-1025z" />
</font>
</defs>
</svg>
